<?xml version="1.0" encoding="UTF-8"?>
<svg id="katman_2" data-name="katman 2" xmlns="http://www.w3.org/2000/svg" viewBox="0 0 526.85 127.5">
  <defs>
    <style>
      .cls-1 {
        fill: #fdfefe;
      }

      .cls-1, .cls-2 {
        stroke-width: 0px;
      }

      .cls-2 {
        fill: #1888c8;
      }
    </style>
  </defs>
  <g id="Layer_1" data-name="Layer 1">
    <g>
      <path class="cls-1" d="M526.74,5.82c0,39.83-.01,79.66.04,119.49,0,1.71-.23,2.19-2.11,2.19-174.19-.06-348.39-.06-522.58,0-1.93,0-2.09-.55-2.08-2.21C.06,84.23.07,43.18,0,2.13,0,.29.43,0,2.18,0c22.79.07,45.59.05,68.38.05-3.14,5.08-6.22,10.2-9.43,15.25-7.15,11.25-14.35,22.48-21.55,33.7-7.2,11.22-14.39,22.45-21.66,33.63-1.82,2.8-4.17,5.21-7.62,5.88-1.87.37-1.2,1.59-1.29,2.59-.14,1.52,1,1.35,1.95,1.35,7.45,0,14.91-.05,22.36.04,1.81.02,2.18-.7,2.15-2.32-.05-2.31-1.71-1.53-2.82-1.57-4.96-.15-6.91-2.5-5.13-7.03,2.29-5.8,5.94-10.93,8.95-16.38.39-.7,1.01-.58,1.6-.58,8.77,0,17.54.02,26.31-.02,1.36,0,1.84.47,1.91,1.8.2,4.08.71,8.12,1.5,12.15.9,4.59-.23,7.28-3.4,9.03-1.65.91-3.48,1.13-5.33,1-1.48-.1-1.75.64-1.72,1.9.03,1.16.05,1.99,1.62,1.99,12.63-.04,25.25-.03,37.88,0,1.25,0,1.58-.46,1.7-1.68.19-2.06-.9-2.21-2.51-2.23-4.38-.04-6.28-1.55-7.54-5.65-1.41-4.59-1.72-9.37-2.61-14.05-.91-4.77-1.52-9.6-2.35-14.39-1.28-7.35-2.69-14.68-3.93-22.04-1.83-10.78-3.57-21.58-5.35-32.37,52.44,0,104.88,0,157.32,0-.12.32-.19.68-.37.97-8.9,13.94-17.81,27.87-26.7,41.82-7.87,12.34-15.68,24.71-23.57,37.04-2.5,3.9-5.09,7.73-10.16,8.77-1.49.31-.68,1.75-.76,2.67-.11,1.39,1.05,1.12,1.86,1.12,7.54.02,15.08-.04,22.61.06,1.88.02,2.17-.79,2.1-2.36-.1-2.26-1.76-1.49-2.89-1.54-3.79-.14-5.9-1.71-5.71-4.62.1-1.63.58-3.24,1.4-4.71,1.99-3.55,3.82-7.21,6.06-10.59,1.06-1.6,1.17-4.21,4.34-4.14,8.32.2,16.65.1,24.98.04,1.39-.01,1.94.38,2.25,1.78.87,4.02.64,8.19,1.51,12.14,1.54,6.96-2.28,10.31-8.15,10.05-1.67-.07-2.04.62-2.06,2.15-.02,1.69.85,1.77,2.13,1.77,12.27-.03,24.54-.02,36.81-.01,1.28,0,2.36.13,2.38-1.8.02-1.9-.85-2.13-2.39-2.09-5.5.13-7.25-2.41-8.24-7.46-1.3-6.64-2.31-13.34-3.47-20.01-.95-5.47-1.94-10.93-2.87-16.41-.99-5.81-1.93-11.63-2.88-17.45-.63-3.85-1.21-7.71-1.85-11.56-.87-5.21-1.78-10.42-2.68-15.63,58.93,0,117.86,0,176.79,0-.05.34,0,.75-.16,1.01-6.65,10.43-13.27,20.87-19.84,31.36-10.16,16.23-20.59,32.28-30.91,48.4-2.11,3.3-4.48,6.49-8.46,7.54-1.83.48-1.83,1.38-1.8,2.75.05,1.73,1.3,1.33,2.27,1.33,7.27.02,14.55,0,21.82.02,1.41,0,2.47.07,2.47-1.98,0-2.1-1.15-1.94-2.51-1.92-6.21.09-7.37-3.69-5.04-8.44,2.35-4.81,5.21-9.39,7.88-14.04.45-.79.88-1.54,2.15-1.53,8.76.08,17.53.04,26.29.04.69,0,1.46-.1,1.56.92.57,6.05,1.96,12.03,1.57,18.17-.08,1.33-.81,2.3-1.85,3.01-1.75,1.2-3.67,1.96-5.85,1.86-1.47-.07-2.74-.15-2.7,2.06.04,2.08,1.29,1.95,2.61,1.95,12.27,0,24.54-.02,36.81.02,1.47,0,2.22-.23,2.2-1.98-.02-1.67-.65-2.18-2.18-2.02-5.83.61-8.04-3.5-8.83-8.06-1.06-6.07-2.05-12.15-3.06-18.22-.96-5.82-1.9-11.64-2.87-17.46-.79-4.79-1.62-9.57-2.42-14.35-.94-5.65-1.65-11.34-2.88-16.93-.99-4.49-.88-9.18-2.59-13.52C452.03.05,488.33.07,524.64,0c1.8,0,2.5.35,2.1,2.15-8.51-.01-17.01-.02-25.52-.05-1.36,0-2.52-.2-2.51,1.92.01,2.13,1.23,1.86,2.56,1.89,2.36.05,4.56.59,5.77,2.86,1.28,2.39.75,4.85-.62,6.93-6.01,9.12-12.14,18.16-18.23,27.23-.33.48-.46,1.32-1.19,1.18-.3-.06-.5-.85-.66-1.34-2.95-9.13-5.82-18.28-8.84-27.38-2.23-6.71-.58-9.21,6.49-9.48.18,0,.35-.03.53-.01,1.63.14,1.77-.85,1.83-2.14.06-1.53-.73-1.65-1.95-1.65-11.66.03-23.33.02-34.99,0-1.13,0-2.08-.02-2.06,1.58.02,1.41.16,2.26,1.95,2.27,2.93.02,5.66,1.05,6.76,3.93,1.82,4.77,3.24,9.69,4.84,14.55,2.04,6.16,4.15,12.29,6.12,18.47,1.32,4.14,2.63,8.01.94,12.75-2.98,8.37-4.84,17.14-7.24,25.72-.84,3.02-2.36,5.66-5.69,6.48-1.76.43-3.57.9-5.43.72-1.53-.15-2.21.39-2.26,2.03-.07,1.88,1.01,1.87,2.35,1.87,13.24-.02,26.48-.02,39.72,0,1.27,0,2.16-.07,2.17-1.76,0-1.62-.57-2.21-2.15-2.1-1.13.07-2.28.04-3.42-.04-4.32-.34-6.49-3.69-5.28-7.67,1.98-6.54,3.69-13.16,5.63-19.71,1.18-3.97,1.39-8.34,3.86-11.81,8.67-12.23,17.51-24.34,26.26-36.51,2.58-3.59,5.33-6.88,10.27-7.03ZM271.81,119.91c.37-.18.79-.36.73-.86-.02-.17-.27-.42-.44-.44-.57-.06-.6.42-.69.82-.17.19-.33.38-.5.57-1.08-.09-2.59.9-2.95-1.04-.32-1.72,1.19-1.59,2.18-1.94,1.34-.47,2.52-1.12,3.26-2.43.49-.85,1.14-1.62.28-2.58-.86-.96-1.84-1.63-3.22-1.24-2.81.79-5.51,3.9-5.75,6.78-.13,1.55-.27,3.27,1.61,3.99,1.9.73,3.74.81,5.03-1.19.15-.15.31-.3.46-.45ZM293.06,92.45c8.81-.16,18.98.54,29.07-1.11,8.37-1.37,16.02-4.37,21.51-11.01,6.01-7.27,7.34-15.71,3.6-24.41-2.57-5.99-8.18-8.72-14.07-10.75-.4-.14-1.13-.29-1.13-.41.02-.77.72-.5,1.18-.61,7.29-1.78,13.93-4.64,19-10.5,7.24-8.37,5.04-22.97-6.19-27.85-6.57-2.86-13.48-3.52-20.45-3.63-11.92-.18-23.84-.05-35.76-.05-1.28,0-2.57-.35-2.61,1.82-.03,2.05,1.02,1.95,2.44,1.98,6.47.12,8.09,2.21,6.72,8.5-.13.59-.12,1.22-.28,1.8-2.91,10.59-5.9,21.16-8.76,31.76-2.89,10.69-5.58,21.43-8.52,32.1-1.19,4.31-3.57,7.85-8.5,8.43-1.64.19-1.99.69-2.02,2.2-.05,1.97,1.17,1.76,2.41,1.76,7.01,0,14.03,0,22.37,0ZM151.01,2.11c-11.66,0-23.32.02-34.98-.03-1.46,0-2.42.14-2.74,1.88-.5,2.72-1.3,5.38-1.92,8.08-.84,3.71-1.59,7.45-2.46,11.15-.38,1.63.3,2.34,1.74,2.88,1.58.6,1.71-.59,2.19-1.47,1.34-2.43,2.78-4.82,4.67-6.86,5.76-6.21,12.53-10.47,21.36-10.58,1.37-.02,2.46-.06,1.86,1.97-2.43,8.21-4.93,16.4-7.03,24.69-3.75,14.78-8.07,29.39-12.08,44.1-1.99,7.3-5.16,10.07-12.66,10.63-1.51.11-1.65.8-1.67,1.99-.02,1.24.21,1.92,1.7,1.92,13.85-.04,27.7-.04,41.55.01,1.57,0,1.61-.81,1.63-1.97.02-1.23-.2-2.02-1.7-1.93-1.84.1-3.67,0-5.46-.52-3.38-.99-5.64-4.11-4.6-6.74.93-2.35,1.42-4.82,2.09-7.22,2.64-9.41,5.3-18.81,7.99-28.21,3.52-12.31,6.75-24.7,10.07-37.06.23-.85.55-1.47,1.51-1.51,6.4-.28,12.78,2.46,15.67,9.08,1.35,3.09,1.91,6.33,1.72,9.67-.1,1.82,1.13,1.82,2.34,2.07,1.32.28,1.92-.22,2.15-1.51.4-2.3.92-4.58,1.34-6.88.91-4.94,1.61-9.94,2.77-14.82.54-2.25.33-2.88-2.09-2.86-11.66.09-23.32.04-34.98.04ZM42.97,110.9c-.26,3.18.96,6.13,1.2,9.21.04.56-.27,1.34.54,1.57.95.26,1.09-.66,1.45-1.2,1.76-2.67,3.48-5.36,5.25-8.02.23-.34.66-.55.99-.81.06.21.21.45.15.62-.94,2.96-.64,6.38-3.24,8.73-.17.15-.32.31-.49.46.21.08.42.23.63.24,1.75.02,3.5.04,5.25,0,.67-.01.78-.28.25-.58-.95-.55-.75-1.36-.62-2.05.18-.92.67-1.78.95-2.69,1.02-3.22.86-6.84,3.47-9.52.52-.53-.12-.86-.71-.92-2.34-.24-4.34-.15-5.61,2.47-1.19,2.47-2.94,4.66-4.46,6.97-.18.27-.43.7-.65.71-.65,0-.44-.64-.49-.98-.35-2.58-.67-5.16-.95-7.74-.08-.73-.06-1.47-1.07-1.42-1.38.07-3.05-.6-4.04.32-.82.76.94.57,1.12,1.16.09.3,0,.68-.1,1-1.25,4.21-1.86,8.63-4.13,12.5-.17.29-.95.63-.03.75,1.11.15,2.49.39,3.34-.11.83-.49-1.01-.76-.82-1.59.06-.24-.11-.56-.02-.77,1.16-2.67,1.12-5.74,2.82-8.28ZM376.68,105.97v-.06c-.79,0-1.58,0-2.36,0-1.73.02-1.7,0-.91,1.52.18.35.2.88.1,1.27-.93,3.59-1.28,7.52-3.03,10.66-1.97,3.52.41,2.25,1.82,2.35.78.05,1.58.03,2.36-.02.24-.01.98-.1.61-.37-2.8-2.02.59-3.87.1-5.82-.08-.31.46-1.07.79-1.12.45-.07.44.61.57,1.02.5,1.56,1.03,3.11,1.57,4.66.45,1.32,3.54,2.35,4.73,1.6.59-.36.11-.45-.13-.63-1.75-1.32-1.71-3.46-2.44-5.25-.54-1.31-.38-1.95,1.09-2.54,1.71-.68,2.74-2.16,2.49-4.14-.27-2.1-1.95-2.78-3.7-3.11-1.18-.22-2.44-.04-3.67-.04ZM4.1,121.71h0c.61,0,1.23.03,1.84-.02.62-.06,1.95.64.67-1.09-1.02-1.38.24-3.33.57-5.01.1-.51.71-.61.9-.05.5,1.48,2.27,2.78,1.82,4.2-.87,2.69.83,1.93,2.07,1.97.61.02,1.23.02,1.84,0,.52-.02,1.36.08,1.48-.16.3-.59-.58-.64-.85-1.05-1.43-2.21-2.19-4.72-3.33-7.05-.45-.92.05-1.53.63-2.05,1.62-1.46,3.27-2.87,4.95-4.26.29-.24,1-.13.92-.69-.1-.71-.79-.52-1.28-.53-.88-.03-1.75-.02-2.63,0-.41.01-1.22.22-.94.52,2.37,2.55-.9,2.7-1.66,3.79-.71,1.02-1.91,1.7-2.9,2.54.2-1.51.64-2.95,1.08-4.42.32-1.05,2.31-1.1,1.47-2.21-.4-.53-1.98-.2-3.03-.23-.61-.02-1.23-.04-1.84,0-.66.05-1.58-.35-1.91.36-.41.89.91.55,1.09,1.09.13.4.27.87.17,1.25-.93,3.68-1.25,7.72-3.06,10.92-1.92,3.4.42,1.99,1.64,2.16.09.01.17,0,.26,0ZM396.49,121.71c1.23,0,2.47-.15,3.67.03,2.69.39,3.86-.89,4.1-3.37.04-.41.52-.91.08-1.2-.64-.41-.92.28-1.15.68-1.2,2.18-3.47,2.55-5.52,3.11-1.31.36-2.52-.02-1.83-1.96.43-1.22.73-2.49.97-3.76.14-.73.12-1.38,1.14-1.36.74.02,1.34.14,1.8.81.45.65-.04,2.14.99,1.99,1.1-.16.64-1.61.92-2.48.26-.82.65-1.61.89-2.44.08-.28-.03-.84-.23-.95-.47-.26-.68.16-.95.55-.84,1.19-2.17,2.39-3.44,1.64-.88-.51.2-2.13.38-3.26.23-1.49.45-2.91,2.4-2.7,1.52.16,3.29.15,3.39,2.41.02.48.24,1.35.82.91,1.15-.87.86-2.41,1.04-3.65.19-1.32-1.06-.79-1.69-.81-2.28-.07-4.55-.03-6.83-.02-2.62,0-2.08.13-2.51,2.03-1,4.35-1.68,8.84-3.82,12.87-.14.27-.79.25-.56.69.1.18.61.2.94.2,1.66.02,3.33,0,4.99.01ZM159.38,121.72c.99-.13,3.16.52.92-1.45-.31-.27-.22-1.19-.08-1.75.58-2.26,1.24-4.49,1.9-6.73.11-.37-.05-1.04.53-1.01.3.01.66.5.83.85,1.41,2.86,2.77,5.73,4.16,8.6.33.68.35,1.85,1.22,1.81,1.12-.05.78-1.36,1.07-2.08,1.75-4.34,1.55-9.35,4.64-13.23.09-.12-.04-.63-.13-.64-1.38-.27-3.08-.71-4.06.09-1.09.88,1.05.59,1.05,1.36,0,.78.14,1.6-.04,2.34-.36,1.51-.54,3.09-1.36,4.47-.23.39.27,1.2-.51,1.2-.52,0-.77-.62-.99-1.11-.94-2.03-2.13-3.98-2.77-6.1-.74-2.44-2.34-2.66-4.38-2.41-.42.05-1.09.06-1.19.28-.32.73.42.72.86.93.82.4.69,1.17.49,1.82-1.08,3.64-1.62,7.61-3.48,10.82-1.78,3.07.46,1.68,1.32,1.94ZM477.28,120.1c-.37,1.32-.49,2.35,1.62,1.61,3.59-1.27.5,3.17,2.66,3.25.07,0,.24.49.16.65-.09.19-.4.29-.63.39-.64.27-1.95-.62-1.87.47.06.88,1.47.37,2.27.45.6.06,1.31.13,1.81-.12,1.2-.61,2.26-1.59.54-2.67-2.51-1.57-.67-1.91.58-2.21,2.73-.64,3.59-2.4,3.42-4.97-.18-2.78-2.35-4.01-4.17-5.57-.8-.69-1.96-1.42-1.45-2.81.31-.85.91-1.43,1.93-1.52,1.39-.13,2.37.25,2.89,1.63.24.63.69,1.18,1.04,1.76.25-.71.52-1.42.76-2.13.17-.49.31-.99.45-1.5.14-.55-.22-.99-.65-.8-1.58.68-3.07-.18-4.62-.14-2.05.05-3.47.74-4.31,2.63-.91,2.05-.29,3.74,1.18,5.22.8.8,1.7,1.49,2.54,2.25,1.09.99,1.87,2.1,1.15,3.65-.54,1.17-1.49,1.59-2.77,1.49-1.63-.12-2.49-1.05-2.92-2.5-.17-.57-.17-1.46-.87-1.41-.64.05-.65.94-.74,1.53-.06.43-.01.87-.01,1.4ZM338.13,105.93c-6.07-.16-9.44,2.41-10.78,8.18-.71,3.06.37,6,2.7,7.29,2.46,1.36,6.27.98,8.35-.89.61-.54,1.75-1.24,1.03-2.03-.77-.84-1.09.62-1.67.95-1.53.86-2.96,1.9-4.84.91-1.78-.93-1.96-2.51-1.86-4.23.16-2.85,1.21-5.34,3.03-7.55,1.14-1.39,2.61-1.85,4.2-1.44,1.36.35,1.96,1.58,2.17,2.96.05.31.2.61.3.91.22-.26.49-.49.64-.78,1.51-2.86.89-4.04-2.22-4.27-.35-.03-.7,0-1.05,0ZM420.88,105.9c-1.49,0-3,.17-4.46-.04-2.21-.31-2.66,1.04-2.87,2.68-.06.49-.03,1.3.24,1.45.54.29.63-.56,1.03-.82.93-.6,1.53-1.64,2.74-1.88.69-.14,1.34-.31,1.05.73-1.09,3.9-2.06,7.84-3.41,11.65-.77,2.16-1.07,2.05,1.62,2.05.35,0,.7,0,1.05,0,1.83,0,1.78.01,1.24-1.39-.17-.44-.1-1.04.03-1.51.96-3.49,2.06-6.95,2.93-10.47.39-1.57,1.08-1.21,2.04-.73.82.41.97,1.16,1.11,1.94.07.42.14.97.69.94.5-.02.58-.57.72-.96.99-2.85.43-3.61-2.61-3.61-1.05,0-2.1,0-3.15,0ZM300.04,105.91c-1.57,0-3.15.06-4.72-.02-1.16-.06-1.79.23-1.86,1.52-.04.83-.84,2-.09,2.4.85.46,1.17-1.01,1.88-1.44.37-.22.7-.56,1.09-.69.56-.19,1.15-.81,1.69-.41.58.44.11,1.09-.06,1.67-.95,3.23-2,6.44-2.71,9.73-.27,1.23-1.82,2.74-1.47,2.86,1.35.43,2.92.19,4.41.18.61,0,1.65.12,1.75-.12.32-.79-.74-.62-1.08-1.05-.47-.59-.28-1.09-.11-1.69.98-3.4,1.92-6.81,2.84-10.22.16-.6.27-1.35.95-1.38.54-.02,1.24.3,1.6.71.43.49.56,1.24.87,1.85.14.27.43.47.65.7.2-.25.49-.47.59-.76,1.09-3.17.6-3.83-2.81-3.84-1.14,0-2.27,0-3.41,0ZM206.47,121.71c2.23,0,2.22,0,2.11-1.86-.02-.33.23-.67.24-1.01.23-4.61,3.76-7.46,5.89-11.06.38-.64,1.83-.52,1.38-1.53-.34-.75-1.42-.26-2.17-.34-.52-.06-1.05-.05-1.57,0-1.05.11-1.79.3-.33,1.19,1.07.65.57,1.59.04,2.23-.86,1.05-1.18,2.53-2.52,3.18-.06.03-.18,0-.25-.05-.37-.18-1.49-4.47-1.29-4.91q.73-1.65-1.33-1.65c-1.05,0-2.1-.02-3.15.04-.86.04-.97.31-.41,1.08,2.86,3.92,3.85,8.09,1.59,12.69-.96,1.96-.87,2.01,1.78,2ZM118.67,117.08c-.11.23-.22.38-.25.55-.27,1.43-1.46,2.92-.78,4.21.44.84,1.96-.55,3.07-.11.57.22,1.18.42,1.77.45,2.29.11,4.42-.31,5.53-2.61,1.01-2.09.73-4.09-.93-5.76-.79-.8-1.75-1.43-2.59-2.19-.97-.89-1.88-1.77-1.32-3.36.44-1.23,1.3-1.2,2.29-1.22,1.56-.02,2.13.95,2.4,2.26.1.48.11,1.42.65,1.13,1.11-.58,1.07-1.87,1.04-2.98-.01-.55.54-1.75-.72-1.41-1.53.42-2.92-.19-4.37-.2-2.17-.02-3.63.87-4.25,2.74-.57,1.74-.59,3.58,1.15,4.96,1.15.92,2.24,1.94,3.21,3.04,1.14,1.3,1.08,3.01-.1,4.01-1.12.95-2.71.87-4.01-.36-.93-.88-1.13-2.1-1.79-3.15ZM358.76,121.72c2.66,0,2.65,0,1.84-2.11-.18-.48-.3-1.01-.37-1.52-.45-3.52-.96-7.03-1.83-10.49-.13-.54.31-1.34-.5-1.57-.95-.27-1.07.64-1.43,1.2-2.75,4.29-5.5,8.58-8.26,12.85-.31.48-1.15,1.1-1.04,1.29.38.72,1.22.21,1.87.34.34.06.7,0,1.05,0,.98,0,1.42.14.49-1.06-.99-1.27.43-2.77,1.27-3.28,1.26-.78,3.16-.75,4.5,0,.84.47.73,2.22.21,2.88-1.93,2.48.63,1.15,1.16,1.44.27.15.69.03,1.04.03ZM146.69,121.71q2.75.02,1.84-2.18c-.2-.48-.46-.98-.49-1.49-.18-3.57-.99-7.05-1.65-10.54-.1-.55.25-1.33-.63-1.5-.8-.15-.92.59-1.25,1.09-2.97,4.58-5.62,9.38-9.04,13.66-.74.93-.33.95.45.96.61.01,1.23,0,1.84,0,1.07.02,1.85.21.72-1.29-.87-1.16.48-2.6,1.28-3.07,1.31-.75,3.2-.75,4.52-.01.91.51.82,2.45.17,3.09-1.62,1.6-.35,1.26.65,1.27.53,0,1.05,0,1.58,0ZM454.55,121.71q2.36,0,1.79-2.05c-.07-.25-.01-.52-.06-.78-.65-3.49-1.45-6.95-1.73-10.51-.06-.77-.08-2.06-.99-2.21-.82-.13-1.23.97-1.69,1.7-2.44,3.87-4.92,7.71-7.38,11.57-.48.75-1.43,1.18-1.54,2.19.87.03,1.74.08,2.61.09,1.05.01,2.28.1.39-1.05-.33-.2.03-.76.18-1.18.77-2.17,2.31-2.75,4.48-2.47,1.74.22,2.67,1.9,1.81,3.45-.27.49-1.36.34-.94,1.13.13.24.98.1,1.51.11.52.01,1.05,0,1.57,0ZM94.81,121.71c.61,0,1.22-.01,1.84,0,1.09.03,2.03.11.65-1.25-.44-.43-.52-1.27-.64-1.94-.62-3.49-1.19-6.98-1.81-10.46-.12-.7.44-1.76-.57-2.04-1.16-.33-1.37.98-1.76,1.6-2.76,4.38-5.38,8.86-8.51,13-.67.89-.59,1.13.5,1.09.7-.03,1.4-.02,2.1-.01,1.1,0,1.13.03.35-.95-.93-1.17.15-2.71,1.03-3.31,1.36-.92,3.32-.77,4.74-.11.93.43.83,2.41.2,3.07-2.09,2.16.29,1.12.85,1.3.32.1.69.02,1.04.02ZM69.07,121.71c2.37,0,2.35,0,2.15-1.69-.04-.32.19-.66.23-1,.53-4.27,3.24-7.35,5.78-10.52.56-.7,1.67-1.91,1.53-2.08-.78-.96-2.04-.4-3.12-.49-.4-.03-1.06.02-1.19.26-.41.75.36.71.78.94.73.41.52.96.12,1.52-.85,1.2-1.66,2.44-2.54,3.63-.16.22-.19,1.01-.84.4-.86-.82-1.16-4.86-.34-5.71.79-.82.26-1.01-.47-1.03-1.66-.04-3.33-.03-4.99,0-.63,0-1.18.5-.59.91,2.33,1.65,2.43,4.3,2.97,6.62.58,2.53-.24,5.04-1.7,7.26-.27.42-1.14.12-1.06.82.01.11.93.14,1.44.16.61.03,1.23,0,1.84,0ZM191.02,121.71c.82-.39,4.38,1.27,1.6-2.21-.21-.26-.34-.64-.35-.98-.19-3.57-1.09-7.03-1.66-10.55-.12-.74.2-1.74-.83-1.97-.95-.21-.98.84-1.32,1.36-2.57,3.99-5.09,8.02-7.65,12.02-.45.71-1.01,1.35-1.52,2.02.95.62,2.01.14,3,.29.17.03.35.01.52,0,.61-.06.76-.14.18-.64-1.61-1.4-.26-2.46.62-3.33,1.42-1.41,3.37-.97,4.84-.36.96.4.84,2.4.18,3.07-2.36,2.42.56.97.9,1.23.28.21.84.04,1.49.04ZM25.69,121.71s0,0,0,0c.88,0,1.75.01,2.63,0,.28,0,.91-.24.55-.42-2.77-1.39-.36-3.14-.18-4.5.39-2.98,1.43-5.87,2.24-8.79.23-.82,2.04-.75,1.49-1.7-.52-.9-1.92-.27-2.93-.37-.52-.05-1.05-.01-1.58,0-1.67.03-1.7.04-.89,1.5.32.57-.03,1.01-.15,1.49-.73,2.85-1.46,5.69-2.24,8.52-.3,1.08-.71,2.13-1.15,3.16-.15.35-.54.59-.82.88.4.08.79.21,1.19.24.61.04,1.23.01,1.84.01ZM227.95,105.9c-2.54,0-2.52-.01-2,1.72.09.28-.04.69-.2.97-.4.7-.39,1.51-.63,2.22-1.12,3.4-1.12,7.19-3.42,10.18-.45.59-.31.68.27.7.79.03,1.57.02,2.36.02,2.26,0,2.24,0,2.17-1.91-.01-.33.19-.66.28-1,.77-2.83,1.51-5.66,2.3-8.48.28-.99.63-1.97,1.01-2.93.22-.54,1.51-.19,1.23-1-.32-.91-1.36-.37-2.08-.48-.43-.06-.87-.01-1.31-.02ZM314.8,121.72q2.32,0,2.1-1.88c-.03-.26-.03-.54.04-.78,1-3.49,1.9-7.01,3.06-10.44.93-2.74,1.07-2.69-2.28-2.69q-2.23,0-1.62,1.7c.05.16.08.35.03.51-1.03,3.83-1.42,8.02-3.31,11.38-1.69,3.01-.15,2.21,1.45,2.21.17,0,.35,0,.52,0ZM250.63,118.47c0,.61-.02,1.22,0,1.83.02.5-.24,1.13.27,1.45.68.42,1.16-.21,1.57-.59,2.25-2.07,4.16-4.4,5.51-7.16.49-1.01.7-2.01-.27-2.85-.5-.44-1.02-.52-1.63-.04-1.11.88-.9,1.57-.08,2.59.83,1.04-.16,1.92-.75,2.76-.26.38-.67.79-1.04.58-.84-.47-.4-1.41-.56-2.14-.17-.76-.13-1.58-.35-2.32-.18-.59.23-1.73-.7-1.69-1.09.04-2.19.53-3.23.95-.43.17.08.32.21.47,1.59,1.84.91,4.08,1.05,6.17ZM498,118.49c-1.02.01-1.68.47-1.81,1.65-.14,1.27.59,1.73,1.63,1.81.96.08,1.71-.31,1.69-1.45-.01-.98-.08-1.95-1.51-2.02ZM469.42,120.21c-.29-1.05-.74-1.85-2.11-1.74-1.28.11-1.55,1.04-1.59,1.96-.05,1.11.95,1.45,1.8,1.46.97,0,1.89-.39,1.89-1.68ZM30.36,104.84c.79-.24,1.65-.59,1.62-1.64-.02-.84-.61-1.5-1.5-1.52-.99-.02-1.61.55-1.67,1.59-.05,1.01.67,1.3,1.55,1.56ZM320.98,103.32c-.25-.75-.6-1.5-1.47-1.58-1.02-.09-1.63.6-1.63,1.56,0,.86.69,1.44,1.5,1.48.85.04,1.33-.65,1.6-1.45ZM230.75,103.14c-.16-.8-.73-1.33-1.54-1.4-.94-.08-1.39.58-1.45,1.44-.06.87.36,1.63,1.25,1.61.88-.02,1.59-.59,1.74-1.65Z"/>
      <path class="cls-2" d="M415.72.05c1.71,4.34,1.6,9.03,2.59,13.52,1.23,5.58,1.94,11.28,2.88,16.93.8,4.79,1.63,9.57,2.42,14.35.97,5.82,1.9,11.64,2.87,17.46,1.01,6.08,2,12.16,3.06,18.22.8,4.56,3.01,8.67,8.83,8.06,1.52-.16,2.15.35,2.18,2.02.02,1.75-.73,1.98-2.2,1.98-12.27-.04-24.54-.01-36.81-.02-1.32,0-2.58.13-2.61-1.95-.04-2.21,1.23-2.13,2.7-2.06,2.18.1,4.1-.66,5.85-1.86,1.04-.71,1.77-1.68,1.85-3.01.39-6.13-1-12.11-1.57-18.17-.1-1.03-.87-.92-1.56-.92-8.76,0-17.53.03-26.29-.04-1.27-.01-1.7.74-2.15,1.53-2.68,4.66-5.53,9.23-7.88,14.04-2.32,4.75-1.16,8.53,5.04,8.44,1.36-.02,2.51-.18,2.51,1.92,0,2.04-1.06,1.98-2.47,1.98-7.27-.02-14.55,0-21.82-.02-.96,0-2.22.4-2.27-1.33-.04-1.37-.03-2.26,1.8-2.75,3.98-1.06,6.35-4.24,8.46-7.54,10.32-16.12,20.76-32.18,30.91-48.4,6.56-10.48,13.18-20.93,19.84-31.36.17-.27.11-.67.16-1.01,1.23,0,2.46,0,3.68,0ZM394.04,59.13h0c3.16,0,6.32-.13,9.47.06,2.18.13,3.11-.49,2.7-2.7-.13-.68-.19-1.37-.29-2.06-.61-4.38-1.05-8.79-1.89-13.13-.79-4.1-1.18-8.24-1.83-12.34-.09-.57-.36-1.12-.54-1.68-.44.48-.99.89-1.32,1.44-2.24,3.7-4.43,7.44-6.66,11.16-3.57,5.94-7.09,11.91-10.78,17.78-.98,1.55-.31,1.5.89,1.49,3.42-.02,6.84,0,10.26,0Z"/>
      <path class="cls-2" d="M235.25.05c.9,5.21,1.81,10.42,2.68,15.63.64,3.85,1.23,7.71,1.85,11.56.95,5.82,1.9,11.64,2.88,17.45.93,5.47,1.93,10.94,2.87,16.41,1.15,6.67,2.17,13.37,3.47,20.01.99,5.06,2.75,7.6,8.24,7.46,1.54-.04,2.41.19,2.39,2.09-.02,1.93-1.11,1.8-2.38,1.8-12.27,0-24.54-.01-36.81.01-1.29,0-2.16-.08-2.13-1.77.02-1.53.39-2.23,2.06-2.15,5.87.26,9.69-3.09,8.15-10.05-.87-3.95-.65-8.13-1.51-12.14-.3-1.4-.86-1.79-2.25-1.78-8.33.06-16.66.17-24.98-.04-3.17-.08-3.28,2.54-4.34,4.14-2.25,3.38-4.07,7.04-6.06,10.59-.82,1.46-1.29,3.08-1.4,4.71-.19,2.92,1.92,4.49,5.71,4.62,1.13.04,2.79-.72,2.89,1.54.07,1.57-.23,2.38-2.1,2.36-7.54-.09-15.07-.04-22.61-.06-.81,0-1.97.27-1.86-1.12.08-.92-.73-2.37.76-2.67,5.07-1.04,7.66-4.87,10.16-8.77,7.89-12.33,15.7-24.7,23.57-37.04,8.89-13.95,17.81-27.88,26.7-41.82.18-.29.25-.64.37-.97,1.23,0,2.46,0,3.68,0ZM213.66,59.14h0c3.42,0,6.84.02,10.26,0,.83,0,1.97.24,1.79-1.18-.39-3.18-.85-6.36-1.32-9.53-.94-6.43-1.92-12.86-2.85-19.29-.1-.68.13-1.7-.54-1.88-.66-.18-.9.87-1.24,1.4-5.95,9.65-11.85,19.34-17.84,28.97-.95,1.52-.27,1.53.95,1.52,3.6-.02,7.19,0,10.79,0Z"/>
      <path class="cls-2" d="M74.24.05c1.78,10.79,3.52,21.59,5.35,32.37,1.25,7.36,2.66,14.69,3.93,22.04.83,4.79,1.44,9.62,2.35,14.39.89,4.68,1.2,9.46,2.61,14.05,1.26,4.1,3.16,5.61,7.54,5.65,1.61.02,2.7.17,2.51,2.23-.11,1.21-.45,1.68-1.7,1.68-12.63-.03-25.25-.04-37.88,0-1.58,0-1.59-.83-1.62-1.99-.03-1.26.24-2,1.72-1.9,1.85.13,3.68-.1,5.33-1,3.17-1.74,4.3-4.43,3.4-9.03-.79-4.03-1.3-8.07-1.5-12.15-.07-1.33-.55-1.81-1.91-1.8-8.77.04-17.54.02-26.31.02-.59,0-1.22-.12-1.6.58-3.01,5.45-6.66,10.58-8.95,16.38-1.79,4.53.16,6.88,5.13,7.03,1.12.03,2.77-.74,2.82,1.57.04,1.62-.33,2.34-2.15,2.32-7.45-.08-14.91-.03-22.36-.04-.95,0-2.09.16-1.95-1.35.09-.99-.58-2.22,1.29-2.59,3.45-.68,5.8-3.09,7.62-5.88,7.27-11.18,14.46-22.41,21.66-33.63,7.2-11.22,14.4-22.45,21.55-33.7,3.2-5.04,6.29-10.16,9.43-15.25,1.23,0,2.46,0,3.68,0ZM52.23,59.14c3.42,0,6.84-.15,10.25.05,2.28.13,2.49-1,2.2-2.67-.25-1.45-.76-2.87-.97-4.33-1.11-7.72-2.16-15.46-3.26-23.18-.07-.49-.29-1.22-.63-1.35-.58-.22-.78.52-1.05.94-.84,1.31-1.66,2.63-2.48,3.96-4.99,8.11-9.91,16.28-15.02,24.32-1.5,2.37-.44,2.33,1.48,2.28,3.15-.09,6.31-.02,9.46-.02Z"/>
      <path class="cls-2" d="M526.74,5.82c-4.94.15-7.69,3.44-10.27,7.03-8.75,12.17-17.58,24.29-26.26,36.51-2.46,3.47-2.68,7.84-3.86,11.81-1.94,6.55-3.65,13.17-5.63,19.71-1.2,3.98.97,7.33,5.28,7.67,1.13.09,2.28.12,3.42.04,1.57-.1,2.15.48,2.15,2.1,0,1.7-.9,1.76-2.17,1.76-13.24-.02-26.48-.02-39.72,0-1.33,0-2.41,0-2.35-1.87.06-1.63.73-2.18,2.26-2.03,1.86.18,3.67-.28,5.43-.72,3.33-.82,4.84-3.46,5.69-6.48,2.4-8.58,4.26-17.35,7.24-25.72,1.69-4.75.38-8.61-.94-12.75-1.97-6.18-4.08-12.31-6.12-18.47-1.61-4.85-3.02-9.78-4.84-14.55-1.1-2.88-3.83-3.92-6.76-3.93-1.79-.01-1.93-.86-1.95-2.27-.02-1.6.93-1.58,2.06-1.58,11.66.01,23.33.02,34.99,0,1.22,0,2.01.12,1.95,1.65-.05,1.29-.19,2.28-1.83,2.14-.17-.02-.35,0-.53.01-7.07.27-8.72,2.78-6.49,9.48,3.02,9.1,5.89,18.25,8.84,27.38.16.49.36,1.28.66,1.34.73.15.86-.69,1.19-1.18,6.09-9.07,12.23-18.1,18.23-27.23,1.37-2.08,1.9-4.53.62-6.93-1.21-2.27-3.41-2.81-5.77-2.86-1.32-.03-2.54.24-2.56-1.89-.01-2.11,1.16-1.92,2.51-1.92,8.51.03,17.01.03,25.52.05v3.67Z"/>
      <path class="cls-2" d="M293.06,92.45c-8.34,0-15.36,0-22.37,0-1.24,0-2.46.21-2.41-1.76.03-1.51.38-2.01,2.02-2.2,4.94-.57,7.32-4.12,8.5-8.43,2.94-10.67,5.64-21.41,8.52-32.1,2.86-10.6,5.84-21.17,8.76-31.76.16-.58.16-1.21.28-1.8,1.37-6.28-.26-8.37-6.72-8.5-1.42-.03-2.47.07-2.44-1.98.04-2.17,1.33-1.82,2.61-1.82,11.92,0,23.85-.13,35.76.05,6.97.11,13.88.77,20.45,3.63,11.23,4.88,13.44,19.49,6.19,27.85-5.08,5.86-11.71,8.72-19,10.5-.46.11-1.16-.16-1.18.61,0,.13.73.28,1.13.41,5.9,2.03,11.5,4.76,14.07,10.75,3.74,8.7,2.41,17.14-3.6,24.41-5.49,6.64-13.14,9.64-21.51,11.01-10.09,1.65-20.26.95-29.07,1.11ZM328.3,62.65c0-.79.03-1.57,0-2.36-.24-6.31-3.54-10.25-9.48-12.15-2.94-.94-5.86-.73-8.79-1.02-1.57-.16-2.08.54-2.45,1.92-2.95,10.83-5.97,21.64-8.98,32.46-.76,2.75.11,4.45,2.67,5.6,4.95,2.22,9.7.9,14.06-1.28,9.46-4.73,12.62-13.24,12.98-23.17ZM336.23,20.92c-.04-8.51-2.95-13.07-9.84-14.17-4.47-.71-7.76,1.12-8.93,5.42-2.59,9.5-5.13,19.01-7.74,28.51-.34,1.26-.09,1.71,1.27,1.79,3.08.2,6.17-.09,9.11-.69,3.07-.63,6.16-1.56,8.75-3.75,5.61-4.76,7.02-11.11,7.38-17.11Z"/>
      <path class="cls-2" d="M151.01,2.11c11.66,0,23.32.05,34.98-.04,2.41-.02,2.63.6,2.09,2.86-1.16,4.88-1.86,9.88-2.77,14.82-.42,2.3-.94,4.58-1.34,6.88-.22,1.29-.83,1.78-2.15,1.51-1.21-.25-2.44-.25-2.34-2.07.19-3.34-.37-6.58-1.72-9.67-2.89-6.62-9.27-9.35-15.67-9.08-.96.04-1.28.66-1.51,1.51-3.33,12.36-6.55,24.75-10.07,37.06-2.69,9.4-5.34,18.8-7.99,28.21-.67,2.4-1.16,4.87-2.09,7.22-1.04,2.63,1.21,5.74,4.6,6.74,1.79.52,3.62.62,5.46.52,1.49-.08,1.72.7,1.7,1.93-.02,1.16-.06,1.98-1.63,1.97-13.85-.05-27.7-.05-41.55-.01-1.49,0-1.72-.68-1.7-1.92.02-1.19.17-1.88,1.67-1.99,7.5-.56,10.67-3.33,12.66-10.63,4.01-14.7,8.33-29.32,12.08-44.1,2.1-8.29,4.61-16.48,7.03-24.69.6-2.04-.49-1.99-1.86-1.97-8.83.1-15.6,4.37-21.36,10.58-1.89,2.04-3.32,4.43-4.67,6.86-.49.88-.61,2.07-2.19,1.47-1.44-.54-2.12-1.25-1.74-2.88.88-3.71,1.62-7.44,2.46-11.15.61-2.7,1.42-5.36,1.92-8.08.32-1.74,1.28-1.88,2.74-1.88,11.66.05,23.32.03,34.98.03Z"/>
      <path class="cls-2" d="M42.97,110.9c-1.71,2.54-1.67,5.61-2.82,8.28-.09.21.07.53.02.77-.19.83,1.65,1.09.82,1.59-.84.5-2.22.26-3.34.11-.92-.12-.14-.46.03-.75,2.27-3.87,2.88-8.29,4.13-12.5.09-.32.19-.71.1-1-.18-.58-1.93-.4-1.12-1.16.99-.92,2.67-.25,4.04-.32,1.01-.05.99.69,1.07,1.42.28,2.58.6,5.17.95,7.74.05.35-.16.99.49.98.22,0,.47-.43.65-.71,1.52-2.31,3.27-4.51,4.46-6.97,1.27-2.62,3.27-2.71,5.61-2.47.59.06,1.23.39.71.92-2.61,2.68-2.45,6.3-3.47,9.52-.29.91-.77,1.77-.95,2.69-.14.69-.34,1.5.62,2.05.53.31.42.57-.25.58-1.75.04-3.5.02-5.25,0-.21,0-.42-.15-.63-.24.16-.15.32-.31.49-.46,2.6-2.35,2.3-5.77,3.24-8.73.06-.17-.1-.41-.15-.62-.34.27-.77.47-.99.81-1.77,2.66-3.5,5.35-5.25,8.02-.36.54-.5,1.46-1.45,1.2-.81-.22-.5-1.01-.54-1.57-.24-3.08-1.46-6.03-1.2-9.21Z"/>
      <path class="cls-2" d="M376.68,105.97c1.22,0,2.48-.18,3.67.04,1.74.33,3.43,1.01,3.7,3.11.25,1.97-.78,3.46-2.49,4.14-1.47.58-1.63,1.23-1.09,2.54.74,1.79.7,3.93,2.44,5.25.23.18.71.26.13.63-1.19.74-4.28-.29-4.73-1.6-.53-1.55-1.06-3.1-1.57-4.66-.13-.41-.13-1.09-.57-1.02-.33.05-.87.81-.79,1.12.49,1.94-2.91,3.8-.1,5.82.37.26-.37.35-.61.37-.79.04-1.58.07-2.36.02-1.41-.1-3.8,1.17-1.82-2.35,1.76-3.14,2.1-7.07,3.03-10.66.1-.39.08-.92-.1-1.27-.79-1.51-.82-1.5.91-1.52.79,0,1.58,0,2.36,0v.06ZM380.41,109.44c-.02-1.27-.42-2.09-1.52-2.34-1.41-.31-1.51.72-1.66,1.7-.12.76-.34,1.51-.45,2.27-.1.7-1.3,1.42-.43,1.99.98.64,1.95-.14,2.77-.85.92-.8,1.21-1.83,1.29-2.77Z"/>
      <path class="cls-2" d="M4.1,121.71c-.09,0-.18.01-.26,0-1.22-.17-3.56,1.24-1.64-2.16,1.81-3.2,2.13-7.24,3.06-10.92.1-.38-.04-.86-.17-1.25-.18-.54-1.5-.2-1.09-1.09.33-.71,1.25-.31,1.91-.36.61-.05,1.23-.03,1.84,0,1.05.04,2.62-.3,3.03.23.84,1.11-1.15,1.16-1.47,2.21-.44,1.46-.88,2.9-1.08,4.42.99-.83,2.19-1.51,2.9-2.54.76-1.09,4.03-1.24,1.66-3.79-.28-.3.53-.51.94-.52.88-.02,1.75-.03,2.63,0,.49.01,1.18-.18,1.28.53.08.55-.63.44-.92.69-1.68,1.39-3.33,2.8-4.95,4.26-.58.52-1.08,1.13-.63,2.05,1.14,2.34,1.9,4.85,3.33,7.05.27.41,1.15.46.85,1.05-.12.24-.97.14-1.48.16-.61.02-1.23.02-1.84,0-1.24-.04-2.94.72-2.07-1.97.46-1.42-1.32-2.72-1.82-4.2-.19-.56-.8-.45-.9.05-.33,1.68-1.59,3.63-.57,5.01,1.28,1.73-.05,1.03-.67,1.09-.61.05-1.23.01-1.84.01h0Z"/>
      <path class="cls-2" d="M396.49,121.71c-1.66,0-3.33,0-4.99,0-.32,0-.84-.02-.94-.2-.23-.44.41-.42.56-.69,2.14-4.03,2.82-8.52,3.82-12.87.44-1.9-.11-2.02,2.51-2.03,2.28,0,4.56-.04,6.83.02.63.02,1.88-.52,1.69.81-.18,1.24.12,2.78-1.04,3.65-.58.44-.79-.43-.82-.91-.1-2.26-1.87-2.25-3.39-2.41-1.95-.21-2.18,1.21-2.4,2.7-.17,1.13-1.26,2.74-.38,3.26,1.27.74,2.6-.45,3.44-1.64.27-.39.47-.81.95-.55.2.11.31.66.23.95-.24.83-.63,1.62-.89,2.44-.28.87.17,2.32-.92,2.48-1.03.15-.54-1.33-.99-1.99-.46-.67-1.06-.79-1.8-.81-1.02-.03-1,.63-1.14,1.36-.24,1.27-.54,2.54-.97,3.76-.69,1.94.52,2.31,1.83,1.96,2.05-.56,4.32-.93,5.52-3.11.22-.4.51-1.1,1.15-.68.44.29-.04.79-.08,1.2-.24,2.48-1.41,3.76-4.1,3.37-1.2-.17-2.45-.03-3.67-.03Z"/>
      <path class="cls-2" d="M159.38,121.72c-.85-.26-3.1,1.12-1.32-1.94,1.86-3.2,2.4-7.17,3.48-10.82.19-.65.33-1.42-.49-1.82-.44-.22-1.18-.2-.86-.93.1-.23.77-.23,1.19-.28,2.03-.25,3.64-.03,4.38,2.41.64,2.12,1.84,4.07,2.77,6.1.22.48.47,1.11.99,1.11.78,0,.28-.81.51-1.2.81-1.38.99-2.96,1.36-4.47.18-.74.04-1.55.04-2.34,0-.77-2.14-.48-1.05-1.36.98-.8,2.68-.36,4.06-.09.09.02.22.53.13.64-3.1,3.88-2.9,8.9-4.64,13.23-.29.73.05,2.04-1.07,2.08-.87.04-.9-1.13-1.22-1.81-1.39-2.87-2.75-5.74-4.16-8.6-.17-.35-.54-.84-.83-.85-.59-.03-.42.63-.53,1.01-.66,2.24-1.32,4.47-1.9,6.73-.14.56-.23,1.48.08,1.75,2.24,1.98.07,1.32-.92,1.45Z"/>
      <path class="cls-2" d="M477.28,120.1c0-.53-.05-.97.01-1.4.08-.59.1-1.48.74-1.53.7-.05.7.84.87,1.41.43,1.46,1.29,2.38,2.92,2.5,1.29.09,2.23-.33,2.77-1.49.72-1.55-.06-2.66-1.15-3.65-.84-.76-1.75-1.45-2.54-2.25-1.47-1.48-2.09-3.17-1.18-5.22.84-1.89,2.26-2.58,4.31-2.63,1.55-.04,3.04.82,4.62.14.43-.19.8.25.65.8-.13.5-.28,1-.45,1.5-.24.72-.5,1.42-.76,2.13-.35-.58-.81-1.13-1.04-1.76-.53-1.38-1.51-1.76-2.89-1.63-1.03.09-1.62.67-1.93,1.52-.51,1.39.65,2.13,1.45,2.81,1.83,1.56,3.99,2.79,4.17,5.57.17,2.58-.69,4.34-3.42,4.97-1.25.29-3.09.64-.58,2.21,1.72,1.08.67,2.06-.54,2.67-.5.25-1.21.18-1.81.12-.8-.08-2.21.43-2.27-.45-.08-1.08,1.24-.19,1.87-.47.23-.1.54-.2.63-.39.08-.16-.09-.64-.16-.65-2.16-.08.93-4.52-2.66-3.25-2.11.74-1.99-.28-1.62-1.61Z"/>
      <path class="cls-2" d="M338.13,105.93c.35,0,.7-.02,1.05,0,3.12.24,3.73,1.41,2.22,4.27-.15.29-.43.52-.64.78-.1-.3-.26-.6-.3-.91-.2-1.38-.81-2.61-2.17-2.96-1.6-.41-3.06.05-4.2,1.44-1.82,2.21-2.87,4.7-3.03,7.55-.1,1.72.08,3.3,1.86,4.23,1.89.99,3.32-.04,4.84-.91.58-.33.9-1.78,1.67-.95.72.79-.43,1.48-1.03,2.03-2.08,1.86-5.89,2.25-8.35.89-2.32-1.29-3.41-4.22-2.7-7.29,1.34-5.78,4.72-8.34,10.78-8.18Z"/>
      <path class="cls-2" d="M420.88,105.91c1.05,0,2.1,0,3.15,0,3.04,0,3.59.76,2.61,3.61-.14.4-.23.94-.72.96-.55.03-.62-.52-.69-.94-.13-.78-.29-1.53-1.11-1.94-.96-.48-1.65-.84-2.04.73-.87,3.52-1.96,6.97-2.93,10.47-.13.48-.2,1.08-.03,1.51.54,1.41.59,1.39-1.24,1.39-.35,0-.7,0-1.05,0-2.69,0-2.39.1-1.62-2.05,1.35-3.81,2.32-7.75,3.41-11.65.29-1.04-.35-.87-1.05-.73-1.21.24-1.82,1.28-2.74,1.88-.4.26-.49,1.11-1.03.82-.27-.14-.31-.96-.24-1.45.21-1.64.66-2.98,2.87-2.68,1.46.2,2.97.04,4.46.04Z"/>
      <path class="cls-2" d="M300.04,105.91c1.14,0,2.27,0,3.41,0,3.41,0,3.9.67,2.81,3.84-.1.29-.39.51-.59.76-.22-.23-.51-.43-.65-.7-.32-.61-.44-1.36-.87-1.85-.36-.41-1.06-.73-1.6-.71-.68.02-.79.78-.95,1.38-.93,3.41-1.87,6.82-2.84,10.22-.17.61-.36,1.1.11,1.69.34.43,1.41.26,1.08,1.05-.1.24-1.14.11-1.75.12-1.49,0-3.05.25-4.41-.18-.36-.11,1.2-1.62,1.47-2.86.71-3.28,1.76-6.5,2.71-9.73.17-.58.64-1.23.06-1.67-.54-.41-1.14.22-1.69.41-.4.14-.72.47-1.09.69-.71.43-1.03,1.9-1.88,1.44-.75-.4.05-1.57.09-2.4.06-1.28.7-1.58,1.86-1.52,1.57.08,3.15.02,4.72.02Z"/>
      <path class="cls-2" d="M206.47,121.71c-2.65,0-2.75-.04-1.78-2,2.26-4.61,1.27-8.77-1.59-12.69-.56-.77-.45-1.03.41-1.08,1.05-.05,2.1-.04,3.15-.04q2.07,0,1.33,1.65c-.2.44.93,4.73,1.29,4.91.08.04.19.08.25.05,1.35-.65,1.66-2.13,2.52-3.18.53-.64,1.03-1.58-.04-2.23-1.46-.89-.71-1.08.33-1.19.52-.05,1.05-.06,1.57,0,.75.08,1.83-.41,2.17.34.46,1.01-1,.88-1.38,1.53-2.13,3.6-5.66,6.45-5.89,11.06-.02.34-.26.68-.24,1.01.1,1.86.12,1.86-2.11,1.86Z"/>
      <path class="cls-2" d="M118.67,117.08c.66,1.05.86,2.28,1.79,3.15,1.3,1.23,2.89,1.31,4.01.36,1.17-1,1.24-2.71.1-4.01-.97-1.1-2.06-2.12-3.21-3.04-1.73-1.39-1.72-3.23-1.15-4.96.62-1.87,2.08-2.76,4.25-2.74,1.45.01,2.84.62,4.37.2,1.26-.34.71.85.72,1.41.03,1.12.07,2.41-1.04,2.98-.54.28-.55-.65-.65-1.13-.27-1.31-.84-2.28-2.4-2.26-.99.01-1.86-.01-2.29,1.22-.56,1.59.34,2.47,1.32,3.36.83.76,1.79,1.39,2.59,2.19,1.67,1.67,1.95,3.67.93,5.76-1.12,2.3-3.24,2.72-5.53,2.61-.6-.03-1.21-.23-1.77-.45-1.11-.43-2.63.96-3.07.11-.68-1.29.51-2.78.78-4.21.03-.16.14-.31.25-.55Z"/>
      <path class="cls-2" d="M358.76,121.71c-.35,0-.76.12-1.04-.03-.53-.29-3.09,1.05-1.16-1.44.52-.67.63-2.41-.21-2.88-1.34-.75-3.24-.78-4.5,0-.84.52-2.26,2.01-1.27,3.28.93,1.2.49,1.07-.49,1.06-.35,0-.71.06-1.05,0-.64-.12-1.49.39-1.87-.34-.1-.19.73-.81,1.04-1.29,2.77-4.28,5.52-8.57,8.26-12.85.36-.56.48-1.47,1.43-1.2.81.23.36,1.03.5,1.57.86,3.45,1.38,6.96,1.83,10.49.07.51.18,1.04.37,1.52.8,2.12.81,2.11-1.84,2.11ZM356.21,113.9c.14-1.02-.31-1.85-.66-2.71-.94,1.22-2.03,2.38-2.4,3.91-.34,1.39.86.62,1.33.71,1.63.34,1.93-.64,1.73-1.92Z"/>
      <path class="cls-2" d="M146.69,121.71c-.53,0-1.05,0-1.58,0-1,0-2.27.34-.65-1.27.65-.64.74-2.58-.17-3.09-1.31-.74-3.21-.74-4.52.01-.81.47-2.15,1.91-1.28,3.07,1.13,1.5.35,1.32-.72,1.29-.61-.01-1.23,0-1.84,0-.78-.02-1.2-.04-.45-.96,3.43-4.28,6.07-9.08,9.04-13.66.33-.5.45-1.24,1.25-1.09.88.17.53.95.63,1.5.66,3.5,1.47,6.97,1.65,10.54.02.5.29,1,.49,1.49q.9,2.19-1.84,2.18ZM144.14,114.18c.09-1.12-.14-2.07-.67-2.95-.94,1.21-2,2.37-2.41,3.89-.32,1.18.69.63,1.11.68,1.26.17,2.32,0,1.97-1.62Z"/>
      <path class="cls-2" d="M454.55,121.71c-.52,0-1.05,0-1.57,0-.52-.01-1.38.12-1.51-.11-.42-.79.68-.64.94-1.13.86-1.55-.07-3.23-1.81-3.45-2.17-.28-3.71.3-4.48,2.47-.15.42-.51.98-.18,1.18,1.89,1.14.67,1.06-.39,1.05-.87-.01-1.74-.06-2.61-.09.11-1.01,1.06-1.44,1.54-2.19,2.47-3.85,4.95-7.7,7.38-11.57.46-.73.87-1.83,1.69-1.7.91.15.93,1.43.99,2.21.28,3.56,1.08,7.02,1.73,10.51.05.25,0,.53.06.78q.57,2.05-1.79,2.05ZM452.1,114.29c-.32-.98-.65-1.96-.97-2.95-.82,1.28-1.9,2.47-2.37,3.86-.31.92.94.52,1.49.6,1.07.15,1.95-.06,1.85-1.52Z"/>
      <path class="cls-2" d="M94.81,121.71c-.35,0-.73.08-1.04-.02-.56-.18-2.94.86-.85-1.3.63-.65.73-2.64-.2-3.07-1.42-.66-3.38-.81-4.74.11-.88.6-1.96,2.14-1.03,3.31.78.98.75.96-.35.95-.7,0-1.4-.01-2.1.01-1.09.04-1.17-.19-.5-1.09,3.13-4.14,5.74-8.62,8.51-13,.39-.62.59-1.92,1.76-1.6,1.01.28.45,1.34.57,2.04.62,3.49,1.19,6.98,1.81,10.46.12.67.21,1.52.64,1.94,1.38,1.35.44,1.28-.65,1.25-.61-.02-1.22,0-1.84,0ZM90.7,115.86c.74-.16,1.97.41,1.78-1.13-.14-1.15-.4-2.29-.61-3.43-.91,1.34-2.01,2.61-2.63,4.07-.26.63.94.31,1.47.49Z"/>
      <path class="cls-2" d="M69.07,121.71c-.61,0-1.23.02-1.84,0-.5-.02-1.42-.05-1.44-.16-.08-.7.79-.4,1.06-.82,1.46-2.22,2.28-4.73,1.7-7.26-.53-2.32-.63-4.98-2.97-6.62-.59-.41-.03-.9.59-.91,1.66-.02,3.33-.03,4.99,0,.73.02,1.26.21.47,1.03-.82.85-.52,4.89.34,5.71.65.61.67-.18.84-.4.87-1.19,1.68-2.42,2.54-3.63.4-.57.61-1.12-.12-1.52-.42-.24-1.19-.2-.78-.94.13-.24.79-.3,1.19-.26,1.08.09,2.34-.48,3.12.49.14.17-.96,1.38-1.53,2.08-2.55,3.17-5.25,6.25-5.78,10.52-.04.34-.27.68-.23,1,.2,1.69.22,1.69-2.15,1.69Z"/>
      <path class="cls-2" d="M191.02,121.71c-.64,0-1.21.17-1.49-.04-.35-.26-3.26,1.19-.9-1.23.65-.67.78-2.67-.18-3.07-1.47-.61-3.42-1.05-4.84.36-.88.87-2.23,1.93-.62,3.33.58.5.43.59-.18.64-.17.02-.35.03-.52,0-1-.15-2.05.33-3-.29.51-.67,1.07-1.31,1.52-2.02,2.56-4,5.08-8.03,7.65-12.02.34-.53.37-1.57,1.32-1.36,1.03.23.72,1.23.83,1.97.57,3.51,1.48,6.97,1.66,10.55.02.33.15.72.35.98,2.79,3.49-.78,1.82-1.6,2.21ZM186.27,115.85c.91-.11,2.23.39,2.07-1.42-.1-1.07-.24-2.11-.87-3.02-1.11,1.14-2.04,2.45-2.5,3.92-.25.8.83.3,1.3.51Z"/>
      <path class="cls-2" d="M25.69,121.71c-.61,0-1.23.03-1.84-.01-.4-.03-.79-.16-1.19-.24.28-.29.67-.53.82-.88.44-1.03.85-2.08,1.15-3.16.79-2.83,1.51-5.68,2.24-8.52.12-.48.47-.91.15-1.49-.81-1.46-.78-1.48.89-1.5.53,0,1.06-.04,1.58,0,1.01.1,2.41-.54,2.93.37.54.95-1.27.87-1.49,1.7-.81,2.92-1.84,5.81-2.24,8.79-.18,1.37-2.59,3.11.18,4.5.36.18-.27.41-.55.42-.88.02-1.75,0-2.63,0,0,0,0,0,0,0Z"/>
      <path class="cls-2" d="M227.95,105.9c.44,0,.88-.05,1.31.01.72.11,1.76-.43,2.08.48.28.81-1.01.46-1.23,1-.39.96-.73,1.93-1.01,2.93-.79,2.82-1.54,5.66-2.3,8.48-.09.33-.29.67-.28,1,.07,1.92.09,1.92-2.17,1.91-.79,0-1.58,0-2.36-.02-.59-.02-.73-.11-.27-.7,2.3-2.99,2.29-6.78,3.42-10.18.24-.72.23-1.52.63-2.22.16-.28.29-.69.2-.97-.53-1.73-.55-1.72,2-1.71Z"/>
      <path class="cls-2" d="M314.8,121.72c-.17,0-.35,0-.52,0-1.61,0-3.14.8-1.45-2.21,1.88-3.36,2.28-7.55,3.31-11.38.04-.16.02-.35-.03-.51q-.6-1.7,1.62-1.7c3.35,0,3.2-.05,2.28,2.69-1.16,3.43-2.06,6.95-3.06,10.44-.07.24-.06.52-.04.78q.21,1.88-2.1,1.88Z"/>
      <path class="cls-2" d="M271.35,120.36c-1.29,2.01-3.13,1.92-5.03,1.19-1.88-.72-1.74-2.44-1.61-3.99.24-2.88,2.94-5.99,5.75-6.78,1.38-.39,2.37.27,3.22,1.24.85.96.2,1.72-.28,2.58-.75,1.3-1.92,1.95-3.26,2.43-.99.35-2.5.22-2.18,1.94.36,1.94,1.87.95,2.95,1.04.15.12.3.24.44.37ZM271.46,113.02c-.04-.55-.08-1.21-.6-.98-1.46.64-1.85,2.13-2.33,3.48-.1.27.09.87.49.68,1.39-.64,2.3-1.71,2.44-3.18Z"/>
      <path class="cls-2" d="M250.63,118.47c-.14-2.09.54-4.33-1.05-6.17-.12-.14-.63-.29-.21-.47,1.04-.42,2.14-.91,3.23-.95.93-.03.52,1.1.7,1.69.23.74.19,1.55.35,2.32.16.73-.28,1.67.56,2.14.37.21.78-.2,1.04-.58.59-.84,1.58-1.72.75-2.76-.82-1.02-1.03-1.71.08-2.59.62-.49,1.14-.4,1.63.04.96.85.76,1.85.27,2.85-1.35,2.76-3.26,5.09-5.51,7.16-.41.38-.89,1.01-1.57.59-.51-.32-.26-.95-.27-1.45-.02-.61,0-1.22,0-1.83Z"/>
      <path class="cls-2" d="M498,118.49c1.43.06,1.5,1.03,1.51,2.02.01,1.14-.73,1.52-1.69,1.45-1.04-.08-1.78-.55-1.63-1.81.13-1.18.79-1.64,1.81-1.65Z"/>
      <path class="cls-2" d="M469.42,120.21c0,1.29-.92,1.68-1.89,1.68-.85,0-1.85-.35-1.8-1.46.04-.92.3-1.85,1.59-1.96,1.36-.12,1.81.69,2.11,1.74Z"/>
      <path class="cls-2" d="M30.36,104.84c-.87-.26-1.6-.56-1.55-1.56.05-1.04.68-1.61,1.67-1.59.89.02,1.47.68,1.5,1.52.03,1.05-.83,1.4-1.62,1.64Z"/>
      <path class="cls-2" d="M320.98,103.32c-.27.8-.75,1.49-1.6,1.45-.81-.04-1.5-.62-1.5-1.48,0-.96.61-1.65,1.63-1.56.87.08,1.22.83,1.47,1.58Z"/>
      <path class="cls-2" d="M230.75,103.14c-.15,1.06-.86,1.63-1.74,1.65-.89.02-1.31-.74-1.25-1.61.06-.86.51-1.52,1.45-1.44.81.07,1.38.59,1.54,1.4Z"/>
      <path class="cls-2" d="M271.4,119.42c.09-.4.12-.87.69-.82.17.02.42.27.44.44.06.5-.36.68-.73.86-.13-.16-.27-.32-.4-.48Z"/>
      <path class="cls-2" d="M270.91,119.99c.17-.19.33-.38.5-.57.13.16.27.32.4.48-.15.15-.31.3-.46.45-.14-.12-.29-.24-.44-.37Z"/>
      <path class="cls-1" d="M394.04,59.13c-3.42,0-6.84,0-10.26,0-1.2,0-1.86.06-.89-1.49,3.69-5.87,7.21-11.84,10.78-17.78,2.23-3.71,4.41-7.45,6.66-11.16.33-.54.87-.96,1.32-1.44.18.56.45,1.11.54,1.68.65,4.11,1.04,8.25,1.83,12.34.84,4.34,1.28,8.75,1.89,13.13.1.69.16,1.38.29,2.06.41,2.22-.52,2.84-2.7,2.7-3.14-.19-6.31-.05-9.47-.05h0Z"/>
      <path class="cls-1" d="M213.66,59.14c-3.6,0-7.19-.01-10.79,0-1.21,0-1.9,0-.95-1.52,5.99-9.63,11.88-19.32,17.84-28.97.33-.54.57-1.58,1.24-1.4.67.18.44,1.2.54,1.88.94,6.43,1.91,12.86,2.85,19.29.47,3.17.93,6.35,1.32,9.53.18,1.42-.96,1.18-1.79,1.18-3.42.02-6.84,0-10.26,0h0Z"/>
      <path class="cls-1" d="M52.23,59.14c-3.15,0-6.31-.07-9.46.02-1.92.05-2.99.09-1.48-2.28,5.1-8.04,10.02-16.21,15.02-24.32.82-1.32,1.64-2.64,2.48-3.96.27-.42.47-1.16,1.05-.94.34.13.56.86.63,1.35,1.1,7.73,2.15,15.46,3.26,23.18.21,1.46.71,2.87.97,4.33.29,1.67.07,2.8-2.2,2.67-3.41-.2-6.83-.05-10.25-.05Z"/>
      <path class="cls-1" d="M328.3,62.65c-.36,9.94-3.51,18.45-12.98,23.17-4.36,2.18-9.11,3.5-14.06,1.28-2.56-1.15-3.43-2.85-2.67-5.6,3.01-10.81,6.03-21.63,8.98-32.46.38-1.38.88-2.07,2.45-1.92,2.93.29,5.85.08,8.79,1.02,5.94,1.9,9.23,5.83,9.48,12.15.03.78,0,1.57,0,2.36Z"/>
      <path class="cls-1" d="M336.23,20.92c-.36,6-1.77,12.35-7.38,17.11-2.58,2.19-5.68,3.12-8.75,3.75-2.94.6-6.03.89-9.11.69-1.36-.09-1.62-.53-1.27-1.79,2.6-9.5,5.14-19.01,7.74-28.51,1.18-4.31,4.47-6.13,8.93-5.42,6.89,1.1,9.8,5.66,9.84,14.17Z"/>
      <path class="cls-1" d="M380.41,109.44c-.08.94-.37,1.97-1.29,2.77-.82.71-1.79,1.49-2.77.85-.88-.57.33-1.29.43-1.99.11-.76.33-1.51.45-2.27.16-.98.26-2.01,1.66-1.7,1.1.24,1.5,1.07,1.52,2.34Z"/>
      <path class="cls-1" d="M356.21,113.9c.2,1.28-.1,2.25-1.73,1.92-.47-.1-1.67.68-1.33-.71.37-1.53,1.46-2.69,2.4-3.91.35.85.8,1.68.66,2.71Z"/>
      <path class="cls-1" d="M144.14,114.18c.35,1.62-.72,1.79-1.97,1.62-.42-.06-1.43.49-1.11-.68.41-1.52,1.47-2.68,2.41-3.89.53.88.76,1.83.67,2.95Z"/>
      <path class="cls-1" d="M452.1,114.29c.09,1.46-.78,1.67-1.85,1.52-.56-.08-1.8.32-1.49-.6.47-1.4,1.55-2.59,2.37-3.86.32.98.65,1.96.97,2.95Z"/>
      <path class="cls-1" d="M90.7,115.86c-.52-.18-1.73.14-1.47-.49.62-1.47,1.72-2.73,2.63-4.07.21,1.14.47,2.28.61,3.43.19,1.54-1.04.97-1.78,1.13Z"/>
      <path class="cls-1" d="M186.27,115.85c-.47-.22-1.54.28-1.3-.51.46-1.48,1.39-2.79,2.5-3.92.63.91.77,1.95.87,3.02.16,1.81-1.16,1.31-2.07,1.42Z"/>
      <path class="cls-1" d="M271.46,113.02c-.14,1.47-1.06,2.54-2.44,3.18-.39.18-.58-.41-.49-.68.48-1.35.87-2.84,2.33-3.48.52-.23.56.44.6.98Z"/>
    </g>
  </g>
</svg>