<svg xmlns="http://www.w3.org/2000/svg" width="295.129" height="133.392" viewBox="0 0 295.129 133.392">
  <g id="Group_566" data-name="Group 566" transform="translate(-150.074 -101.482)">
    <g id="Group_558" data-name="Group 558">
      <path id="Path_571" data-name="Path 571" d="M194.74,142.863h-.015V135.8h.014V125.016c-.817-13.634-13.562-14.912-14.811-15-4.613-.6-8.435.529-11.352,3.359-7.686,7.463-6.059,24.22-5.986,24.929l3.254-.334c-.016-.158-1.55-15.877,5.011-22.248,2.2-2.138,5.045-2.94,8.692-2.457l.144.013c.453.021,11.106.654,11.781,11.839v12.815c-2.412,6.629-14.537,13.6-19.358,15.871-14.165,6.172-8.446,31.99-8.2,33.086l.065.287.162.246c3.379,5.145,7.524,7.952,12.32,8.341.386.031.769.046,1.151.046,5.68,0,10.821-3.338,13.856-5.818v4.047h3.271V182.067h0ZM191.471,185.6c-1.687,1.665-8.064,7.461-14.742,6.9-3.665-.3-6.922-2.527-9.683-6.625-.563-2.729-4.623-24.285,6.417-29.1.634-.3,11.982-5.7,18.008-12.781Z" fill="#424141"/>
    </g>
    <g id="Group_559" data-name="Group 559">
      <path id="Path_572" data-name="Path 572" d="M429.875,138.436c.008-.024.012-.048.019-.072v-1.859l-.019,0V125.016c-.817-13.634-13.562-14.912-14.811-15-4.613-.6-8.435.529-11.352,3.359-7.686,7.463-6.059,24.22-5.986,24.929l3.254-.334c-.016-.158-1.55-15.877,5.011-22.248,2.2-2.138,5.045-2.94,8.692-2.457l.144.013c.453.021,11.106.654,11.78,11.839v12.815c-2.411,6.629-14.536,13.6-19.357,15.871-14.165,6.172-8.447,31.99-8.2,33.086l.065.287.162.246c3.379,5.145,7.524,7.952,12.32,8.341.386.031.769.046,1.151.046,5.68,0,10.821-3.338,13.855-5.818v4.047h3.272V182.067h0Zm-3.269,47.16c-1.686,1.665-8.064,7.461-14.741,6.9-3.665-.3-6.922-2.527-9.683-6.625-.564-2.729-4.623-24.285,6.417-29.1.634-.3,11.982-5.7,18.007-12.781Z" fill="#424141"/>
    </g>
    <g id="Group_560" data-name="Group 560">
      <path id="Path_573" data-name="Path 573" d="M244.583,109.892,228.095,187.3l-16.278-77.411h-3.278l-.062.013,17.807,84.681h3.6l18.039-84.694Z" fill="#424141"/>
    </g>
    <g id="Group_561" data-name="Group 561">
      <path id="Path_574" data-name="Path 574" d="M268.457,194.554h-3.272V109.7l3.271-.039.144,5.923a15.793,15.793,0,0,1,11.718-5.187l-.048,3.271c-7.711-.152-11.7,7.34-11.741,7.414l-.072.139Z" fill="#424141"/>
    </g>
    <g id="Group_562" data-name="Group 562">
      <path id="Path_575" data-name="Path 575" d="M163.7,207.29a1.279,1.279,0,0,1-1.277-1.278,1.277,1.277,0,1,1,2.555,0A1.28,1.28,0,0,1,163.7,207.29Zm-.95,21.523V210.4h1.867v18.411Z" fill="#424141"/>
      <path id="Path_576" data-name="Path 576" d="M183.1,210.4v2.457a4.764,4.764,0,0,1,4.554-2.719,4.988,4.988,0,0,1,4.914,3.374,5.11,5.11,0,0,1,5.078-3.374c3.374,0,5.241,2.424,5.241,6.355v12.318h-1.867v-12.58c0-2.817-1.376-4.553-3.964-4.553-2.522,0-4,1.671-4,4.356v12.777h-1.868v-12.58c0-2.882-1.474-4.553-4-4.553-2.49,0-4.029,1.638-4.029,4.356v12.777h-1.835V210.4Z" fill="#424141"/>
      <path id="Path_577" data-name="Path 577" d="M233.356,218v3.8c0,4.522-2.424,7.24-6.52,7.24a5.791,5.791,0,0,1-5.6-3.341v9.173H219.4V210.4h1.769v3.145a5.893,5.893,0,0,1,5.667-3.375C231.03,210.172,233.356,212.99,233.356,218Zm-12.122-.524v4.128c0,3.637,1.9,5.831,5.111,5.831,3.309,0,5.144-2.194,5.144-5.831v-3.9c0-3.734-1.835-5.929-5.144-5.929C223.2,211.778,221.234,213.875,221.234,217.478Z" fill="#424141"/>
      <path id="Path_578" data-name="Path 578" d="M251.738,204.276v24.537H249.87V204.276Z" fill="#424141"/>
      <path id="Path_579" data-name="Path 579" d="M268.088,221.835v-4.488c0-4.553,2.489-7.207,6.486-7.207a5.919,5.919,0,0,1,5.668,3.309V210.4h1.768v18.411h-1.768V225.8a5.89,5.89,0,0,1-5.668,3.341C270.512,229.141,268.088,226.422,268.088,221.835Zm12.055-.229v-4.259c0-3.538-1.933-5.6-5.078-5.6-3.309,0-5.11,2.163-5.11,5.8v4.062c0,3.768,1.8,5.929,5.11,5.929C278.308,227.535,280.143,225.341,280.143,221.606Z" fill="#424141"/>
      <path id="Path_580" data-name="Path 580" d="M310.941,228.813V217.544c0-3.571-1.637-5.8-5.143-5.8-3.374,0-5.111,2.032-5.111,5.733v11.335h-1.835V210.4h1.77v3.08a5.922,5.922,0,0,1,5.667-3.342c4.1,0,6.519,2.719,6.519,7.207v11.466Z" fill="#424141"/>
      <path id="Path_581" data-name="Path 581" d="M336.5,212.073h-5.176v9.664c0,3.7.328,5.6,3.506,5.6.491,0,1.08-.033,1.735-.066.033.557.033,1.147.033,1.7a15.179,15.179,0,0,1-1.637.1c-4.784,0-5.505-2.686-5.505-7.142v-9.86h-2.1v-1.311c2.424,0,2.686-.753,2.686-3.931h1.278v3.6H336.5Z" fill="#424141"/>
    </g>
    <g id="Group_563" data-name="Group 563">
      <path id="Path_582" data-name="Path 582" d="M328.957,195.267h-3.271v-5.426a20.556,20.556,0,0,1-13.36,5.312c-9.679-.173-13.91-10.12-14.795-15.354l-.023-.273V109.957h3.272v69.422c.262,1.379,2.629,12.343,11.607,12.5a16.834,16.834,0,0,0,13.3-7.023v-74.9h3.271Z" fill="#424141"/>
    </g>
    <g id="Group_564" data-name="Group 564">
      <path id="Path_583" data-name="Path 583" d="M350.528,233.355h-3.272V181.31q-.288-.958-.537-1.981l.537-.131V110.735h3.272v4.53c3.57-3.055,10.169-6.888,18.686-3.756,1.282.356,10.071,3.277,10.268,16.106v49.773c.016.393.318,11.161-9.273,15.85-.281.14-7.114,3.446-13.729.355a14.846,14.846,0,0,1-5.952-5.185Zm0-52.538c1.578,4.967,4.032,8.259,7.312,9.8,5.17,2.433,10.872-.29,10.929-.317,7.7-3.765,7.446-12.759,7.442-12.849v-49.81c-.17-11.065-7.542-12.906-7.856-12.978l-.21-.063c-9.49-3.519-16.132,3.486-17.616,5.255Z" fill="#424141"/>
    </g>
    <g id="Group_565" data-name="Group 565">
      <path id="Path_584" data-name="Path 584" d="M445.2,217.539H356.664v-2.181h86.357V103.663H152.254v111.5h2.8v2.181h-4.977V101.482H445.2Z" fill="#ffab00"/>
    </g>
  </g>
</svg>
