<?xml version="1.0" encoding="UTF-8"?>
<svg id="katman_1" data-name="katman 1" xmlns="http://www.w3.org/2000/svg" viewBox="0 0 708.66 425.2">
  <defs>
    <style>
      .cls-1 {
        fill: #0053a1;
        fill-rule: evenodd;
        stroke-width: 0px;
      }
    </style>
  </defs>
  <path class="cls-1" d="M578.78,127.34c4.75-12.74,18.16-21.93,33.97-21.93,11.1,0,21.01,4.53,27.58,11.63,6.57-7.07,16.11-11.13,27.16-11.13,19.77,0,34.18,13.73,34.18,31.47v145.28h-33.39v-128.07c0-6.87-7.73-13.03-14.67-13.03s-14.76,6.13-14.76,12.99v128.11h-32.88v-131.82c0-5.23-9.18-10.02-14.45-10.02s-13.03,4.24-13.03,9.47v133.03h-33.29V108.12s33.61,0,33.61,0l-.04,19.22M437.09,59.19h32.39v224.12h-32.39V59.19ZM385.33,108.11h33.34v175.2h-33.34s0-175.2,0-175.2ZM385.64,59.21v37.15h33.02v-37.15h-33.02ZM490.95,108.11v175.2h33.33V108.11h-33.33ZM491.25,59.21v37.15h33.03v-37.15h-33.03ZM319.4,143.06h1.46c4.84,0,8.76,3.89,8.76,8.68v91.16c0,4.79-3.92,8.67-8.76,8.67h-1.46c-4.84,0-8.76-3.88-8.76-8.67v-91.16c0-4.79,3.92-8.68,8.76-8.68ZM310.35,275.48v8.36l-33.67.18V59.21h33.75v59.95c6.26-4.67,13.55-9.67,21.42-9.67,23.25-.34,32.77,19.31,31.1,64.14l-.08,61.05c1.67,44.83-10.88,52.88-30.6,50.24-7.87,0-15.65-4.77-21.91-9.44ZM300.84,375.88v-63.21h-13.93v63.21h13.93ZM287.01,296.22v11.35h13.92v-11.35h-13.92ZM317.44,375.88v-63.21h13.92v51.57h30.75v11.64h-44.68ZM367.52,375.88l24.01-63.21h14.22l23.68,63.21h-14.46l-4.81-14.11h-23.63l-4.95,14.11h-14.07ZM398.42,328.29l-8.25,23.24h16.4l-8-23.24h-.15ZM466.16,381.31c.65-.22,1.39-.33,2.43-.33,2.45,0,4.56.66,6.3,1.99,1.92,1.45,2.87,3.38,2.87,5.77,0,3.46-1.39,6.21-4.17,8.24-2.49,1.82-5.52,2.72-9.07,2.72-4.66,0-8.7-.87-12.13-2.62l3.2-4.71c2.23,1.13,4.51,1.7,6.84,1.7,1.59,0,2.91-.43,3.98-1.26,1.19-.91,1.79-2.12,1.79-3.64,0-.94-.43-1.68-1.31-2.23-.84-.55-1.75-.82-2.72-.82-1.22,0-2.41.22-3.54.67l-2.38-2.62,3.64-7.18c-6.86-1.04-12.53-4.03-17.03-8.98-5.53-6.08-8.3-13.89-8.3-23.43s2.7-17.69,8.1-23.77c5.63-6.4,13.26-9.6,22.9-9.6,7.34,0,13.47,1.95,18.39,5.87,5.14,4.11,8.13,9.73,8.98,16.88h-13.54c-.42-3.33-2-6.04-4.76-8.15-2.62-1.97-5.64-2.96-9.07-2.96-5.86,0-10.27,2.25-13.24,6.75-2.52,3.85-3.79,8.84-3.79,14.99s1.29,10.9,3.88,14.66c3.01,4.33,7.39,6.5,13.15,6.5,4.2,0,7.57-1.35,10.09-4.03,2.4-2.49,3.84-5.87,4.32-10.14h13.49c-.74,7.73-3.51,13.91-8.3,18.53-4.88,4.73-11.19,7.15-18.92,7.28l-2.09,3.93ZM531.58,375.88l24.01-63.21h14.22l23.67,63.21h-14.46l-4.8-14.11h-23.63l-4.95,14.11h-14.06ZM562.49,328.29l-8.25,23.24h16.4l-8.01-23.24h-.14ZM616.49,375.88v-13.63h-13.83v13.63h13.83ZM641.1,397.08l3.2-4.71c2.24,1.13,4.52,1.7,6.85,1.7,1.55,0,2.86-.41,3.92-1.22,1.23-.87,1.85-2.1,1.85-3.69,0-.94-.46-1.71-1.41-2.33-.81-.49-1.68-.73-2.62-.73-1.26,0-2.44.22-3.54.67l-2.38-2.62,3.88-6.99c-6.44-.68-11.68-2.76-15.72-6.26-4.43-3.88-6.65-8.94-6.65-15.18v-.87h13.34c0,3.94,1.39,6.93,4.17,8.98,2.46,1.84,5.73,2.76,9.8,2.76,3.27,0,5.97-.51,8.1-1.55,2.85-1.33,4.27-3.45,4.27-6.36,0-3.58-3.25-6.34-9.75-8.24-11.45-3.37-17.5-5.21-18.15-5.53-6.5-3.14-9.75-7.99-9.75-14.56,0-6.17,2.48-11.01,7.42-14.5,4.37-3.1,9.77-4.65,16.2-4.65,7.28,0,13.13,1.53,17.57,4.61,5.17,3.55,7.77,8.8,7.77,15.72h-13.44c-.39-6.38-4.56-9.56-12.51-9.56-2.59,0-4.74.53-6.45,1.61-2.04,1.26-3.06,3.12-3.06,5.58,0,3.1,3.26,5.51,9.76,7.23,10.22,2.72,16.25,4.54,18.1,5.48,6.5,3.27,9.75,8.34,9.75,15.24s-2.52,11.72-7.57,15.28c-4.33,3.07-9.99,4.74-16.98,4.99l-2.18,3.93c.61-.22,1.34-.33,2.38-.33,2.49,0,4.61.66,6.35,1.99,1.91,1.45,2.86,3.38,2.86,5.77,0,3.4-1.36,6.11-4.07,8.15-2.5,1.87-5.57,2.81-9.22,2.81-4.66,0-8.69-.87-12.08-2.62ZM707.33,375.88v-13.63h-13.82v13.63h13.82Z"/>
  <path class="cls-1" d="M242.57,317.88l-95.68,57.17-95.59-54.97v-117.64l91.6-48.08v45.75l-52.91,24.96v70.19l56.7,31.54,57.31-32.43-.08-115.7,38.7,21.63-.04,117.57M39.99,271.65v47.77L1.92,342.64v-49.72l38.07-21.28ZM1.33,117.71l95.82-57.17,95.6,54.96v117.64l-91.6,48.09v-45.75l52.91-24.97v-70.19l-56.7-31.53-57.32,32.42.2,113.57L1.46,231.43l-.13-113.72Z"/>
  <path class="cls-1" d="M213.23,116.57l19.41-11.85c.96,1.04,2.24,4.64,2.59,5.91,1.04,3.3-1.04,8.45-6.39,11.58s-12.84-.98-15.61-5.65M234.16,141.12c-6.93,8.9-17.07,17.02-30.88,22.98v-49.26l45.61-28.38c.36,18.2-2.25,35.85-12.06,50.77h-18.19v3.93l15.52-.06Z"/>
</svg>