<?xml version="1.0" encoding="UTF-8"?>
<svg id="Layer_1" data-name="Layer 1" xmlns="http://www.w3.org/2000/svg" viewBox="0 0 538 538">
  <defs>
    <style>
      .cls-1 {
        fill: #123a50;
      }

      .cls-1, .cls-2 {
        stroke-width: 0px;
      }

      .cls-2 {
        fill: #0f405d;
      }
    </style>
  </defs>
  <path class="cls-2" d="M139.43,532.71c-.03-1.07-.08-2.14-.08-3.21,0-173.97,0-347.95-.06-521.92,0-2.43.48-3.11,3.04-3.1,101.7.08,203.39.07,305.09,0,2.31,0,2.79.64,2.78,2.85-.05,174.3-.05,348.61-.05,522.91,0,.82-.05,1.65-.08,2.47-103.55,0-207.09,0-310.64,0ZM155.23,20.17c-.5.93-.3,1.94-.3,2.92,0,163.75,0,327.49,0,491.24,0,3.71-.43,3.24,3.33,3.24,91.14,0,182.28,0,273.42.07,2.43,0,2.96-.65,2.95-3-.14-33.01-.22-66.02-.22-99.03-.02-130.4,0-260.8-.01-391.21,0-1.4-.09-2.8-.14-4.2-.68-.92-1.67-.53-2.52-.53-91.32-.02-182.64-.02-273.96,0-.85,0-1.84-.38-2.54.5ZM154.53,21.31c-.08-.03-.15-.06-.23-.08v496.07c.08,0,.15,0,.23,0V21.31ZM434.9,517.19c.08.03.15.06.23.09v-99.29c-.08,0-.15,0-.23,0v99.2Z"/>
  <path class="cls-1" d="M139.43,532.71c103.55,0,207.09,0,310.64,0-.45,1.13-1.42.53-2.11.53-102.14.03-204.28.03-306.41,0-.69,0-1.66.6-2.11-.53Z"/>
  <path class="cls-1" d="M154.53,21.31v495.99c-.08,0-.15,0-.23,0V21.22c.08.03.15.06.23.08Z"/>
  <path class="cls-1" d="M434.25,20.2c-85.09,0-170.18.01-255.28.02-7.91,0-15.83-.03-23.74-.05.7-.87,1.69-.5,2.54-.5,91.32-.02,182.64-.02,273.96,0,.85,0,1.84-.4,2.52.53Z"/>
  <path class="cls-1" d="M434.9,517.19v-99.2c.08,0,.15,0,.23,0v99.29c-.08-.03-.15-.06-.23-.09Z"/>
  <path class="cls-2" d="M295.18,381.23c-6.26,2.48-12.07,5.88-18.07,8.89-7.19,3.61-14.22,7.53-21.44,11.08-18.37,9.05-40.08-3.37-41.59-23.81-.94-12.67-.23-25.37-.38-38.05,0-.3.19-.61.3-.91.12.24.34.81.48.51.24-.56.1-1.29.1-1.95,0-54.88,0-109.76,0-164.64,0-.88.29-1.83-.37-2.62,1.72-13.59,10.71-23.44,24.01-25.5,8.72-1.35,16.91.61,23.79,6.47,10.1,8.6,20.11,17.31,30.16,25.97.74.63,1.5,1.23,2.68,2.2,0-1.33,0-2.26,0-3.19,0-46.79.02-93.57-.06-140.36,0-2.44.65-2.94,2.98-2.92,16.82.11,33.64.08,50.47.03,1.65,0,2.45.13,2.45,2.19-.06,93.74-.05,187.47-.05,281.21,0,.16-.03.33-.04.49-.64.7-.39,1.57-.39,2.37-.01,19.06-.01,38.12,0,57.18,0,.79-.29,1.67.48,2.32,1.5,4.49,4.92,5.76,9.27,5.73,8.49-.06,16.98.07,25.47-.08,2.27-.04,2.75.67,2.68,2.78-.15,4.78-.07,9.57-.03,14.35.01,1.27-.19,1.94-1.73,1.94-30.01-.04-60.02-.03-90.02-.04-.37,0-.84.15-.99-.42.41-.37.42-.86.42-1.35,0-6.12,0-12.25,0-18.37,0-.56.07-1.17-.56-1.5ZM266.63,361.7c.12.38.28.76.37,1.15,1.37,6.1,7.58,8.39,12.59,4.68,2.38-1.76,4.77-3.52,7.26-5.12,5.32-3.41,7.82-8.31,7.83-14.53.02-16.25,0-32.5,0-48.74,0-27.88,0-55.76,0-83.64,0-4.17-.94-8-3.98-11.08-3.85-3.9-8.32-7-13.06-9.66-3.47-1.95-7.18-.67-9.41,2.75-.83,1.26-1.05,2.73-1.56,4.1-.06-.06-.11-.13-.18-.16-.06-.03-.21-.02-.21-.02-.08.7-.2,1.4-.2,2.1,0,52.05,0,104.1,0,156.15,0,.66-.03,1.32.05,1.98.03.27.33.24.53.04Z"/>
  <path class="cls-2" d="M418.83,430.66c-.82.59-1.75.28-2.62.28-81.04.02-162.09,0-243.13.07-2.29,0-2.91-.6-2.83-2.86.17-4.78.1-9.57.02-14.35-.03-1.45.26-2.12,1.88-1.97,1.55.15,3.13.03,4.7.03,79.56,0,159.12,0,238.68,0,.99,0,1.97.05,2.96.08,0,3.87-.07,7.75.02,11.62.06,2.36-.45,4.76.33,7.09Z"/>
  <path class="cls-2" d="M215.07,440.18c2.56.12,5.05.68,7.44,1.56,6.37,2.35,9.64,7.25,9.79,13.76.29,12.68.36,25.37.01,38.05-.24,8.51-5.89,13.57-15.26,14.8-.79-.68-1.73-.38-2.61-.39-7.49-.02-14.98-.05-22.47.02-1.56.01-2.17-.4-2.16-2.07.05-21.09.05-42.18,0-63.26,0-1.67.61-2.09,2.17-2.07,6.83.06,13.67.04,20.5.02.87,0,1.82.3,2.6-.4ZM216,457.48c-1.59-3.99-5.05-5.81-9.42-5.12-1.16.18-.99.86-.99,1.56,0,13.59,0,27.18,0,40.77,0,.64-.11,1.26.76,1.58,3.92,1.47,9.2-1.71,9.62-5.94.22-2.21.15-4.44.21-6.66.37-.39.38-.88.38-1.38,0-7.77,0-15.54,0-23.31,0-.57.07-1.17-.56-1.51Z"/>
  <path class="cls-2" d="M378.52,439.87c2.56,0,5.12.1,7.67-.04,1.7-.09,2.37.39,2.76,2.18,4.16,19.3,8.45,38.57,12.69,57.86.53,2.41.99,4.84,1.58,7.24.3,1.22-.03,1.6-1.26,1.58-4.54-.04-9.07-.05-13.61,0-1.13.01-1.53-.36-1.7-1.5-.48-3.25-1.22-6.47-1.67-9.73-.22-1.6-.73-2.26-2.45-2.17-2.88.14-5.78.14-8.65,0-1.63-.08-2.15.59-2.33,2.05-.41,3.27-.98,6.51-1.36,9.78-.15,1.29-.68,1.6-1.89,1.58-4.37-.07-8.74-.09-13.11,0-1.57.03-1.76-.55-1.46-1.9,4.84-21.68,9.66-43.36,14.42-65.05.34-1.55.97-1.96,2.44-1.9,2.63.1,5.28.03,7.92.03ZM378.52,454.23c-.13.03-.26.06-.38.09-1.35,8.7-2.67,17.4-4.09,26.09-.33,2-.16,3.12,2.3,2.73,1.37-.21,2.81-.16,4.19-.01,1.99.21,2.53-.41,2.17-2.44-.91-5.1-1.6-10.24-2.4-15.35-.58-3.71-1.19-7.41-1.79-11.11Z"/>
  <path class="cls-2" d="M323.14,486.22c.76-4.35,1.53-8.7,2.28-13.05,1.82-10.54,3.67-21.09,5.41-31.64.24-1.44.91-1.68,2.15-1.67,4.04.05,8.09.15,12.12-.04,2.19-.1,2.55.46,2.08,2.54-3.42,15.08-6.72,30.19-10.07,45.29-1.41,6.35-2.88,12.68-4.18,19.05-.31,1.53-.9,2.02-2.43,1.99-5.11-.08-10.23-.11-15.34.01-1.67.04-2.25-.56-2.58-2.1-2.93-13.59-5.94-27.17-8.92-40.75-1.73-7.87-3.41-15.76-5.23-23.61-.43-1.84-.21-2.49,1.84-2.41,3.95.15,7.92.18,11.87-.01,1.97-.1,2.5.73,2.79,2.41,1.81,10.55,3.68,21.08,5.53,31.62.73,4.13,1.46,8.27,2.19,12.4l.48-.03Z"/>
  <path class="cls-2" d="M280.92,453.56c-4.19.06-8.38.2-12.57.14-1.55-.02-1.97.45-1.91,1.95.11,2.88.14,5.77,0,8.65-.09,1.72.58,2.05,2.11,2,3.46-.1,6.92.06,10.37-.07,1.68-.07,2.05.52,2,2.08-.11,3.13-.14,6.26,0,9.39.09,1.86-.33,2.6-2.38,2.49-3.36-.19-6.75.01-10.12-.08-1.42-.04-2.05.23-1.99,1.86.13,3.7.11,7.41,0,11.12-.04,1.46.5,1.73,1.84,1.76,4.66.09,9.33-.41,13.98.27-.9,3.4-.32,6.86-.33,10.28,0,2.08-.65,2.63-2.67,2.61-9.72-.09-19.44-.02-29.16-.01-.06-.57-.18-1.13-.18-1.7,0-21.4-.01-42.8,0-64.2,0-.63-.24-1.32.29-1.88.79.68,1.74.38,2.61.38,8.57.02,17.13.06,25.7-.02,1.84-.02,2.45.51,2.38,2.37-.13,3.54-.02,7.09,0,10.63Z"/>
  <path class="cls-1" d="M214.19,169.72c.66.8.37,1.74.37,2.62.01,54.88.01,109.76,0,164.64,0,.66.14,1.39-.1,1.95-.13.3-.35-.27-.48-.51-.04-.82-.11-1.64-.11-2.46,0-53.77,0-107.54,0-161.31,0-1.64.19-3.28.29-4.92Z"/>
  <path class="cls-1" d="M215.07,440.18c-.78.69-1.73.39-2.6.4-6.83.02-13.67.05-20.5-.02-1.56-.01-2.17.4-2.17,2.07.05,21.09.05,42.18,0,63.26,0,1.67.6,2.09,2.16,2.07,7.49-.06,14.98-.04,22.47-.02.87,0,1.82-.3,2.61.39-8.81.64-17.63.1-26.44.32-1.8.04-1.47-1.09-1.47-2.11,0-12.29,0-24.58,0-36.87,0-9.24,0-18.47,0-27.71,0-1.03-.32-2.14,1.47-2.1,8.15.19,16.31-.28,24.46.31Z"/>
  <path class="cls-1" d="M350.67,378.17c-.77-.64-.48-1.53-.48-2.32-.02-19.06-.02-38.12,0-57.18,0-.8-.25-1.66.39-2.37.04,5.28.11,10.55.11,15.83,0,15.34-.01,30.69-.02,46.03Z"/>
  <path class="cls-1" d="M250.12,507.98c9.72,0,19.44-.07,29.16.01,2.02.02,2.67-.52,2.67-2.61,0-3.42-.57-6.88.33-10.28.68,4.15.16,8.33.27,12.5.04,1.54-1.23,1.01-1.99,1.01-8.38.04-16.76.02-25.14.02-1.31,0-2.63.02-3.94,0-.53-.01-1.21.2-1.35-.66Z"/>
  <path class="cls-1" d="M280.92,453.56c-.01-3.54-.12-7.09,0-10.63.07-1.86-.54-2.39-2.38-2.37-8.56.09-17.13.05-25.7.02-.87,0-1.82.3-2.61-.38.66-.5,1.43-.29,2.15-.29,8.97-.02,17.93.03,26.9-.05,1.67-.02,2.29.33,2.21,2.12-.15,3.2-.01,6.42-.07,9.63-.01.65.45,1.51-.51,1.94Z"/>
  <path class="cls-1" d="M295.18,381.23c.63.33.56.93.56,1.5,0,6.12,0,12.25,0,18.37,0,.49,0,.98-.42,1.35-.05-7.07-.1-14.15-.15-21.22Z"/>
  <path class="cls-1" d="M418.83,430.66c-.77-2.33-.27-4.73-.33-7.09-.09-3.87-.02-7.75-.02-11.62.17.13.49.25.49.38.02,6.11.31,12.23-.14,18.33Z"/>
  <path class="cls-1" d="M266.66,201.61c.03,1.07.08,2.14.08,3.21,0,51.39,0,102.78,0,154.17,0,.9-.07,1.81-.11,2.71-.2.2-.5.22-.53-.04-.08-.65-.05-1.32-.05-1.98,0-52.05,0-104.1,0-156.15,0-.7.13-1.4.2-2.1,0,0,.15-.01.21.02.07.03.12.11.18.16Z"/>
  <path class="cls-1" d="M216.18,483.67c-.04-7.5-.09-14.99-.14-22.49,0-1.23-.03-2.47-.04-3.7.62.34.56.94.56,1.51,0,7.77,0,15.54,0,23.31,0,.49,0,.98-.38,1.38Z"/>
</svg>