<?xml version="1.0" encoding="UTF-8"?>
<svg id="katman_2" data-name="katman 2" xmlns="http://www.w3.org/2000/svg" viewBox="0 0 252.57 232.7">
  <defs>
    <style>
      .cls-1 {
        fill: #fff;
      }

      .cls-1, .cls-2 {
        fill-rule: evenodd;
        stroke-width: 0px;
      }

      .cls-2 {
        fill: #0068aa;
      }
    </style>
  </defs>
  <g id="katman_1" data-name="katman 1">
    <g>
      <path class="cls-2" d="M85.06,55.86c-.38-.16-.77.35.07.72,1.51.8,2.84,1.7,3.88,2.74-1.84,0-2.74,1.66-.65,2.95.15.98.62,1.58,1.8,1.3.86.12,1.31.63,2.59.36.9.14,1.7.7,2.37,1.87-.22.82-1.29,1.81-.65,2.45,3.47,2.88,7.18,7.27,10.84,8.21,3.9,1.58,7.12,3.49,11.71,4.75.5.16.78.56.57,1.51-.41,1.6-.64,3.1-.57,4.46-1.82.58-1.66,1.27-5.46,1.73-1.31.65-2.92,1.3-4.38,1.94-.6.09-.86.47-.36,1.51-1.34.46-2.74,1.15-4.08,1.61-.36-.91-.66-2.06-1.02-2.97-.02-1.82-.77-3.72-1.44-5.62-.18-.43.23-1.21.72-.65.33.55.46,1.19.8,1.74.96-1.7-1.71-3.52-2.52-6.14-1.48-3.7-3.6-5.66-6.03-6.84-.48-.38-.96-.77-1.44-1.15.27-1.08-.27-2.16-1.29-3.24-.25-.09-.53-.24-.43.65-.56.11-1.02-.38-1.44-1.15-.02-.22-.05-.43-.07-.65-.14.07-.29.14-.43.22-.38.14-.61-.05-.65-.72-1.28-.73-2.01-.84-2.8-1.01-2.14-1.78-3.18-.66-4.81-1.11-1.2-2.12-2.43-4.23-3.84-6.35-.35-.34-.49-.1-.43.71,0,1.75.04,3.5.66,4.98.1.32-.25.75-.77.43-.58-1.28-1.12-2.23-1.63-2.96.1,1.17.2,2.33.31,3.5-.98.37-1.53,1.1-1.84,2.02-3.85,1.22-3.45,5.47-11.08,9.62-.91-.04-2,.28-2.91,1-2.08,1.66-6.14,1.81-6.05,6.14.35,1.22-.51,4.1,2.27,3.98,1.29-.48,2.33-.7,1.63.94-.78.81-.57,1.3.08,1.63.21.64.43,1.28.64,1.91,6.51,3.99,12.32,5.27,19.12,8.86-2.04,6.05-.7,13.45-2.75,18.59-1.48,3.05-2.02,6.38-1.62,10-.17.85-.24,1.69.35,2.53-.05,1.83-.15,3.66.56,5.49-3.31.4-6.39,1.64-9.66,2.04-2.88.35-5.95-.14-8.79.21-1.85-.07-3.43,1.27-4.72,4.01-1.27.87-1.06,2.39-.63,4.01.47,4.18-.89,8.5-1.34,12.74-.47,1.55-.35,3.1,1.06,4.65,1.31,3.1,3.4,6.69,3.94,9.29,1.27,1.13,2.53,2.25,3.8,3.38,1.03,1.41,1.88,1.31,2.53-.28,1.59-3.17,2.12-8.18.56-8.17-.77-2.08-1.78-3.27-3.31-2.53-.55.1-1.12.27-1.48-.77-.99-1.5-1.22-2.35-.7-2.53.75-1.48-.75-2.82-1.13-4.22-.16-2.8.23-7.16,1.19-9.61.66-1.68,2.02-2.51,3.66-2.78,9.15-.52,13.52,2.14,20.91,1.41.12.66,1.22.66,2.46.56-.28,7.46-2.25,14.22-3.38,21.33.07,1.95.92,3.19.21,5.84-1.79,6.13-3.44,14.22-7.6,16.47-3.12,2.65-5.8,2.58-7.39,9.08h9.5c.42-1.46,2.46-2.49,1.27-4.37-.4-2.07,2.3-2.65,3.66-3.24,1.29.09,1.83-.47,1.62-1.69.16-1.13.33-2.25.49-3.38,1.5-5.23,3-10.47,4.51-15.7,1.08-1.5,2-3.05,1.76-4.93,2.58-6.95,6.36-18.47,7.74-20.84,1.9.16,3.8.33,5.7.49-.02.23-.05.47-.07.7-1.24-.12-2.49-.23-3.73-.35-2.16,1.08-1.07,1.42-.63,1.9,2.21.8,4.06,2.37,6.62,2.39.21-.82,2.18-.63,3.17.35,1.38.48,4.25.97,4.15-.77.7-1.03.28-2.07.42-3.1,9.41.04,17.34,3.15,28.23-1.69,1.67-.64,1.74.63,1.9,1.69-.31,2.16.8,3.75,1.2,5.63.45,1.83.33,4.01,1.34,5.49.75,3.73-1.1,5.63,2.25,11.19,1.9,3.94,2.3,8.92.35,11.55-2.42,2.89-4.83,5.77-7.25,8.66-1.17.94-2.35,1.88-3.52,2.82-2.11.7-4.58,1.97-6.34,2.11-1.16,1.69-1.87,3.38-2.46,5.07h10.21c.44-1.01.91-1.99.77-3.38,1.15-.12,2.3-.23,3.45-.35,3.72-6.73,9.62-11.83,15-17.32,1.01-1.01.89-2.39-.35-4.15-.56-3-1.13-6.01-1.69-9.01-1.34-4.83,1.66-7.82,4.42-10.06,1.65-1.34,3.23-2.61,4.38-4.44,1.34,1.64,2.68,3.29,4.01,4.93,2.7,3.22,4.13,6.92,8.1,9.65,2.01,1.82,3.69,4.75,5.14,8.45.87,1.6,1.36,3.19,1.48,4.79-.31,2.21.07,4.92-.24,7.14-.3,2.08-1.3,3.67-1.59,5.75-1.09,1.28-3.52,2.22-4.61,3.5-1.16,1.37-1.76,2.81-2.15,4.45h8.94c1.29-1.41,1.45-2.53.49-3.38-1.55-1.03.66-1.56,2.11-2.18,1.1.5.95-1.01,1.06-2.11.19-7.56.38-15.11.56-22.67,1.02-1.39-.41-2.37-1.69-3.38-1.66-3.22-4.94-5.8-6.6-9.02-1.06-2.06-1-4.83-1.57-6.82.87-6.24.56-12.49-.07-18.73.03-.42.11-.68.63.14.75,1.11,1.44,2.36,2.39,2.89.63,1.43,1.27,2.86,1.9,4.29.15,1.78.48,3.45,1.2,4.86.42,2.47,1.86,4.53,3.24,6.62-.14,3.73,1.83,5.35,2.75,8.03.26-.56.52-1.13.77-1.69,1.69,2.09,3.38,4.18,5.07,6.27.21.57.17,1.63,1.34.28.24-.54.55-.92,1.34-.14.63.21,1.27.42,1.9.63.52-.23.64-.58.56-.99-.26-.75-.52-1.5-.77-2.25.16.02.33.05.49.07,0-.14.14-.28.07-.42l-.28-.21v-.14s-.14.07-.21-.14c0-.14-.28-.21-.35-.28-.21-.21-.35-.63-.35-.99v-.42c0-.21-.21-.35-.21-.56-.15-.4-.49-1.12-.68-1.55-.09-.24,0-.38-.29-.48-.05,0-1-.95-1.09-1.05-.76-.76-.33-1.05-.33-2.05,0-.48-.24-.86-.14-1.38.05-.29.1-1-.05-1.19-.09-.48-.57-1.05-.76-1.52-.05-.14-.09-.33-.09-.43-.14-.48-.52-.43.24-.71.38-.14.67.86.76,1.1.05.19.48,1.1.57.33.09-.62-.09-1.05-.38-1.48,0,0-.29-.71-.29-.76,0-.29-.29-.57-.29-.81v-.71c0-.1-.1-.14-.1-.19v-.14h-.1v-.05h-.05c-.1-.05-.19-.14-.29-.24-.85-20.17-12.52-21.19-24.09-22.87-9.79-5.98-19.1-8.81-27.77-7.47-.52-.45-1.29-.52-2.18-.42-1.1-.14-1.06-.91-.49-1.97-.12-.66-.24-1.31-.35-1.97.14-.81-.21-.95-.77-.77-.4.14-.8.28-1.2.42-1.23.46-1.39-.16-1.06-1.27.56-1.43,2.96-1.48,1.69-4.29-1.15-3.66-2.3-7.32-3.45-10.98-.83-1.39-1.14-2.65-.28-3.66,1.34-2.41,3.03-4.26,4.02-7.24,1.45-1.88,2.15-4.04,2.1-6.49,0-.14-.07-.35-.07-.49,0-.35.14-.63.21-.92v-.35c0-.28-.21-.35-.21-.63,0-.07-.28-.85-.35-.92-.21-.28-.63-.49-.7-.7,0-.14-.07-.63-.07-.77-.07-.42-.28-1.13-.49-1.13h-.07c-.07,0-.21-.28-.42-.35-.07,0-.49-.28-.49-.28-.42,0-1.48-.28-1.76-.42-.09.07-.19.14-.28.21h-.21l-.07.14h-.28c-.14,0-.28.07-.42.07h-.35c-.07,0-.21,0-.28-.07-.07,0-.14-.21-.14-.21v-.42c0-.07-.07-.28-.07-.35v-1.41c0-.07.07-.21.07-.21h.63c.14,0,.21-.07.35-.07,4.7-1.88,5.58-7.06,1.83-11.9-3.16-3.07-6.55-4.01-10.28-1.83-2.86,1.34-4.88,7.04-.99,10.77.12.09.47-.58.58-.48.12.09,0,.95.12,1.05-.04.41-.04.84-.04,1.24v.46c.03.07.07,0,.07.13,0,.1.2.43.23.53.1.3.23.63.3.83.03.13.13.17.13.33,0,.1.07.27.07.36,0,.27-.23.46-.27.63-.03.13-.33.27-.4.4-.07.13-.4.53-.4.73,0,.23-.1.66-.3.8-.5,0-.56.2-.96-.07-.36-.23-1.29-.33-1.49.17-.3.8-.5.27-1.13.27-.5,0-1.32.07-1.85-.07-.43-.1-1.36-.3-1.75-.3-.43-.2-1.06.2-1.42-.17-.1-.1-1.09-.17-1.29-.17-.27,0-.4.1-.66.1h-.33c-.13,0-.27-.17-.33-.17-1.32-.66-4.47-.63-4.47-2.65-.26-.27-.56-.36-.93-.43-.3-.07-.86-.23-1.22-.33-.23-.07-1.03-.53-1.22-.73-.33-.3-1.06-.66-1.42-.8-.69-.27-1.32-1.33-1.99-1.66-.3-.13-1.82-1.56-1.95-1.56-.07-.07-.2-.2-.23-.27-.07-.1-.1-.13-.17-.2l-.03-.1c-.13-.13,0-.23-.2-.23h-.03c-.17,0,.1-.07-.13-.13-.03,0-.1-.1-.13-.13-.07-.1-.17-.13-.23-.17-.07-.03-.1-.1-.2-.13-.07,0-.23-.07-.3-.07-.13-.03-.03-.03-.17.07-.1.1-.2.03-.26.17-.86-.2-1.46-.93-2.22-1.29-.69-.33-1.49-1.06-2.12-1.46-2.65-1.56-5.29-3.04-7.86-4.07h0Z"/>
      <path class="cls-1" d="M129.68,58.98s-.07-.11-.07-.16v-.14s-.04-.04-.07-.04-.02-.05-.05-.05h-.09v.07l-.02.05-.04.04v.25l.04.09v.02c0,.07.02.09.05.13,0,0,.09.07.11.05.04-.05,0-.02.02-.11,0-.02.04-.09.04-.09v-.09s.02-.11.02-.16l.05.13h0ZM86.71,68.03c-.06.09-.61.38-.72.38-.09,0-.14.06-.2.06-.03,0-.06.03-.09.03l-.14-.06c-.06,0-.09-.06-.12-.06-.29-.09-.03-.14.06-.23.06-.06.12-.09.2-.12.12-.03.38-.23.52-.2.12.03.23.06.38.06l.09-.09.03.23h0ZM131.19,55.99c0-.63-1.82-.78-2.34-.78-.92,0-1.9.08-2.15,1.13-.1.04-.38.13-.38.23-.02.27.29.59.56.44.06-.04.44-.44.44-.52,0-.02.21-.02.21-.02.19.15.15.96.15,1.22,0,.15-.63.15-.77.15-.23,0-.29.15-.38.31-.17.34.59.38.82.38.38,0,.73.23,1.11.23.42,0,.46-.44.15-.63-.1-.06-.44-.25-.44-.38,0-.21-.08-.31,0-.48.04-.1.06-.23.13-.29.19-.19.31.27.33.38.04.19.21.27.38.36.29.13.54.27.75.38.33.17.73.13.94.4.02.02.04.23.06.27.06.15.33.48.48.48.17.15.4.29.52.42.15.15.4.29.61.4.13.06.19-.13.27-.15.13-.02,0-.17-.02-.23-.08-.31-.17-.38-.38-.59-.04-.04-.08-.13-.1-.17-.02-.04-.52-.29-.59-.31-.15-.04-.31-.29-.48-.38-.46-.31-.17-1.22-.73-1.41-.8-.25-1.59-.63-2.39-.82-.23-.04-.13-.23.04-.25.19-.02.69.15.92.15.46,0,.86.44,1.32.44.17,0,.46.19.61.08.04-.02.06-.08.08-.11,0-.02.06-.02.08-.04,0,0,.06-.25.06-.27l.13-.02h0ZM81.36,99.85c-.28-.25-.38-.33-.78-.33-.33,0-.66.25-.73.56-.08.35-.38.76-.38,1.16-.1.13-.33.58-.45.61-.15.05-.4-.05-.4.18,0,.13-.08.18,0,.33.23.45.05.99-.08,1.42-.53.83-.3,1.21-.3,2.12,0,.73-.38,1.62-.38,2.35-.08.25-.15.51-.15.78,0,.78.73-.25.78-.58.15-.91.78-2,1.08-2.91.18-.58.73-1.72.73-2.23.05-.2.33-.86.33-1.04,0-.2.35-1.09.43-1.21.13-.18.28-.89.3-1.21h0ZM107.19,111.5s.33.12.35.13c.05.03.18.02.21.11.03.13-.02.66-.22.66-.18,0-.37-.1-.54-.1-.22,0-.37-.26-.53-.39-.06-.05-.06-.13-.11-.18-.05-.05-.13-.1-.16-.16-.05-.1-.02-.21,0-.32.08-.42.62-.11.75.06.09.12.41.06.26.18h0ZM116.51,140.16c-.34-.03-.78-.16-1.09-.22-.06,0-.34-.03-.4-.03h-.22c-.31.65,1.27.53.87,1.34-.06.12-.19.4-.12.47.16.16.34.22.53.31.12.06.5.12.53-.09.03-.22.06-.65.43-.65.16,0,.53-.09.62-.22.19-.31-.09-.72-.34-.78-.09,0-.37-.03-.47-.03-.16,0-.34-.12-.34-.09h0ZM111.26,128.8c-1.15-.19.22,1,.34,1.37.25.81.56,1.62.71,2.52.16.78.62,1.96.62,2.77,1.12.47-.25-2.86-.37-3.2-.25-.62-.84-3.2-1.3-3.45h0ZM100.84,103.28c-.16-.09-.3-.18-.32-.34,0-.05-.05-.09-.05-.16,0-.05-.02-.21-.05-.25,0-.02-.09-.11-.11-.14-.05-.05-.07-.07-.07.05,0,.16-.05.37,0,.53.02.11.11.21.11.34s.02.32.02.44c0,.05.14.14.21.14.05,0,.11.05.14.05s.02-.07.02-.07c.02,0,.07-.02.09-.05.02-.02.09-.07.09-.09,0-.05.05-.18.02-.25,0-.05-.02-.07-.07-.07-.07,0-.02-.07-.05-.11h0ZM101.55,102.39s-.09-.02-.12-.02-.07-.05-.09-.05-.07.02-.07.05c-.02.05-.02.12-.02.16v.07s.05.07.05.09c0,0,.02.05.02.07v.07l.05.07v.05l.05.02.05.02h.02l.05.02h.16s.05-.09.07-.16c0-.05.05-.07.05-.09,0-.05.02-.11.02-.16v-.21s-.16-.02-.27,0h0ZM100.31,98.04c-.18-.05-.23-.11-.44-.05-.64.21-.6.83-.46,1.4.05.21.21.48.21.67,0,.23.07.67.34.67.3,0-.02-1.29-.02-1.45s.21-.46.27-.57c.09-.16.16-.34.09-.67h0ZM90.78,98.6c-.09.28-1.03.21-.94-.16.02-.11.16-.3.25-.39,0,0,.07-.02.11-.07.02,0,.09-.02.11-.02.05-.02.09-.09.14-.09.02,0,.09-.05.11-.05.07-.02.07-.09.09-.09.07,0,.14.05.18.05.14.02.07.09.18.14.09.02.14.05.14.18,0,.09,0,.3-.05.37-.02.02-.11.05-.16.05s-.07.07-.11.07-.07.02-.07.02h0ZM97.49,96.05c-.25.07-.41.11-.69.11h-.57c-.71,0-1.05.37-1.79.37-.94,0-1.83-.34-2.43.55-.25.39-.46.69-.57,1.17-.09.44,1.12.51,1.37.44.8,0,1.7-.3,2.54-.3.37,0,.99-.11,1.26-.34.99-.76,2.52-.32,2.52-2,.48-.24-1.5-.05-1.65,0h0ZM94.59,74.84c-.06-.03-.35-.23-.4-.23-.17,0-.14,0-.17.17-.09.35.14.41.4.67.2.2.38.26.38.61v.23c0,.09.32-.67.43-.12.06.26.03.52.14.69.26.41.72.14.64-.29-.03-.17-.06-.35-.14-.49-.03-.06-.12-.2-.17-.23-.09-.03-.26-.09-.26-.14l-.12-.03h-.03l-.06-.06c-.09-.03-.09-.06-.14-.12-.03-.03-.03-.06-.09-.09-.03,0-.06-.03-.06-.06s-.06-.09-.06-.09l-.03-.06v-.06h-.06s-.14-.2-.2-.32h0ZM92.98,74.6c0-.09-.09-.2-.09-.29s-.14-.09-.2-.14c-.03-.03-.06-.09-.09-.09h-.09s0-.03,0,0c0,.06-.09.32-.03.35l.06.03s.06.29.06.32l.06.06s.12.14.12.17c.03.06.03.12.06.17.03.06.06.14.14.29.03.06.23.29.23.35,0,.09.03.2.09.23-.03.09-.35.64-.35.69,0,.32.26.49.52.41.95-.32-.29-2.17-.49-2.55h0ZM87.61,68.79c-.17-.14-.32-.26-.49-.38-.2-.14-.35.17-.35.29-.06.35,1.04,1.62,1.36,1.62.17,0,.38.06.46-.09.23-.38-.52-.9-.66-1.19l-.32-.26h0ZM80.55,67.87c.03-.1.23-.56.07-.59-.43-.13-.66.33-.86.53-.43.43-.92-.2-1.49-.2-.1,0-.3-.03-.36-.03s-.07.17-.07.23c0,.26.59.16.46.63-.03.33-.43.4-.53.63-.1.2-.03.99-.03,1.29,0,.53.16.49.49.82.2.2.36.33.69.33.49,0,.76.13,1.06.33.33.23.82.3,1.22.49,0,.63.46.5.83.43.3-.07.26-.59.63.13.26.53.56.96,1.02,1.25.99.66.4.99.83,1.85.2.4.26.66.26,1.12s.23.73.23,1.12c-.23.5-.09,1.13-.4,1.58-.09.14-.89.07-1.12.43-.3.46-.07,1.25-.33,1.65-.2.3-.89,1.22-.89,1.58-.03.13-.33.79-.33.89,0,.23.49.23.63.2.2-.03.43.13.33.36-.03.1-.4.1-.49.2-.46.46.33.3.49.53.13.2.23.49.33.69.3.63-.66-.13-.69-.13-.13-.03-.2-.36-.33-.43-.23-.1-.36.03-.59.03-.03.36-.4.79-.2,1.06.2.3.3.66.3,1.06,0,.36.76.69.76,1.35,0,1.45-.63,3.96-1.52,4.85-.07.3-.16.49.23.49s1.06.2,1.42.2c.49,0,1.88-.07,2.11.4.1.23-.59.59-.66.83-.07.26-.46.79-.63,1.06-.23.03-.56.07-.66-.13-.16-.33.4-.79.17-1.15-.17-.26-.66-.07-.89-.07-.13,0-.53.1-.66.13-.46.1-.43.53-.59.86-.1.2-.23.3-.36.43-.13.13-.4.13-.49.23-.66.1-1.12.03-1.55.46-.33.33-.46.79.1.86,1.32.2,3,.2,4.32.2.86.26,1.02.1.23.63-.2.13-.63,2.08-.63,2.38,0,1.02-1.19,2.64-1.45,3.76-.3,1.29-.53,2.44-.53,3.79-.16.4-.43.99-.33,1.35.1.3.3.76.07,1.06-.5.63.4,1.19.4,1.58,0,.3-.46,1.25.2,1.25,0,.69-1.19,1.29-1.49,1.75-.23.36-.92,1.06-1.02,1.52-.07.3-.66.83-.86,1.09-.33.43.46.07.49.03.07-.07.56-.26.63-.36.43-.63.73-1.65,1.62-1.65.36-.23.92-.66.92.17,0,.3-.89.49-.33.76.36.17-.26,1.45-.43,1.78-.2.4-.66.99-.3,1.52.1.13.36.16.43.43.13.59.26.33.73.23.59-.13.33.53-.43.53-.49,0-1.09.23-1.09.86.3.69.3,1.32.92,1.62.26.13.99.99.23,1.16-.76.16-1.45,1.02-.63,1.55.3.2.26.92.46.99.3.1.66.56.86.69.36.43.63,1.16,1.16,1.16.23,0,.96.26,1.12.16.26-.16,1.42-1.45,1.49-1.65.1-.33.26.43.2.59-.1.23-.3.26-.3.59,0,.3.2,1.02-.03,1.09-.2.07-.26.56-.1.66.13.1,1.02-.46,1.06-.46.07,0,.36-.56.36-.63,0-.33.23-.2.33-.43l.69-.69c.2-.16.96-.73,1.22-.79.23-.07.56-.69.69-.89.23-.36,1.16-1.16,1.65-1.06.59.13-.53.89-.66,1.09-.4.59-.89,1.32-1.58,1.55-.3.1-.59.46-.89.66-.23.16-.79.36-.96.63-.16.1-.46.33-.53.46-.13.2-.2.49-.49.56-.1,0-.56.3-.59.33-.1.1-.4.16-.53.3-.16.16-.36.43-.49.63-.13.2-.1.53-.1.79.2.92.92,1.58,1.12,2.44.33,1.42.92,2.74,2.48,3.1.69.17,1.29.82,1.98.82.79,0,1.12-.33,1.82-.66.59,0,2.24-2.84,2.24-3.56,0-.66.36-1.25.36-2.01,0-.33.66-2.01.76-2.05.07-.23.36-.13.43-.4.03-.23.07-.83.36-.83s.36-.36.43-.63c.13-.53.82-.56.82-1.32,0-.23-.1-.53-.1-.69,0-.23.26-.53.26-.69.43-.76,1.32-1.12,1.55-1.88.07-.26.89-1.22,1.06-.5.03.13.1.43.1.56,0,.07-.26.96-.26.96-.17.16.1,1.06.1,1.42,0,.3-.07.86.07,1.12.1.23.2.46.2.76-.56.17-.33,1.45-.23,1.91.03.2,0,.59,0,.79,0,.36.4.13.4.5,0,.13-.99.2-.56.86.2.3.4,2.24.23,2.41-.69.69-.13,1.09.5,1.09.79,0,2.48.2,2.48-.92,0-.43-.3-1.06.13-1.32.17-.1.86.73.86-.5,0-.59.16-.76.63-.46.2.13.46.53.76.33.13-.07.3.1.36.03.26-.26,0-.53.63-.43.2.03.36.66.53.13.1-.36.56-1.12.89-1.19.16-.03.36.1.46.07.66-.26,0-.86.96-.73,0,0,1.62.79,1.19-.3-.1-.26,0-1.02-.23-1.09-.13-.03-.16-.63-.16-.79-.1-.4-.63-.76-.63-1.25,0-.13-.1-.3-.1-.4-.07-.3-.23-.69-.36-.89-.1-.13-.1-.16-.26-.2-.1-.03-.16-.36-.2-.4-.07-.13-.66.13-.73.13-.26.07-.63-.1-.79-.2-.76.1-2.57-1.39-3.23-1.72-.43-.2-2.14-2.08-2.14-2.54-.36-.63-.86-1.39-1.02-2.08-.23-.92-.99-1.82-.99-2.9,0-.36-.1-.92-.1-1.39,0-.4.49-1.68.49-.59,0,1.58-.03,3.83,1.16,5.02.46.46.96,1.75,1.32,2.31.49.76,1.16,1.19,1.78,1.82.69.23,1.22,1.02,1.95,1.25.53.16-.73-.73-.83-.83-.69-.69-1.78-1.09-2.01-2.11-.17-.76-1.45-1.58-1.68-2.34,0-.73-.53-1.62-.69-2.34-.13-.56-.23-1.25-.36-1.82-.03-.17-.03-.4-.03-.56v-.53s.16.76.2.89c.1.49.3,1.22.36,1.72.03.2.53,1.49.63,1.52.26.13.36.07.4.3.13.59.16.96.73,1.39.17.1.36.43.53.59.13.13.13.4.26.56.07.07.23.3.23.33.33.3.43,1.02.76,1.19.26.13.69.69.92.86.3.2,1.45.89,1.62,1.16.23.36.96.46,1.35.26.73-.36-.49-1.32-.59-1.78-.2-.89-.13-1.62-.69-2.44-.5-.16-1.45-.79-1.58-1.32-.03-.23-.23-1.15-.23-1.32,0-.53-.56-1.52-.69-2.11-.07-.26-.3-.99-.3-1.16,0-.53.49-.4.66-.56.07-.23.23-1.49.4-1.65.26-.26,1.65-1.25,1.22-1.68-.1-.1-.36-.2-.43-.33-.13-.26-.3-.66-.66-.59-.03,0-.66.59-.69.63-.26.23-.56.73-.56,1.06,0,.23-.03.69-.03.86,0,.13-.16.49-.07.59.23.23.43.4.43.76,0,.17-.59.59-.59.76-.1.07-.83.73-.89.33-.2-1.19-.36-2.81.49-3.66.89-.89.13-2.05,1.91-2.47.1-.17.33-.83.43-.92.2-.2.4-.3.56-.46.07-.07.26-.59.16-.69-.23-.23-1.19.3-1.35.4-.23.13-.76.16-1.02.23-.2.03-.46.26-.66.4-.33.23-.53.53-.79.79-.1.1-.63.73-.73.86-.07.2-.49.76-.69.89-.26.16-.3.36-.36.69-.1.4-.46.99-.46,1.35,0,.13-.23.4-.3.4-.43.1-.23-.46-.1-.66.07-.1.07-.5.07-.66,0-.13.2-.56.3-.59.1-.03.36-.53.36-.63,0-.3.16-.63.36-.92.3-.79.23-.76-.53-.92-.1,0-1.45-.43-1.49-.43-.43.13-.46.2-.92.2-.59,0-1.25-.13-1.82,0-.17.03-.43.2-.59.2-.59,0,.03-.63.4-.63.26,0,.83-.23,1.06-.3.4-.16,1.15-.89,1.49-.89s1.09-.23,1.55-.23c.16-.03.4-.13.43-.33.03-.17.26-.56.1-.73-.2-.2-.35-.38-.33-.63.06-.92.71-.31,1.02,0,.5.5,1.07.08.69-.3-.13-.13-.33-.76.1-.76h.36c.23-.03.43-.23.53-.26.13-.23.03-.56.16-.76.13-.2.53-.89.53-1.19,0-.13-.16-.43-.23-.59,0-.07-.1-.43-.13-.43s-.3.43-.56.49c-.13.03-.79.79-.79.86-.1.33-.56.66-.56,1.06,0,.2-.16.66-.4.66-.4,0-.79.56-1.29.56-.46,0-.53-.13-.53-.63,0-.3.79-1.49,0-1.68-.96-.23-.3-1.12-.69-1.52,0-.3-.2-.59-.2-.79v-.66c0-.2-.2-.3-.2-.53,0-.26.23-.66.13-.83-.07-.1-.4-.53-.4-.66,0-.26-.86.2-.89.23-.13.07-.33.16-.4.23-.03.03-.33,0-.43.1-.3.07-.66.26-.99.26-.46,0-.92-.36-1.39-.2-.26.1-.56.33-.89.43-.63.2-.99.2-.99.96v.69c0,.33.23.56.23.89,0,.71-.33.84-.5,1.35-.12.41.46,1.87.19,2.14-.15.15-.77.19-.77.56,0,.24.27.92,0,.99-.1.02-.36.15-.46.15l-.1.02s-.02.51,0,.53c.05.07.15.05.19.12,0,.02.1.12.1.12.02.02.05.32.05.36s.05.17,0,.22c-.02.02-.07.07-.1.1l-.12.07c-.07.05-.24.27-.31.36-.65.22-.87.07-.87-.63,0-.39-.15-.85.02-1.19.22-.44-.19-.29-.36-.36-.41-.19-.44-.66-.44-1.16,0-.56-.22-1.12-.22-1.67-.15-.32-.58-.39-.65-.73-.07-.32.1-.44.02-.78-.12-.56-.17-1.04.15-1.53.1-.15.29-.1.34-.29.1-.39-.48-1.75.05-1.92.58-.19,1.45-.63.68-1.14-.75-.17-.94-.8-.94-1.53,0-.46,0-1.04.6-.9.48.12.77-.07,1.14-.22.44-.17.63-.36.97.07.68.85,1.57.46,2.49.46.51,0,1.43-.05,1.89-.27,1.07-.49,1.4.36,2.4.36.9,0,1.89-.51,1.53-1.53-.19-.56-.9-.56-1.16-1.02-.15-.27.31-.68.46-.92.36-.02.58-1.43.53-1.77-.02-.17-.31-.29-.31-.51,0-.05.19-.41.1-.39-.22.07-.77.66-.99.51-.6-.39-.07-2.48-.44-3.23,0-.34-.24-.68-.56-.75-.27-.05-.51.75-.46.97l.15.22-.12.19c-.07.12-.15.51-.15.7,0,.17-.02.32-.07.46,0,.05-.12.17-.15.19-.02.02-.07.15-.1.15,0,.15.07.51.02.66,0,.02-.29.27-.31.27-.27-.05-.02-2.14.05-2.4.07-.22.1-.63.1-.87,0-.34.19-.68.24-1.07.1-.39.36-1.41.75-1.41.17,0,.53-.9.02-.9-.7,0-1.45.68-1.21,1.46.17.51-.9.75-.9,1.36,0,.56-.73-.15-.73-.46,0-.61-.44-.19-.56-.39-.24-.39.41-.8.51-1.02.12-.24-.19-.36-.36-.36-.34,0-.29-.34-.29-.56.02-.39-.05-.9-.05-1.31,0-.15.02-.29.02-.44,0-.12.02-.29.17-.29.19,0,.6.41.65.66.07.36-.1,1.16.02,1.41.02.07.19.29.32.29.17,0,.12-.97.1-1.12-.05-.27,0-.56-.17-.8-.15-.22-.36-.29-.36-.63,0-.19-.05-.19-.12-.34-.02-.05-.12.5-.34.41-.07-.03-.31-.31-.31-.41.07-.12.1-1.55-.15-1.55-.31,0-.51.56-.7.36-.29-.29-.56-1.02-.82-1.19-.17-.1-.39-.41-.56-.46-.27-.07-.29-.58-.46-.68,0-.19-.07-.36-.07-.56,0-.1.05-.12.12-.12s.07-.1.15-.15c.05-.05.31.07.24-.17-.05-.17-.41-.41-.51-.49-.1-.07-.22-.05-.27-.17-.02-.05-.27-.17-.27.07,0,.05.22.75.12.75-.34-.05-.39-.53-.58-.66-.19-.53-1.11-1.19-1.57-1.53-.19-.15-.36-.29-.48-.53-.07-.15-.27-.12-.41-.12-.19,0-.46-.51-.51-.68-.1-.34-.34.12-.44.22-.15.05-.34.02-.46.07-.15.07-.27.36-.12.51,0,0,.05.02.05.05s.15.19.15.19c.02.02.02.05,0,.05-.22,0-.19-.05-.46-.19-.02,0-.19-.12-.19-.12v-.05h-.12s-.07-.12-.1-.15c-.05-.05-.12-.12-.15-.17q-.02-.07-.07-.1c-.1-.07-.19-.34-.34-.39-.15-.07-.24-.19-.41-.19-.19,0-.41.05-.6.05-.22,0-.27-.27-.39-.39-.15-.15-.31-.39-.51-.51-.12-.07-.51-.12-.68-.12-.19-.15-.46-.34-.68-.39-.34-.07-.48-.41-.77-.49-.1-.02-.22-.15-.31-.17-.17-.02-.17,0-.31-.1-.07-.19-.22-.39-.31-.58-.15-.29-.1-.17.12-.17.19,0,.17-.02.05-.15-.15-.15-.73-.97-.15-.97.24,0,.48.32.65.44.1.07.6.1.73.02.02-.07.12-.15.12-.22,0-.12.1-.32.19-.41.02-.02.19-.02.19-.12v-.24s.02-.12-.05-.12c-.12,0-.34.15-.59.03h0ZM103.62,133.07c.16-.28-.25-.41-.45-.46-.17-.04-.22.6-.22.73,0,.11-.27.86-.01.86.22,0,.32-.04.5-.17.47-.34.01.18.29-.18.02-.04.17-.15.17-.21,0-.04-.01-.18-.05-.18h-.02s-.09-.1-.12-.14l-.04-.02s-.05-.04-.05-.04c0,0-.01-.16,0-.18h0ZM101.33,133.38s-.15-.07-.2-.07h-.18c-.11,0-.2.21-.21.3-.01.07.02.22.1.25.06.01.13.07.2.09.04,0,.14.01.14-.04s.06-.1.06-.14c.01-.05.05-.14.05-.18,0-.06.04-.12.05-.2h0ZM97.29,121.5c-.06.03-.13.09-.19.09-.13.03-.41.19-.5.25-.06.03-.19.13-.22.16,0,0-.13.03-.16.06-.06.06-.13.03-.19.09-.19.16-.09.03-.22.09,0,0-.06.06-.06.13s-.13.28-.13.32c0,.06-.13.35-.03.38.03,0,.28,0,.31-.03.03-.03.16-.09.22-.09.03,0,.09-.06.09-.06.03-.03.09-.09.13-.09.09-.03.03-.16.09-.16h.03c.06,0,.09-.09.09-.13.03-.06.19-.19.22-.25.13-.19.22-.28.38-.44.06-.06.16-.19.13-.32h0ZM92.41,125.41c-.16.09-.47.19-.47.47v.35c0,.06-.22.16-.28.16-.03,0-.22.03-.19.13,0,.03.06.06.06.09.03.09.32.32.38.22l.03-.06c.03-.06.19-.25.22-.38,0-.06.06-.16.06-.25,0-.06.03-.16.03-.22,0-.03.16-.19.19-.22.03-.06.06-.25-.03-.28h0ZM94.02,110.37c-.35,0-.66-.06-.98.06-.13.03-.25.13-.31.25l-.03.09v.06c0,.09,0,.19.13.19s.28.1.44.06c.13,0,.25-.06.38-.09.09-.03.22-.06.31-.06.03,0,.13-.06.19-.06.03,0,.13-.06.13-.09,0-.16-.13-.38-.25-.41h0ZM92.03,110.78c-.09,0-.22.06-.28.06-.03,0-.06.03-.09.03s-.06.06-.06.06h-.13s-.03.09-.03.09h-.06l-.06.03v.03l-.03.03v.09h.09l.06.03h.09c.06,0,.19.03.25.03h.16q.06,0,.13-.06s.09-.09.09-.09v-.1s-.06-.09-.06-.13-.03-.06-.06-.13h0ZM85.12,91.44c-.24,0-.4.3-.43.5,0,.02-.04.2-.04.22-.02.08-.16.2-.18.32-.02.1-.16.44-.2.48-.02.02-.04.14-.06.16-.04.04-.08.14-.08.2.06.16.08.24.28.24.36,0,.89-.38.89-.71,0-.48-.14-.91-.18-1.39h0ZM89.27,91.28c-.08-.02-.67-.2-.69-.18-.08.08-.26.32.02.32.36,0,.75.73.71,1.07-.06.46-.36.75-.45,1.15-.08.34.24.93.59.93.32,0,.93,0,1.22-.12.41-.16.49-.24.22-.67-.32-.47-.14-.99-.41-1.46-.24-.4-.79-1.05-1.2-1.03h0ZM87.2,78.69c-.09-.14-.19-.35-.28-.49-.05-.09.12-.33.02-.4-.28-.19-.54-.16-.86-.07-.12.02-.47.05-.47.21,0,.28.19.33.28.47.02.05.12,0,.14.07.12.26.49.58.68.77.16.16.33.33.49.49.09.09.28.19.3.28,0,.14,0,.3.05.44l.09.05c.07.02.28-.14.33-.16.12-.07.21-.26.21-.44,0-.16-.02-.37-.16-.49-.02-.02-.21-.09-.21-.09-.02-.02-.09-.09-.12-.12-.05-.05-.16-.12-.23-.19-.05-.05-.07-.12-.14-.16-.07-.05-.09-.12-.12-.16h0ZM85.83,76.96c-.07-.05-.23-.14-.28-.21-.05-.07-.09-.16-.19-.21-.09-.05-.07-.14-.09-.05,0,.05-.02.14-.02.19,0,.07-.02.16,0,.23,0,.02.07.09.07.12,0,.05.05.19.05.23,0,.12.05.28.16.3.05,0,.16-.16.19-.16.05-.02.12-.09.14-.12.09-.05.21.02.21-.14,0-.07-.21-.12-.23-.19h0ZM67.21,76.45c-.76,0-.63.16-.99.69-.3.46-1.06.59-1.55.83-.36.17-1.49.4-1.72.63-1.09,0-.26.79-.69.99-.07.03-.83.3-.89.4-.3.43.46,1.06.46,1.65,0,.36-.16.66.1.92.1.1.4.53.56.53.36,0,.4-.4.76-.4.3,0,.46.26.69.33.26.07.23.36-.03.43-.03,0-.33.13-.46.17-.59.13-.03.46.3.46.13,0,.26.03.4.03.53,0,1.29-.33,1.42-.89.07-.26.36-.26.49-.46,0,0,.13-.66.13-.69.16-.33.59.1.89-.03.26-.13.46-.33.76-.4.23-.03.69-.13.92-.23.26-.13.59-.43.86-.56.03-.07.2-.26.2-.3.03-.13.1-.13.16-.2.07-.07.13-.16.23-.16s.13-.1.16-.16c0-.03.2-.1.23-.1.07-.03.07-.1.13-.1,0,0,.33-.13.33-.03s0,.1-.07.16c-.1.1-.16.2-.2.3-.13.23-.36.36-.53.53-.03.03-.33.13-.26.2.03.03.2.23.2.23,0,.1.1.03.13.16,0,.07.07.13.07.16s.1.17.1.17c.03.1.07.16.13.2,0,0,.17.07.23.1.33.2.69.73,1.09.86.23.07.63.53.92.59.46.1.96.5,1.42.5.4,0,.92-.03,1.35-.03.49-.03.86-.2,1.25-.46.3-.2.43-.2.79-.2.23,0,.16-.26.16-.46,0-.4,0-.63.1-.96.1-.3.53-.5.73-.79.07-.23.26-.33.4-.46.1-.1.33-.1.43-.1.23-.03.36-.63.43-.73.13-.23.3-.4.3-.73,0-.23.07-.46.07-.66,0-.07.1-.59.23-.4.2.3-.07.83.2,1.09.16.16.1.49-.13.59-.1.03-.23.07-.3.13-.13.16-.46.83-.1.99.23.1.3.07.33-.13.03-.17.26-.4.3-.49.03,0,.49-.16.49-.03,0,.66-.03,1.35-.03,2.01,0,.23.07.56.16.76.1.23.13-.23.17-.33.03-.1,0-.46.03-.49.17-.23.56-.5.69-.76.23-.5-.59-.79-.69-1.02-.13-.26.03-.5.3-.5s.43-.1.66-.1c.1-.33.43-.56.43-.92,0-.23-.33-.56-.33-.79v-.2s.07-.23.17-.17c.1.07-.03.3.2.3h.26c.16,0,.13-.07.23-.1h.16c.07,0,.17-.1.2-.13.03-.07.1-.2.17-.2-.03-.3-.23-.56-.23-.86,0-.2.16-1.09-.03-1.22-.33-.23-.63-.2-1.02-.2-.59,0-1.09-.49-1.32-.96-.2-.4-1.09.36-1.09-.56,0-.07-.03-.46-.07-.46-.16-.07-.56.16-.66.2-.2.1.07.5.03.56,0,.03-.36.17-.43.26-.1.13-.13.2-.13.4,0,.26.3.36.36.66.1.43-.86.23-1.09.26-.4.1-.17-.2-.33-.36-.07-.07-.36-.23-.36-.43-.16-.1-.53-.33-.53-.53,0-.26-.23-.83-.46-.99-.23-.17-.36-.63-.66-.63-.16,0-.59,0-.73.07-.2.1-.26.26-.53.26-.1,0-.23-.1-.23-.2,0-.26.03-.33.26-.46.1-.07.4-.16.49-.3.16-.03.2-.13.3-.26.03-.07.03-.2.03-.3s0-.13.07-.13.1-.03.13-.1l.03-.07s.07.1.1.1l.23.17c0,.07.07.17.13.17h.07c.1,0,.03.07.1,0,.03-.03.36,0,.43-.13.07-.13.07-.33.03-.43,0-.03-.07-.07-.07-.1,0-.07,0-.3-.03-.33-.03-.07-.07,0-.07-.13,0-.03-.07-.07-.07-.07v-.1l-.07-.07s-.23-.03-.26-.03h-.23v.07h-.07s-.1.13-.13.13c-.1.03-.17.13-.23.16h-.1s-.07.13-.13,0c-.13-.23.13.03-.26-.26l-.03-.1h-.13c-.1,0-.23-.13-.36-.13-.69.07-.16,1.42-.89,1.78-.36.16-1.22.16-1.42.3-.56.36-.53.1-.86.79-.23.46-.76.79-1.25.79s-1.12.92-1.39,1.19c-.23.13-.59.26-.76.36l-.07.03s-.07.07-.1.07l-.07.03c-.03.07-.16.2-.2.26,0,0-.07.17-.07.2,0,.1-.1.4-.17.43-.03,0-.13,0-.16.03-.03.07.03.07-.16.13h0ZM69.43,76.06c-.59.13-.83.36-1.19.73-.13.13-.4.23-.46.36-.23.46-.99,1.12-.36,1.75.07.07.46.33.59.2.03-.03.23-.07.23-.13s.26-.33.36-.43c.13-.13.2-.23.33-.36.3-.3-.56-.13-.59-.2-.3-.46.4-.96.69-1.02.16-.03.36-.33.59-.4,0,0,.2-.2.16-.26-.03-.07-.26-.16-.36-.23h0ZM83,76.59c-.05.02-.58.17-.61.19-.11.06-.06.04-.17.04-.04,0-.11-.02-.15-.04-.06-.02-.09-.13-.15-.17-.13-.09.06-.26.15-.34.11-.02.19-.07.3-.07.06,0,.3.04.33.07l.02.04s.09.07.13.09c.07.04.09.07.15.19h0ZM80.85,76.59c-.06-.22-.13-.41-.35-.45-.15-.02-.56-.43-.74-.24-.46.46.46,1.08.85,1.17.15.04.72.63.52.02-.02-.09-.15-.52-.28-.5h0ZM78.7,66.95s-.1-.16-.13-.2c0,0-.07-.07-.1-.07,0,0-.07-.03-.1-.03h-.2s-.07.03-.07.03h-.1s-.07.1-.07.13v.17l.03.03h.07v.07h.1l.03.07h.1s.13.03.2.03.1,0,.13.03c.03.03.07.1.13.1.03,0,.1-.03.1-.03v-.23s-.1-.07-.13-.1h0ZM78.9,72.53c-.1-.17-.07-.13-.17-.17-.13-.07-.16-.1-.3-.1-.23,0-.33.3-.36.5-.03.2,0,.1.07.2l.03.23s.36.16.4.16c.2.07.46.07.5-.16,0-.07.07-.16.07-.26v-.33l-.23-.07h0ZM69.36,73.02c-.07,0-.13.03-.2.03h-.13s-.07.03-.1.03l-.07.03h-.13s-.1.03-.1.03l-.07.07-.03.07v.1l.07.07h.03l.07.03.07.03.03.03.07.03h.17c.1,0,.16-.13.16-.13,0,0,.13-.03.17-.03.07,0,.13,0,.16-.03,0,0,.03-.1.07-.1l.03-.03v-.07h.07s-.23-.07-.33-.16h0ZM71.54,70.94c-.33,0-.76.2-.89.46-.07.13-.1.46.03.53.2.13.69.03.82-.1.07-.07,0-.43.07-.56.03-.07.2-.03.16-.13,0-.03-.07-.03-.07-.07-.03-.1-.03-.03-.13-.13h0ZM73.45,70.18c-.1-.03-.4-.13-.46-.16-.2-.1-.46-.13-.66-.17-.13-.03-.4-.07-.49.13,0,0-.1.2-.1.23,0,.07.03.1.07.2,0,.07.07.1.1.13.03.07.23.23.3.3.07.07.17.1.23.13.1.07.1.1.1.1l.1.03c.1.07.13.1.26.1.16,0,.36.1.5.13.13.03.26-.03.36-.07.13-.03.26-.4.23-.56,0-.03-.13-.13-.13-.13l-.07-.26s-.23-.13-.33-.13h0ZM69.62,81.97c-.13,0-.53-.2-.63-.16l-.16.13c-.07.1,0,.2.07.23.13.1.16.23.36.26.03,0,.16.1.16.1.3.07.46.26.66.46.03.03.13.1.16.13.07.07.36.3.4.16,0-.07,0-.23-.07-.26-.13-.07-.2-.2-.3-.3-.07-.07-.16-.1-.2-.16-.03-.07-.07-.1-.1-.16-.1-.13-.16-.26-.36-.43h0ZM68.47,83.48s.46-.1.5-.13c.23-.13.26,0,.49.03.49.1.1.86-.1.99-.66.43-1.52.66-2.34.92-.66.2-.92.26-1.45-.1-.17,0,.26-.43.3-.43.07-.03.26-.53.3-.59.07-.13.16-.23.2-.36.16-.49,1.55-.4,1.91-.26l.2-.07h0ZM59.43,87.21l-.03.07s-.17.03-.2.03c-.2.1-.86.49-.86.76,0,.13-.16.26-.16.4,0,.07,0,.3.07.3.2.07.49,0,.66-.1.03,0,.2-.16.23-.2,0,0,.07-.07.1-.07.07-.03.1-.1.17-.17.1-.07.03-.1.1-.16.03-.03.13.03.13-.03v-.07l.07-.03s.13-.17.13-.2c.07-.1.07,0,.07-.13s.13-.23.13-.33c0-.07-.03-.07-.07-.1-.03,0-.53-.21-.53.03h0ZM55.33,82.2h-.4l-.07.03-.03.03-.03.07v.16h.03l.07.03.03.03h.03c.07,0,.16.03.23.03h.16s.13,0,.13-.03v-.23h-.03s-.1-.13-.13-.13h0ZM56.55,81.41s-.13-.1-.16-.1-.1-.03-.13-.03h-.2s-.13.03-.13.07v.43l.03.03.07.03.07.03.03.03h.07l.03.07h.26s.1-.07.13-.07l.1-.16v-.13h-.07l-.07-.03-.03-.16h0ZM57.12,80.51s-.13-.07-.16-.07h-.1s-.07-.03-.1-.03h-.2s-.07.03-.07.07-.07.07-.07.1l-.03.03h-.07v.07l-.07.03v.1l.07.03.07.03.07.03h.03l.07.03h.07c.07,0,.13-.03.2-.03.03,0,.13-.03.17-.03.07,0,.1-.07.16-.07.03,0,.03-.07.07-.07h.03v-.03l.03-.07s-.13-.1-.16-.13h0ZM58.44,81.97c-.2.4-.63.63-.92.83-.23.13-.49.26-.76.4-.03,0-.16.56-.16.63,0,.17-.86.83-.96.89-.07.03-.2.26-.26.4-.16.36.26.3.56.3.43,0,.96.5,1.35.59.33.07,1.06-.13,1.42-.13.16-.03,1.65.03,1.52-.23-.1-.2-1.09-.16-1.32-.16-.13,0-.56,0-.56-.13s-.16-.43.1-.43c.76,0,1.55.17,2.18.46.86.43-.03.79.46,1.29.13.13.86-.56,1.09-.59.16-.03.99-.4.66-.59-.13-.07-.4-.2-.59-.2-.26,0,.2-.69.23-.89.13-.53-.33-.63-.43-.96-.92-.76-.66-3-1.72-3.33-.3-.1-.66.03-.89.13-.26.13-1.16.33-1.29.63-.2.43.26.79.3,1.12h0ZM76.82,98.67l-.63,2.08c-1.82-.76-3.66-1.82-5.54-2.28-.92-.23-1.82-1.02-2.64-1.22-.99-.23-1.68-1.06-2.51-1.25-1.42-.46-3.07-1.25-4.39-1.58-.66-.16-1.39-.99-2.01-1.29l-1.91-.96c0-.66.5-.13.69.07.26.26,1.02.4,1.39.56.4.2,1.02.56,1.45.56,1.02.07,2.97,1.32,4.06,1.75,1.65.66,4.13,1.55,5.81,1.95,2.11.53,3.86,1.45,6.24,1.62h0ZM61.41,90.91c-.23,0-.63.03-.83.07-.16.03-.4.16-.56.16-.1,0-.16.17-.2.17h-.07s-.23.26-.07.26h.33c.07.03.03.07.2.07h.3c.16,0,.16.17.3.17.59.53,1.75,1.29,2.57,1.29,1.02,0,1.85.99,2.87,1.22,1.09.26,1.95.73,2.97,1.06,1.32.89,2.67.79,4.03,1.32.26.1,1.68.07,1.78.43,0,.07,1.39.53,1.58.53.3,0,1.16-.46.53-.59-.79-.2-1.52-.43-2.28-.73-.43-.17-1.02.13-1.52-.36-.86-.86-3.3-.99-4.42-1.35-.76-.17-1.16-.2-1.65-.79-.4-.46-1.62-.56-2.18-.69-.63-.13-1.75-.69-1.91-1.19-.16-.07-.36-.26-.53-.33-.2-.1-.46-.23-.63-.33-.03,0-.07-.1-.1-.1-.13-.03-.36-.17-.53-.26h0ZM62.76,90.07s.35.19.41.22c.22.13.5.38.6.6.25.6.66.25,1.04.35.28.06.28.35.38.6,1.07.16,2.08,1.42,2.81,1.42,1.32,0,1.77.82,2.9,1.1,1.32.32,5.87,2.11,6.97,1.7.06,0,.06-.06.06-.16,0-.06.03-.16.03-.22s0-.28.03-.35c.03-.06.19-.19.22-.28.06-.16.19-.38.22-.57-.41,0-.85-.03-1.26-.03-.88,0-1.74-.25-2.55-.54-.82-.41-1.77-.41-2.59-.66-.88-.28-1.64-.85-2.52-1.07-1.45-.35-3.22-1.39-4.89-1.92-.21-.17-.34-.21-.57-.24h-.33c-.16,0-.13.1-.23.1-.16,0-.4-.07-.49-.07h-.07c-.1,0,0-.1-.13-.1-.07,0-.1-.03-.03.12h0ZM66.82,89.71c.21.07.64.43.86.43.14,0,.36.14.43.14.29.14.64.29,1,.36.5.07,1,.5,1.36.65.07,0,.43.29.57.36.07,0,.29.14.36.14.21,0,.29.14.36.22,1.29,0,2.43.5,3.65.79.43.07,1.07.14,1.5.22.43.07,1.14.43,1.57.43.21-.22.5-.5.5-.86,0-.29.14-.79.07-1l-.07-.14s-.21-.36-.29-.5c-.07-.14-.21-.43-.29-.57-.14-.22-.07-.14-.21-.29-.14-.14-.21-.57-.43-.65-.21-.07-.43-.36-.5-.43-.93-.65-3.79.86-5.29-.14-.5-.29-4.94.36-5.15.86h0ZM54.51,142.13c-.08,0-.37.08-.46.08-.04,0-.33.12-.37.12s-.79.21-.79.21c-.04.12-.08.12-.12.17-.04.04.04.92.04,1s.12.25.21.25c.25.04.71-.58.87-.67.08-.04.46-.21.5-.25.04-.04.17-.17.21-.21.04-.04.21-.17.25-.17.08,0,.21-.33.08-.37-.12-.04-.37-.04-.41-.17h0ZM51.77,144.46c-.12.12-.33.37-.5.46-.12.08-.41.13-.46.21-.08.17-.25.42-.25.62,0,.13.17.13.25.17.04,0,.08.08.12.08l.25.13c.12,0,.54-.13.62-.17l.21-.13c.12,0,.29,0,.37-.08.12-.13.12-.5.12-.67,0-.08-.12-.21-.17-.29-.04-.08-.13-.25-.21-.25l-.37-.08h0ZM50.27,157.32c0-.58-.37-.75-.75-.46-.33.25-.08,3.12-.08,3.62.04.17.17.21.17.33,0,.04.29.04.29,0,.04-.13.04-.67.04-.83,0-.21-.04-.5-.04-.67s0-.37-.04-.5c0-.08-.08-.21-.08-.33,0-.17.12-.46.17-.58.04-.08.08-.17.08-.17.04-.04.08-.17.25-.42h0ZM57.77,171.55c-.25,0-1.29.93-1.29,1.16,0,.11-.05.36.09.36.34,0,.52.43.54.7,0,.02.11.79.25.45.04-.14.27-.66.45-.66.41,0,.2-.45.2-.7,0-.27.05-.54.05-.82,0-.02-.05-.25-.05-.25-.02-.02-.2-.2-.25-.25h0ZM56.62,170.91c.18-.27.18-.66.18-1,0-.63-.93.02-.99.39-.05.32-.45.43-.5.61-.16.52.14,1.04.5,1.4.2.2.43-.54.45-.68.02-.18.32-.52.36-.73h0ZM83.39,164.07c-.39,0-.04.33-.04.53s.18.4.18.67c0,.04.31.18.31-.27,0-.09.04-.18.04-.27v-.18c0-.27-.49-.49-.49-.49h0ZM82.64,162.69c-.13,0-.22-.04-.27-.09-.31-.31-.31.53-.31.76,0,.04.04.44.04.49-.27.71-.84,1.07-.62,2,.09.4.4.93.8,1.07.22.04.35-.27.35-.4s.35-.18.35-.4c0-.31-.04-.62-.18-.8-.18-.27-.49-.89-.4-1.24.04-.18.13-.31.13-.58,0-.22-.04-.49.09-.8h0ZM81.67,167.4c-.4,0-.8.76-.8,1.07,0,.36-.22.8-.22,1.11,0,.36-.04.44-.18.67-.09.13-.04.31-.04.31-.04.18-.22.13-.22.4,0,.67,1.06.09,1.24.09.13-.18.49-.8.49-1.02,0-.18.18-.71.22-.84.09-.22.18-.76.18-1.02,0-.31-.27-.8-.67-.76h0ZM79.63,175.94c-.18.09-.35.13-.4.31-.09.4-.4.98-.4,1.38,0,.13-.04.31-.04.4l-.04.36c.09.04.31-.09.31-.13.04-.09.09-.13.09-.27,0-.04.18-.58.18-.58,0,0,.13-.04.13-.09.09-.18.31-.49.35-.71v-.36c-.04-.18-.22-.18-.18-.31h0ZM69.12,198.91c.18-.18.18-.13.18-.31s-.13-.04-.18-.09c-.04-.04,0-.18-.13-.18-.22-.04-.58-.04-.8-.04s-.44-.13-.67-.04q-.13.04-.18.13s-.13.09-.13.13c-.04.09.09.58.09.71v.76c0,.18-.04.31.13.36h.27s.09-.13.13-.13c.09-.04.35-.18.49-.27.09-.04.22-.27.4-.22.04,0,.22.09.31.09.13-.04.27-.36.27-.4s0-.44-.18-.49h0ZM68.76,196.73s-.12.09-.15.12c0,0-.06.03-.06.06,0,.03-.03.09-.03.12s-.03.06-.03.09v.06l-.03.03v.12l.03.03.03.06.06.03.03.06h.18c.09,0,.15-.06.15-.12s.06-.12.06-.18v-.09s.03-.09.03-.09l.03-.06v-.09s-.18-.06-.31-.15h0ZM74.22,192.15s-.18.13-.22.18c0,0-.09.04-.09.09s-.04.13-.04.18-.04.09-.04.13v.09l-.04.04v.18l.04.04.04.09.09.04.04.09h.27c.13,0,.22-.09.22-.18s.09-.18.09-.27v-.13s.04-.13.04-.13l.04-.09v-.13s-.27-.09-.44-.22h0ZM131.64,198.68c-.43-.16-.76-.43-1.26-.43-.25,0-.56.16-.36.36.61.61-.43.5-.81.5-.47,0-.27.45-.27.77,0,.52.27.54.61.34.31-.18.52-.43.85-.5.11-.02.18-.11.36-.11.34,0,.99-.54.88-.92h0ZM176.18,198.03c-.17,0-.43-.02-.59.04-.46.22-.85.81-.74,1.37.02.13.02,1.22.11,1.22.15,0,.24.11.43-.02.5-.33.09-1.2.43-1.55.15-.15.46-.35.57-.57.04-.09.13-.15.11-.26-.02-.09-.11-.28-.2-.28l-.13.04h0ZM181.74,192.73c-.04-.15-.15-.35-.2-.5,0-.02-.04-.13-.09-.13s-.13.09-.2.09c-.09,0-.3-.02-.37.04-.02.02-.13.22-.13.26,0,.09,0,.13.06.2.02.02.07.11.07.13s.07.04.07.04c0,0,.02.07.02.09.02.02.13.09.15.13.06.09.13.22.13.33,0,.07.17.02.2.02.11-.02.13-.33.2-.37,0,0,.04,0,.04-.02,0-.09-.02-.24.04-.3h0ZM181.59,169.55c-.17-.17-.54-.79-.76-.63-.31.24-.17.51-.04.82.08.24.3.6.46.79.06.08.24.18.36.12.29-.14.49-.39.43-.68-.04-.24-.25-.26-.44-.43h0ZM180.35,171.16c-.03-.25-.24-.67-.51-.56-.28.11-.4.43-.4.72,0,.33.25.67.39.96.14.28.58-.03.58-.31,0-.15.1-.29.1-.46,0-.11-.19-.25-.15-.36h0ZM171.54,159.23s-.05-.14-.11-.14h-.06s-.07.14-.07.16c0,.01-.02.05-.02.06,0,.07,0,.15.02.22,0,.01.02.06.02.07v.08s.13.08.14.04c.02-.07.09-.14.09-.22,0-.07,0-.16-.02-.27h0ZM168.78,156.75c.22-.13.35-.57.06-.67-.29-.09-.48.11-.54.34-.07.25.04.79-.28.86-.13.02-.26.23-.27.34-.04.23.05.33.2.48.43,0,.43-.01.74.29.21.21.2.73.54.89.3.15.23-.36.48-.32.43.08.21.97.27,1.31.12.61.61-.2.68-.43.09-.28.2-.31.2-.7,0-.22-.77-.59-.83-.55-.16.09-.12.45-.27.23-.08-.12-.11-.96-.18-1.18,0-.14-.07-.4-.21-.43-.16-.04-.39-.05-.56-.05-.13,0-.18-.4-.02-.41h0ZM194.37,161.01c.13,0,.24.19.24.43s-.11.43-.24.43-.24-.19-.24-.43.11-.43.24-.43h0ZM194.42,159.63c.06,0,.11.1.11.23s-.05.23-.11.23-.11-.1-.11-.23.05-.23.11-.23h0ZM189.69,152.95s-.1-.05-.15-.05h-.08v.63l.03.05.05.03v.07l.07.08.03.03.05.02h.03s.12-.13.15-.15c.05-.05.05-.1.05-.15,0-.22.38-.55-.23-.55h0ZM191.71,150.47v-.15c0-.12-.08-.25-.2-.25-.26,0-.35.48-.35.68,0,.03.05.08.1.08h.12s.05-.1.07-.1c.1-.1.03-.18.25-.25h0ZM192.56,152.9c.1-.13.15-.2.15-.35,0-.07-.02-.18-.05-.25,0-.02-.05-.02-.07-.02-.1-.02-.02-.15-.17-.15s-.3.25-.4.35c-.05.05-.13.5-.03.55.07.05.2.1.3.1.05,0,.27-.13.27-.23h0ZM192.76,158.03c-.05-.13-.45-.7-.57-.73-.12-.02-.37.18-.4.33-.02.1-.05.23-.05.35,0,0,.35.38.38.4.12.08.3.23.42.35.15.15.42.45.52.65.07.15.2.33.45.33.2,0,.2-.13.2-.3,0-.25.02-.6-.18-.8-.17-.18-.4-.38-.57-.55l-.2-.02h0ZM191.56,153.45c-.42-.13-.4.1-.55.43-.45.93.6,1.75,1.05,2.2.1.1.85.85.65,0-.05-.2-.27-.55-.27-.78,0-.13,0-.33-.02-.43-.05-.15.05-.12.05-.3-.05-.02-.35-.18-.37-.25,0-.05.03-.05-.05-.1-.12-.08-.12-.33-.2-.43-.07-.1-.17-.23-.27-.35h0ZM189.27,135.81c0-.21-.03-.58-.24-.61-.24-.06-.37-.09-.43.24-.03.18.37.95.43,1.19.06.24.06.55.06.82,0,.15.03.21.06.3.06.24.3-.24.3-.3.12-.4-.06-1.16-.18-1.65h0ZM190.13,139.38c0-.06-.15-.4-.15-.43s-.03-.24-.06-.24l-.06-.06-.24.15c-.12.12-.27.31-.27.49v.43c0,.09.06.18.12.21.24.12.46-.31.7-.37l-.03-.18h0ZM189.85,146.06c-.03-.12-.21-.34-.24-.43-.06-.24-.09-.52-.43-.58-.49-.12-.97.43-.55.85.21.21.27.64.46.82.09.09.06.58.15.58.15.03.15.18.37.18.3,0,.03-1.31.24-1.43h0ZM184.55,138.98c-.06,0-.4,0-.43.03-.06.09,0,.24,0,.31,0,.03.03.09.06.12l.03.03c0,.09.24.43.3.49,0,0,.06.06.06.09.03.06.12,0,.15.03,0,0,0,.12.09.03.03-.03,0-.27,0-.31,0-.15-.09-.21-.09-.4s-.15-.24-.18-.43h0ZM183.92,136.91s-.18-.09-.18-.09c-.09,0-.27.15-.27.24,0,.06-.03.27,0,.31l.06.03c-.06.09-.21.21-.3.24,0,0-.27.12-.09.12.12,0,.18.18.33.09.15-.09-.06-.03.12-.06.09,0,.06,0,.15-.03l.06-.03c.06-.06.09-.12.15-.12.12-.03.09-.21.09-.31,0-.06-.03-.15-.09-.18-.06-.03-.06-.12-.03-.21h0ZM179.99,134.89c-.06-.06-.15-.18-.21-.24l-.09-.06h-.06v.03l-.03.06-.03.06v.12s.06.09.06.12l.06.06c.06.03.09.12.09.18s0,.09.03.09.12,0,.12-.03.03-.09.03-.09v-.12c0-.06.03-.15.03-.18h0ZM181.97,135.01c-.03-.06-.12-.15-.15-.18-.03-.03-.09-.06-.12-.09l-.06-.06s-.03-.06-.06-.06h-.09s-.09.03-.09.03l-.06.03-.06.03-.03.03h-.06l-.06.03v.06h-.03v.24s.12.09.15.09h.4l.06.03h.27v-.18h0ZM183.55,133.91c-.06-.06-.15-.21-.21-.21-.03,0-.06-.06-.15-.06-.21.03-.7.31-.76.55,0,.09-.03.21-.03.3,0,.06.06.12.06.18,0,.03,0,.12.03.15,0,0,.09,0,.09.03.03.12.18.21.34.21s.27-.09.37-.18c.12-.12.3-.34.4-.46.06-.09.06-.24.06-.31v-.03c-.03-.12-.06-.12-.18-.18h0ZM184.86,134.62s-.03-.09-.03-.12-.03-.06-.06-.06h-.09s-.12.03-.15.03-.09.03-.12.03c-.19,0-.17.43-.09.55v.03l.03.06.06.12v.03l.03.12.03.03.03.06c0,.06.06.09.15.09s.09,0,.12-.06c.03-.03.12-.12.12-.18,0-.03.03-.12.03-.12v-.09c0-.19,0-.38-.06-.52h0ZM186.26,134.83c.12.24.18.52.24.76,0,.06.09.09.09.15.03.15-.03.43-.03.58l-.03.03v-.09c-.03-.12-.15-.18-.15-.24-.03-.18-.18-.24-.27-.37,0-.03-.09-.21-.09-.24,0-.09,0-.15-.03-.21-.09-.15-.24-.34-.3-.46-.06-.12-.06-.18-.15-.27-.09-.12-.12-.15-.06-.31.06-.12.09-.06.18-.06.2,0,.61.53.61.73h0ZM185.77,130.34c.58,0,2.1,3.14,2.1,3.66s.52,1.31.3,2.01c-.09.3-.15.64-.58.37-.18-.12-.58-.46-.58-.67s.15-.61.09-.82c-.06-.18-.33-.09-.33-.58,0-.7-.27-1.37-.27-2.08,0-.43-.4-1.68-.73-1.89h0ZM175.33,126.44c-.12,0-.24.03-.34.03-.15.03-.09.03-.15.12-.06.09-.12.09-.12.21,0,.18-.18-.18-.18-.18-.03-.03-.09-.12-.12-.18l-.12-.15s-.09-.09-.12-.09c-.15-.09-.18-.28-.3-.31-.4,0-.46.4-.88.12-.24-.15-.12-.4-.43-.4-.4,0-.88-.34-1.13.18-.61,1.22.4,2.38.97,3.27.79.12.09-.76.73-.12.64.64,1.16.43,1.16,1.53,0,.89.64-.27.7-.37.21-.34.37.55.64.55,1.55,0,1.13,2.17,2.22,2.53l.12-.12c.12-.09-.15-.92-.21-1.07l-.09-.18v-.15l-.12-.09-.06-.12c-.03-.06-.15-.15-.21-.24-.03-.06-.09-.15-.09-.24v-.09s-.06-.12-.03-.12c.18.09.43.52.46.7.03.12.18.12.21.15,0,0,.12.21.12.24.03.12-.03.06.06.09.12.06.06.24.18.24h.06s0,.09,0,.12l.12.12c.06.06.55.52.7.37.46-.46.03-.61-.18-1.04-.03-.06-.03-.15-.03-.21v-.18c.09-.09.55.79.64.98.09.18.37.4.46.58.06.12.3.15,0,.37-.18.12-.61.18-.67.4-.09.34.3.24.52.24.24.34.58.28,1.04.28.15,0,.27-.12.3-.24.03-.18-.37-.73-.24-.98.03-.06.06-.34.18-.31.24.06.15.27.4.03.09-.09.24-.15.3-.21.18-.18.03-.64.4-.52.64.21.27.37.4.95.15.64.52.37.43-.09-.03-.27-.09-.58-.09-.85,0-.24-.12-.31-.12-.4,0-1.22.91.24,1.16.61.15,0,.37.09.49.09.3,0,.06-.49.06-.61,0-.18-.03-.4,0-.58,0-.03.06-.12.12-.12.09,0,.09.03.12.09.06.15.4.49.52.58.09.06.18.15.21.24.03.09.09.03.09.12s0,.15.06.21c.4.18.55.76.55,1.1,0,.49.21-.21.21-.43,0-1.34-1.19-2.44-1.83-3.42-.24-.37-.43.15-.43.31,0,.24.24.43.24.64,0,.55-.64-.55-.82-.76-.21-.24-.55-.85-.82-.31,0,.24-.03.46-.03.67,0,.34-.27.49-.46.76-.06.09-.18.12-.27.12s-.15.12-.15.18c-.06.31-.82-.61-.85-.76-.03-.09-.09.21-.18.31-.09.09.15,1.07-.09,1.13-.24.31-.55.31-.67-.03-.15-.37-.09-.52-.09-.95,0-.46-.4-.82-.52-1.31-.03-.15-.15-.34-.21-.46-.27-.58.43.18.49.18.76,0,.18-.43.03-.73-.21-.43-.58-.7-1.04-.7-.27,0-.58.12-.85.12-.12,0-.3.43-.15.55.09.06.12.03.12.18v.06c0,.4-.24-.24-.27-.34-.12-.24-.33-.34-.52-.52-.27-.27-.37.15-.37.37,0,.03-.24.03-.27.03-.12-.03-.3-.4-.34-.52-.06-.27.09-.34-.06-.64-.09-.18-.27-.64-.64-.61h0ZM170.73,127.9c-.06.03-.18.12-.24.18l-.03.06s-.06.06-.06.09-.03.12-.03.18c0,.03.03.09.03.09.03.03.09.06.12.06h.03l.06.03h.09l.06-.03h.09l.03-.06.03-.06.03-.03v-.06s.12-.15.15-.18c.03-.03.09-.12.09-.18,0-.03,0-.09-.03-.09h-.21l-.03.06c-.09.06-.03,0-.18-.06h0ZM168.78,127.23c-.09-.21-.27-.58-.52-.64l-.21-.06s-.12.09-.15.09c-.12.03-.24.31-.18.4.06.09.24.06.27.12.06.12.09.24.21.37l.03.09s.09.06.09.09c.06.15.27.3.37.43.06.09.06.24.21.24s.18,0,.18-.18c0-.12.03-.27.03-.4,0-.03-.12-.21-.12-.24-.03-.09-.15-.06-.21-.31h0ZM160.68,132.27c-.09-.03-.21-.09-.27-.12l-.06-.06-.06-.06s-.06-.06-.09-.06-.06-.03-.09-.03-.09-.03-.09-.03h-.09l-.09.06-.03.03-.06.03v.21l.06.03h.06s0,.06.15.06c.09,0,.06.09.12.09.09.03,0,.03.12.06h.24c.06,0,.12-.06.18-.21h0ZM159.83,133.12c-.15.21-.37.46-.37.73,0,.18,0,.37.21.37h.15c.15,0,.21-.27.34-.37.06-.06.12-.06.15-.18,0-.06.06-.15.06-.24,0-.12,0-.21-.12-.24-.03,0-.24,0-.43-.06h0ZM162.54,131.81c-.12-.06-.15-.09-.27-.09-.21,0-.33,0-.43.18-.03.06-.09.09-.09.15,0,.12.06.21.12.31.03.03.09.09.09.12s.03.06.06.06c.06,0,.21.24.21.4,0,.03.09.03.12.03.09,0,.15-.06.21-.12.18-.15.18-.24.18-.49,0-.18.03-.43-.21-.55h0ZM149.78,136.2c-.15-.03-.15-.09-.33-.09-.3,0-.85-.09-1.04.18-.06.09-.24.21-.24.4,0,.15.03.43.15.55.03.03.15.06.18.09.03.03.06.12.09.12.12.06.37.12.52.12.33,0,.67-.3.79-.61.06-.15.06-.34.06-.49,0-.06.03-.09.03-.15,0-.09-.06-.12-.21-.12h0ZM133.66,133.34c-.06.02-.1.1-.12.1-.04.02-.08.02-.12.06-.06.06-.17.12-.25.17-.02,0-.5.31-.54.15-.04-.17.1-.25.17-.33.15-.17.46-.21.66-.21l.21.06h0ZM131.69,133.09c-.08.04-.17.1-.23.15-.1.08-.17.23-.27.33-.02.02-.06.04-.06.08,0,.12-.04.12.08.21.04.02.17.06.23.06.08,0,.23-.02.29-.04.04-.02.08-.08.1-.1.02-.02.12-.12.17-.17l.02-.06s.08,0,.08-.04c.02-.06.08-.1.08-.19,0-.02,0-.15-.02-.15-.17,0-.37,0-.48-.08h0ZM144.49,115.38c-.86,1-1.92,1.86-3.38,2.19-.27.07-.73.4-.99.46-.66.13-2.45.33-2.71.73-.4-.27-2.32-.66-2.85-.66-.86,0-1.13.8-1.72.93-.33.07-1.26.27-1.39.4-.07.07-.79.27-.93.4-.73.73-2.12,1.46-3.24,1.46-.79.07-1.39.46-2.12,0-.33-.2-.99-.6-1.19-.8-.33-.33-1.79.2-2.12.53-.07.07-.2.33-.2.46,0,.33.46.73.07.8-.07,0-.93.6-.93.6-.2-.07-.46-.27-.66-.27-.13,0-.27.2-.46.2-.26,0-.53-.46-.53-.73,0-.33-.07-.33-.33-.33h-.13l-.07.13c-.26.07-.66.2-.93.27-.26.07-.66.33-.93.33.13,1,.79,1.86.79,2.99,0,2.32.66,4.71.66,7.1.07.27.33.46.33.6s.66.33.79.4c.13.07.27.07.33.13l.2.07s.07.2.13.2c.26.07.66.2.93.33.13.07.26.13.4.13h.2c.2,0,.26,0,.26-.13h.33c.4,0,.33.4.53.66,0,.07.26.27.26.33,0,0,.07.13.13.13.2,0,.07.2.33.2.53,0,1.26.27,1.79.27.27,0,.66-.2.86-.27.07,0,.13-.2.33-.2s.79-.07.99-.07c.13,0,.73-.27.73-.33s.07-.4.07-.4c.07-.13.13-.27.2-.4.07-.2.33-.33.33-.66v-.33h1.19c.33,0,.33-.13.33-.4,0-.46-.66-.2-.93-.13-.4.07-.07-.07-.26.13h-.79l-.53-.27c-.13-.07-.4-.4-.33-.66,0-.13.66-.4.79-.46.33-.2.66-.53.79-.93.07-.2.46-.4.6-.13.07.13.2.73.4.73.46,0,.53-.66.99-.66.53,0,.73-.93,1.19-1,.6-.13.6.66,1.26.33.13-.07.53-.4.79-.27.27.13.33.4.66.46.13-.07.33-.27.4-.33.2-.2.26-.07.4.13.2.33.73.27,1.06.27.27,0-.33.53-.33.53-.07.13-.27.27-.4.4-.2.2-.53.8-.66,1.06,0,.07-.26.27-.26.27-.07.13-.2.33-.33.46-.13.27-.46.53-.46.93v.33h.4s.27-.6.33-.66c.4-.6.53.33.73.33.26,0,.6-.2.86-.2.46,0,.26-.13.4-.4.07-.13.2-.2.2-.4,0-.46.2-.27.4-.46.07-.07.13-.2.33-.2.13,0,.4-.13.46-.13.13-.93.53-1.26,1.26-1.79.53-.4.79-.53,1.06-1.13.2-.46.6-.6.99-.07.4.6.26,1.73.26,2.46,0,0,.46-.27.66-.27.73-.13.73-.6,1.06-1.13l.07-.4c.13-.4.66.4.73.46.33.2.07.53.2.66.07.07.6-.8.79-.46,0,0,1.06.6,1.13.6.46.13,1.06.33,1.13.8.07.4.2.8.46.93,1.06.73.79-.8,1.46-.46.4.2.6,1.06.86,1.13.26.07.79.13.93.33.2.27-.4,1.19-.13,1.19.33,0,.6-.33.66.13.07.27-.27.4-.33.46-.2,0-.93-.46-.93-.27,0,.86-.07,1,1.06,1,1.66,0,1.46,1.59,2.85,1.92.6.13.73-1.53.73-2.06,0-2.19,1.72,1.06,2.05,1.39.27.27.46-.73.46-.73.33-.2-.27-.86.07-1.19.13-.13.99.73,1.39.73.33-.46.66-1.46-.07-1.59-.6-.13-1.19-.07-.4-.86.13-.13.79-.66.13-.66-.73,0-.53-1.26-.6-1.73,0-.2-.07-.27.07-.46.66-.93.93.73,1.52.46.13-.07.2-.46.2-.53.07-.33.2.13.2.13.07.27.4.73.73.6.13-.07.73-1.19.79-1.19.13.07.6.6.79.53.13-.07,0-.6.33-.66.4-.33.4-.27.73-.46l.26-.07s.13-.46.13-.53c0-.13.27-.46.4-.46.33.07,0,1.33.66.66.07-.07.2-.2.26-.27.07-.13.2-.13.2-.27,0-.27-.13-.4-.33-.46,0,0-.33-.2-.33-.33,0-.33.13-.2.2-.4.07-.13.07-.2.07-.33,0-.2-.2-.13-.33-.27-.13-.13-.33-.4-.46-.53-.53-1.13-.86-.46-1.66-1-.33-.2-.73-.33-.73-.93,0-.46-.33-.27-.53-.6-.07-.07-.46-.4-.66-.6-.13-.13-.53-.53-.66-.66-.07-.13-.07-.46-.07-.6-.07-.2-.4-.33-.6-.46-.53-1-.86-1.46-1.66-1.99-.53-.33-1.06-.8-1.65-1-.86-.27-1.72-.73-2.52-1-.33-.07-2.18-1.39-2.45-1.79l-6.75-.46h0ZM126.95,102.11c-.95-.13-1.74-.49-2.72-.49-.29,0-.88-.23-1.15-.36-.39-.2-.75-.07-1.11-.07h-1.54l-.49.13s-.03.1-.07.13t.07.03c.07,0,.1.1.13.1.03.03.26.1.33.1.13,0,.26.13.39.16.16.03.49.07.62.16.29.2-.66.43-.72.46-.13.07-.26.07-.36.16,0,0-.07.07-.1.07s-.13.2-.16.26c-.52.13-1.21.26-1.34.82-.07.36-.46.46-.79.69-.43.3-.33.23-.85.07-.72-.23-1.8.72-1.8,1.41-.23.16-.39.36-.72.36-.16,0-.36.07-.49.13-.36.16-.56.33-.88.53-.2.13-1.05.59-.59.89.13.1.29.43.29.59,0,.2-.2.49-.26.72-.49.26-1.05.53-1.47.85-.13.1-.29.33-.43.46-.49.49-1.51.53-2.03.79-.52.26-.82,1.31-.82,2.07-.1.26-.26.59-.26.92,0,.16-.43.26-.56.36-.2.13-.33.1-.33.36,0,.56-.43,1.38-.29,1.94.03.16.66.49.79.53.03,0,.3.07.36.07.13-.03.23-.2.43-.2.07.07.33.39.36.43l.39.2c.39,0,.95-.07,1.28.16,0,0,.2.2.1.26h-.23c-.16.03-.46.16-.62.16-.1.03-.23.13-.29.13-.03,0-.26.03-.26.03v.23c0,.1.26.16.33.2,0,0,.1.07.13.07.07,0-.03.07.1.07.2,0,.43-.03.62-.03.16,0,.36,0,.49-.03h.2v.07s.07-.03,0,.1c0,.03-.23.2-.26.2-.07.03-.1.03-.16.07-.07.03-.2.2-.26.23-.07.03-.26.13-.29.2-.16,1.31.59,1.31,1.02,2.2.16.36.26.69.39,1.12.1.3.46.79.46,1.08.69.26.43,1.08.59,1.61.07.2.46.46.52.72.07.33.1.43.33.66.39.39.46.72.46,1.25,0,.39.16.69.16,1.02,0,.72.26,1.58.46,2.23.16.56.36,1.84.36,2.4,0,.39-.23,1.08-.33,1.38-.07.16-.43.95-.43,1.02-.23.26-.43.46-.33.85.07.26,0,1.12.1,1.18.07.03-.29.95-.39,1.12,0,.2-.13.49-.26.59-.03,0-.16.03-.2.03-.16,0-.13,0-.16-.07,0,0-.16-.07-.16-.1-.03-.13,0-.59,0-.76l.1-.23c.1-.1.16-.33.16-.49,0-.07-.07-.1-.07-.16,0-.1-.16-.07-.26-.07-.36,0-.79-.07-1.11-.07s-.66-.03-.85-.1c-.29-.1-.52-.39-.82-.39-.62,0-1.05-.1-1.61-.23-.46-.1-1.8-.79-2.2-.16-.46.72,1.08,1.28,1.48,1.48.43.13,1.15.43,1.64.66.33.16.72.16.95.39.43.43,2.39,1.08,3.01,1.08.33-.07.66-.26.92-.39.33-.16.23-1.02.23-1.35,0-.3.39-.89.39-1.05,0-.26-.46-.39-.46-.69,0-.82.62-.33.92-.03.23.23.95.92,1.15.99.49.33.98.62,1.31.13.07-.13-.75-1.02-.1-.62,1.05.62,1.28.07,1.28-1.15,0-.49,0-2.1-.33-2.43-.26-.26-.3-.79-.46-1.18-.14-.36-.33-1.48-.39-1.71.07-.13.03-.23.03-.39,0-.1-.03-.56-.07-.59-.23-.23-.46-.62-.46-1.02,0-.13,0-.16.1-.3.03-.07.13-.16.13-.26s-.07-.23-.07-.36.03-.26.03-.39-.13-.26-.2-.36c-.03-.07-.13-.13-.13-.23,0-.33.1-.69.1-1.02v-.79c0-.1,0-.92.07-.92.07-.07-.46-.72-.49-.79,0-.07,0-.2,0-.26,0-.03-.1-.23-.1-.3-.03-.1-.23-.2-.29-.26l-.03-.1-.06-.03-.07-.2c-.03-.07-.07,0-.07-.13,0-.1-.1-.23-.1-.33,0-.07-.13-.23-.13-.33v-.13c0-.07-.07-.07-.1-.13-.03-.07-.13-.16-.13-.23,0-.03-.1-.07-.1-.07-.03-.03-.07-.13-.07-.16-.1-.56-.33-1.81-.75-2-.52-.26-.59-.85-1.21-1.08-.36-.13-.79-.26-1.11-.43-.95-.46.56-.85.2-1.22-.2-.2-.69-.66-.39-.66s.59-.03.85-.03c-.03-.16.13-.1.33-.1.26,0,.59-.03.85-.03.29,0,.46-.13.46-.43,0-.36-.16-.3-.49-.3-.46,0-1.11-.03-1.54-.13-.13-.03-.33-.1-.29-.26.07-.26.82-.03.95,0,.49.16.95.16,1.44-.03.16-.07.33-.2.52-.26.2-.07.43-.1.62-.2.26-.16.98-.46,1.08-.82.07-.2.69-.16.69-.33,0-.13,0-.39-.16-.39-.39,0-.98-.13-1.38-.23-.16-.03-.49-.07-.69-.1-.2-.03-.43-.23-.59-.23,1.25-.39,2.92-1.02,4.13-1.31.33-.07.85-.33,1.21-.33.16,0,.59.53.75.2.43-.85,1.21-.99,2.23-.99.56-.07.66-.03.66-.62,0-.49-.1-.99.43-1.12.16-.03.62.03.66-.07.07-.13.39-.56.03-.56-.29,0-.56.07-.82,0-.13-.03-.23-.46-.23-.59,0-.2-.1-.46.26-.46.1,0,.43.03.49,0,.26-.16.69-.2.88-.39.16-.16-.39-.49-.43-.49-.16-.07-.29-.23-.36-.36-.13-.3.46-.3.62-.3.26,0,.52-.03.79-.03h.66c.29,0,.13-.66.13-.82s.03-.07.1-.1c.03-.03.1-.16.16-.2.1-.07.13-.13.13-.26,0-.03-.03-.13-.03-.2,0-.2-.07-.26-.26-.3-.03,0-.29-.07-.33-.1-.07-.03-.03-.07-.16-.07h-.16c-.13,0-.3-.1-.43-.13-.13-.03-.3.03-.43-.07-.23-.03-.52-.2-.75-.23-.52-.07.36-.26.52-.26.56,0,1.05.23,1.57.23.23,0,.52-.07.75-.07.07,0,.29,0,.33-.1.03-.1-.26-.33-.43-.26h0ZM112.45,100.26c-.2.55-.65,1.05-1.07,1.48-.1.1-.65.85-.28.93.22.04.42.28.73.08.2-.14.42-.34.55-.55.24-.4.08-.65.08-1.09,0-.24.06-.53,0-.85h0ZM112.03,98.97c-.55.04-1.32.47-1.5,1.01-.08.28-.04.63-.22.89-.24.36-.28.69-.08,1.11.24.49.59.2.59-.3,0-.47,1.03-.71,1.09-1.17.04-.28.2-.59.2-.89,0-.22-.06-.42-.08-.65h0ZM110.92,98.6c-.3.12-.69.45-.79.79-.1.4-.51.63-.63.97-.06.18-.34.81-.49.95-.3.3-.93.91.06.63.4-.1.61-.57.77-.89.1-.22-.1-.55.12-.77.22-.22.47-.59.61-.87.04-.1.49-.79.34-.81h0ZM109.74,94.82c-.14-.43-.18-.36-.65-.36-.34,0-.24.16-.41.32-.12.12-.83-.16-1.11-.1-.49.12-1.03.3-1.52.3-.3,0-.49.06-.75.1-.26.04-.55.51-.71.51-.34.34-1.13.55-1.58.71-.28.1-.36.41-.32.75.02.22.45.51.45.75-.08.1.51.81.51,1.17,0,.38.02.47.4.61.67.26.99.73,1.44,1.17.14.14.77.89.97.89,1.72.65,3.06-2.65,4.25-3.6.57-.45,1.3-1.44,1.09-2.25-.12-.55-1.66-.83-2.06-.97h0ZM107.17,94.07c-.18,0-.47-.08-.69-.08-.28,0-.91.06-1.05.3-.1.16.12.43.24.45.34.08.95-.04,1.25-.22.14-.08.38-.02.53-.16.1-.1-.28-.2-.28-.28h0ZM107.48,93.02c-.1.08-.22.18-.32.26-.08.06-.18.16-.22.24-.02.04-.06.04,0,.04.08.02.04.06.12.06.16,0,.79-.16.83-.34,0-.06.02-.18.02-.22,0-.02.02-.1.02-.12s-.18-.02-.2-.02c0,0-.06.06-.08.06s-.04.04-.04.06l-.12-.02h0ZM106.77,92.75c-.18.08-.4.16-.59.2-.18.04-.36.2-.53.24-.12.02-.36.1-.51.1-.24.02-.55.16-.12.26.28.06.73,0,.99-.06.2-.04.81-.53.75-.75h0ZM115.79,95.93c.2-.32.38-.61.53-.97.02-.06.32-.57.14-.53-.36.08-.95.28-1.32.28-.38,0-.81-.02-1.13-.02-.65.32-.67,1.6-.51,2.29.18.75-.2,1.03-.2,1.7,0,.4-.04,1.07.08,1.46.14.42.4-.63.47-.75.3-.61,1.15-1.25,1.32-1.92.1-.4.65-1.15.63-1.54h0ZM125.32,98.2c-.6.1-.77.67-1.46.46-.31-.1-1.34-.22-1.51.14-.12.24.36.58.48.67.12.1.43.24.53.34.14.14.24.41.43.51.82,0,1.58.65,2.4.65.58,0,1.2.39,1.82.39,1.15,0,.41-2.24-.46-2.53-.41-.12-.96-.12-1.18-.53-.31-.58-.84-.14-1.06-.1h0ZM129.14,95.15c0-1.66-1.32-.84-2.33-.84-.43,0-1.01.17-1.42.22-.22.02-1.3.43-1.1.63-.05.46.24.36.62.46.26.05.67.02.96.07.29.05.5.34.86.34.14,0,.53-.12.72-.14.46-.07,1.1-.46.26-.46-.12,0-.29-.02-.41-.02-.24,0-.41-.36,0-.36.36,0,.86-.07,1.03.29.17.36.74.05.96-.02l-.17-.14h0ZM135.11,75.07c.09,0,.26.22.39.22.04,0,.26.13.26.22v.22c0,.18-.09.22-.09.31,0,.04-.18.26-.26.26-.13,0-.39.22-.48.31-.09.09-.09.57-.09.7,0,.31-.13.44-.26.66-.04.04-.22.35-.31.44-.13.13-.31.22-.39.4-.35.53.26.22.26.66,0,.22-.09.44-.31.44-.48,0-.26.09-.35.44,0,.13-.22.35-.22.44-.09.4-.83.22-1.14.18-.31-.04-.09.48-.04.53.31.31.44.26.09.79,0,.18-.18.39-.31.48-.04,0-.09.13-.09.13-.04.04-.09,0-.17.09-.04.04-.26.13-.26.13-.09,0-.26.09-.31.18-.09.13-.22.31-.31.44-.04.09-.48.57-.57.57l-.35.04s-.22.66-.22.7c0,.35.26.53.26.92,0,.18-.53,1.01-.61.7-.04-.13-.31-.44-.35-.53-.96-1.45-.88.88-.88,1.54,0,.83-.44.92-1.14.96-.26.13-.83.57-1.14.61-.31.04-.79-.66-1.14-.31-.13.13-.22.48-.53.48-1.14,0-2.28,0-3.37-.09-.04-.09-.26-.18-.39-.22-.04,0-.13-.18-.18-.18-.13-.04-.44-.18-.48-.35,0-.13-.18-.22-.22-.31v-.18h-.09v-.09c0-.13-.09-.04-.09-.13,0-.04-.09-.18-.09-.22-.04-.13-.13-.61.09-.61h.35c.13,0,.22-.22.22-.35s.09-.35.26-.35h.35l.7-.31c.22,0,.53.04.57-.18.04-.13,0-.13.04-.22.04-.09.44-.88.48-.88s.39.09.44.09c.13,0,.18.04.26.09l.22.09s.09,0,.13.04c.04.04.18.09.22.09.31.13.17.26.35,0,.18-.22.22-.18.22-.53.35,0,.53-.4.61-.75,0-.13.13-.04.26-.04s.31-.04.44-.04c.17-.04.39.09.57.09.13,0,.26.04.39.04.04-.18.22-.31.26-.44,0-.04.18-.44.13-.53-.04-.09-.17-.09-.22-.22l-.22-.22c-.17-.04-.31.13-.39.18l-.09.09s-.22-.04-.22-.04c-.13-.04-.39-.18-.57-.22-.04-.04-.39-.18-.39-.26-.04-.13.04-.35.09-.44.13-.31.35-.61.66-.66l.17-.04c.09,0,.22-.22.22-.31s.09-.22.09-.26c.18-.26.09-.88.39-1.18q.09-.09.18-.13v-.09l.13-.04c.09-.04.35-.09.35-.22,0-.18,0-.48.13-.53.04,0,.09-.09.13-.09.04-.04.22-.13.26-.18.13,0,.39-.22.39-.26s-.09-.09-.09-.13v-.13s.09-.13.09-.22c0-.22.61-.09.7-.18.09-.09.04-.13.09-.13s.18.04.18-.04.09-.22.09-.31c0-.13.22-.18.39-.18l.13.22v.44s0,.18-.04.22c-.09.09-.18,0-.22.04-.09.04-.13.13-.26.13h-.13v.31l.04.04.04.09v.09h.39s.13-.04.18-.04c.09,0,.18-.04.26-.04,0-.22.09-.04.13-.22v-.09h.04l.09-.04s.04-.13.09-.13c.13-.04,0,.04.13-.04.04-.04.09-.13.18-.18.04,0,.22.04.31-.04v-.09h.04l.09-.04v-.26l-.09-.04-.04-.04h-.09v-.09h-.22c0-.09.13-.22.17-.31,0-.17.09-.79.18-.88.26-.26,0-.57.13-.83.04-.13.17-.22.17-.35,0-.04.13-.18.13-.22s.13-.22.18-.22c.09,0,.26-.04.39-.04.17,0,.09-.09.26-.09.13,0,.31-.04.44-.04.18,0,.09-.04.18-.09.09-.04.09-.09.26-.09.09-.04.39-.35.53-.35l.35-.04c.09.09.04.18.22.18s.39,0,.52.09c.04,0,.44.22.44.22,0,0,.04.13.09.13.35.18.31.79.13,1.32h0ZM126.4,87.22c-.84,0-1.03.61-.26.61.04,0,.17-.04.22-.04.7,0,.3-.4.04-.57h0ZM118.61,88.85c-.17-.31-.31-.83-.61-.88-.18-.04-.18,0-.31.09-.09.04-.26.35-.26.48v.22h.09c.09,0,.13.48.13.53,0,0,.18.22.22.22.17.13.57.61.79.66.13,0,.39.13.52.18l.17-.13.04-.04v-.44c0-.09-.04-.26-.09-.31-.13-.13-.17-.09-.17-.09-.04,0-.13-.04-.18-.04l-.04-.13h-.09l-.04-.04-.04-.09s-.22-.13-.13-.18h0ZM123.73,82.05l-.09.09c-.18.36-.31.52-.31.92v.35l.09.04.09.04h.26c.13,0,.13-.13.18-.18.09-.09.09,0,.18-.13l.09-.18c0-.52-.06-.54-.48-.97h0ZM130.82,73.29c-.12,0-.25.03-.36.03-.02,0-.12.2-.13.21-.03.06-.25.36-.24.42.02.08.19.1.28.1.08,0,.21-.14.27-.2.1-.1.27-.13.31-.29.02-.08.05-.07,0-.14-.03-.06,0-.1-.13-.14h0ZM118.54,75.43c0-.09,0-.2-.04-.26-.04-.07-.06-.02-.07,0-.11.07-.28.39-.28.54,0,.07-.04.15-.06.22-.02.07,0,.15,0,.22,0,.04.04.07.04.13,0,.04.04.07.07.09.11.07.37-.3.37-.41,0-.06.04-.07.04-.09,0-.13-.04-.24-.07-.45h0ZM117.08,75.01c-.09,0-.22.07-.28,0-.13-.19-.48-.2-.61-.02-.2.32.13.95.39,1.1.04.02.32.04.37.04.09,0,.8-.45.82-.54.07-.22.3-.91-.07-1-.3-.07-.48.24-.7.24-.04,0-.28.04-.13.07.07.02.19.02.22.11h0ZM114.96,75.21c-.15-.02-.48-.09-.57,0-.11.11.06.67.15.76.13.13.46.09.63.09.11,0,.37.02.46,0,.19-.06.09-.5-.02-.61-.07-.07-.19-.22-.3-.28-.07-.04-.2,0-.35.04h0ZM113.28,75.21c-.09-.19-.54-.74-.74-.74-.17,0-.24-.07-.3.13-.04.15.15.19.19.28.06.13.19.22.28.33.07.09.19.17.26.24.13.13.2.32.39.39.28.11.45.22.45-.2,0-.19-.41-.37-.52-.43h0ZM111.07,73.33s-.09-.07-.13-.09c-.02,0-.04-.06-.06-.06h-.26s-.09.07-.15.07c-.02,0-.07.04-.09.07-.06.13-.13.24-.13.39,0,.06-.02.11-.02.17v.09s.04.02.06.07c.02.04.06.2.09.22.04.02.13.06.17.09.06.06.2.11.28.04.09-.09.04-.37.07-.48.02-.06.02-.19.04-.24.02-.04.09-.09.11-.13.06-.12.02-.02.02-.22h0ZM107.96,71.96s-.22-.3-.28-.24c-.06.06-.2.41-.2.5,0,.3.13.54.17.84.02.19.17.3.24.43.35.52.43-.41.43-.65,0-.09-.15-.26-.15-.37s-.07-.37-.2-.5h0ZM107.09,70.64c-.2-.11-.2-.06-.31.11-.26.39-.35.65-.35,1.15,0,.28.2.71.2.97,0,.13.26.46.35.46.24,0,.13-1.25.13-1.43,0-.41-.11-.91-.02-1.26h0ZM106.23,69.84c-.56,0-1,.43-1.13.95-.06.24-.28.63-.2.97.06.24.43.48.57.17.09-.19.19-.41.32-.46.3-.15.41-.5.44-.8.02-.17.17-.78,0-.82h0ZM103.69,68.02c-.23-.04-.57-.12-.82-.04.04-.21.03-.4-.24-.35-.45.07-1.21-.24-1.37-.59-.28-.56-.82-.46-1.24-.89-.07-.04-.17-.15-.22-.22-.04-.06-.19-.11-.28-.11-.07,0-.2-.09-.28-.13-.04-.02-.13-.07-.15-.07s-.11-.13-.13-.13c-.13-.04-.2-.2-.37-.32-.37-.24-.63.22-.89.22-.24,0-.32.33-.32.56,0,.32.39,1.06.65,1.19.07.04.37.37.46.46.22.2.52.43.8.56.17.07.22.39.46.39.5.19.76.69,1.3.78.54.09.78.71,1.32.17.03-.03.07-.09.1-.16.1.25.37.42.55.62.15.19.35.35.5.59.11.19.28.6.5.71.46-.26,1.48-1.23,1.48-1.82,0-.39-1.43-1.39-1.82-1.41h0ZM96.76,63.78c-.07-.13-.13-.22-.22-.32-.04-.04-.11.04-.17.07-.13.09-.31.19-.46.26-.22.13.02.43.02.61,0,.26.5.33.37.61-.02.13-.04.28-.04.41s0,.17.11.2c.19.07.39.11.52-.09.02-.04.07,0,.11-.06.04-.06.13-.22.13-.3,0-.19.02-.33,0-.52-.02-.19-.22-.84-.37-.89h0ZM91.13,60.73c-.35,0-1.09-.04-1.4.09-.13.04-.31.04-.31.26,0,.09-.04.18.09.18.22,0,.57.13.79.18.04,0,.09.09.09.09.09.04,1.18.04,1.27-.04v-.31c-.04-.09-.18-.04-.18-.04-.04,0-.13-.09-.17-.09-.09,0,.04-.09-.13-.09-.13,0-.13-.04-.04-.22h0ZM91.31,59.72s-.09-.18-.18-.22c-.04,0-.13-.04-.17-.04s-.04-.13-.09-.13l-.13-.04s-.09-.09-.13-.09h-.13s-.13-.04-.13-.04l-.04-.09v.26h.13l.04.09h.09v.09l.04.04v.04l.04.09s.18.13.18.22c.04.18.13.09.17.18.04.09-.04.09.13.13h.22l.04-.09v-.09s0-.22-.09-.31h0ZM128.51,69.19c-.18,0-.49,0-.67.04-.16.05-.34-.02-.54-.02-.11,0-.83-.02-.79.23,0,.09.29.34.38.36.16.02.25.02.25.25-.27.09-.63.22-.83.36-.16.11-.09.49.16.49.22,0,.99.02.99.29,0,.25-.13.22-.31.36-.11.09-.38.29-.52.29-.07.02-.31.16-.31.18,0,.07-.04.05-.09.11,0,0,.07.23.07.27.18.79.88.2,1.26-.04.18-.11.7-.27.94-.27s.49-.23.49-.47c0-.4-.74-.02-.74-.4,0-.32.11-.29.4-.29.25,0,.47-.16.63-.16.11-.04.25-.11.34-.16.11-.07.25-.14.25-.25v-.11s-.04-.02-.04-.02c-.02,0-.05-.04-.05-.07-.02-.09-.11-.18-.16-.25v-.07s-.07-.02-.07-.04c-.05-.09-.18-.16-.2-.25,0-.05-.09-.2-.11-.25-.07-.11-.52-.07-.72-.11h0ZM125.48,57.99h-.18l-.05.02v.02l-.02.05-.02.04v.16l.02.04.02.02s.11.07.16.09c.02,0,.09.02.11.02.05-.02,0-.02.05-.11,0-.02.02-.07.02-.07v-.11s-.07-.11-.11-.18h0ZM128.85,60.65h-.2s-.07.05-.09.05-.07.02-.07.04v.07l.02.04.07.09.02.02v.05l.04.02.09.09.07.05.04.02h.02l.02.02.04.02s.11-.04.11-.04c0-.02.04-.07.04-.09,0-.07-.07-.16-.09-.22,0-.02-.05-.07-.05-.07v-.02l-.02-.02v-.04s-.13,0-.09-.07h0ZM126.27,61.66s-.11.02-.16.02c-.02,0-.07.02-.07.02h-.02l-.04.02-.04.02-.07.07v.2l.04.02.16.05s.04-.05.09-.05l.11-.05.02-.07v-.05l.02-.02v-.09s-.04-.07-.04-.11h0ZM125.3,61.23c-.11,0-.27,0-.36.05-.02,0-.09.09-.11.11-.04.02-.16.11-.16.18l-.02.2h.09l.13.09c.07,0,.25,0,.29-.02.11-.05.36-.09.36-.27s-.07-.07-.11-.16l-.02-.04s-.04-.05-.04-.09-.02-.07-.04-.05h0ZM127.66,62.07s-.23-.1-.23-.02c0,.13.08.36.21.38.06,0,.1.08.13.13.08.17.19.36.19.59v.08c0,.08,0,.06-.04.08-.02,0-.06.11-.08.11-.02.02-.13.04-.17.04-.13.02-.15.04-.25.04h-.27c-.13,0-.04-.02-.08-.04-.06-.04-.1-.02-.1-.02-.15-.02-.25-.25-.36-.36,0,0-.04-.02-.04-.04-.04-.06-.13.02-.17.04-.04.02-.13.04-.13.06v.04c0,.13-.17.29-.04.42.02.02.04.08.08.08.06,0,.08.11.15.15.04.02.13.1.15.1.21.04.48.21.71.21h.13c.1,0,.25.1.29.15.06.06.13.21.15.31.04.17-.21.23-.33.23h-.17s-.1-.06-.15-.06l-.15-.04v-.04l-.13-.06-.02-.02s-.15-.08-.21-.11c-.06-.02-.08-.02-.15-.04h-.1s-.06.1-.06.17c0,.04.15.15.19.19-.04.17-.23.34-.23.52,0,.15,0,.19.13.21.02,0,.19.19.19.23,0,.21-.23.21-.4.21-.15,0-.34-.08-.36.08-.08.44.88.52,1.19.52.48-.13-.02-.44.21-.52.08-.02.13-.08.19-.13h.25c.21,0,.63-.23.71-.46.06-.17.15-.38.19-.55.06-.21.02-.36.19-.52.1-.15.52-.59.52-.71,0-.27.06-.29.17-.52.04-.1.21-.15.29-.23.15-.15.17-.4.1-.55-.08-.17-.27-.15-.48-.19-.17,0-.33-.04-.5-.04-.36,0-.98.06-1.3-.11h0Z"/>
      <path class="cls-2" d="M207.72,34.38l-6.92,6.24c-1.64,2.01-1.17,4.46,1.42,7.34,2.55,2.86,5.81,4.36,8.71,2.16l6.51-5.96-1.71-1.67-6.23,5.75c-2.61,2.13-4.33.73-6.43-1.27-1.93-2.32-1.67-4.2.08-5.75l6.07-5.3-1.51-1.55h0ZM182.09,16.55l-7.25,11.1,8.48,4.8.75-1.15-6.59-3.74,6.59-9.91-1.98-1.1h0ZM168.39,6.07l-.48,1.36,1.71.7.48-1.28-1.71-.79h0ZM165.01,4.76l-.48,1.36,1.71.7.48-1.28-1.71-.79h0ZM160.31,6.82l-3.56,7.92c-1.06,2.89-.24,4.58,3.47,6.52,3.83,1.63,7.94,2.01,9.18-1.28l3.73-8.1-1.93-.92-3.78,8.06c-1.47,2.65-3.64,2.15-6.46,1.14-2.42-1.14-3.07-2.94-1.98-5.37l3.25-7-1.93-.97h0ZM142.96,2.47l-3.56,12.72,9.66,2.16.31-1.32-7.55-1.59,3.21-11.45-2.06-.53h0ZM121.75.04l2.37.09,3.43,6.12,4.96-5.46,2.46.35-6.63,6.91-.66,5.59-2.24-.04.88-5.81L121.75.04h0ZM103.79.57l.31,13.3,10.1-.7v-1.15l-7.99.35-.09-4.8,7.29-.48-.04-1.1-7.25.31-.04-4.62,7.95-.44-.04-1.23-10.19.57h0ZM70.72,8.32l10.63-3.61.4,1.32-5.84,13.12,8.52-2.99.31,1.36-11.07,3.7-.31-1.5,5.84-13.03-8.08,2.77-.4-1.14h0ZM49.37,18.18c.7-.34,1.41-.67,2.11-1.01,1.04,2.38,2.08,4.75,3.12,7.13,1.15,2.73,3.21,3.1,5.89,1.85,2.48-1.13,3.82-2.85,2.68-5.86-1.16-2.51-2.31-5.02-3.47-7.53.67-.34,1.35-.67,2.02-1.01,1.21,2.73,2.43,5.46,3.64,8.19.99,3.17-.41,5.29-3.16,6.82-5,2.8-7.68,2.15-9.05-.44-1.26-2.72-2.52-5.43-3.78-8.15h0ZM39.54,24.57l-1.36,8.89,9.57,1.54,2.02-1.5-9.93-1.54,1.71-8.94-2.02,1.54h0ZM32.72,29.78l1.79-1.3,7.42,10.87-1.75,1.34-7.46-10.91h0ZM17.42,44.36c-1.62,2.31-1.62,5.11-.16,7.53,2,2.72,4.53,3.57,7.13,2.75,3.28-1.5,6.12-3.72,7.23-7.68.94-3.44-.71-5.68-2.47-7.03-5.02-3.13-9.01.24-11.73,4.42h0ZM18.84,44.66c-1.22,1.75-1.04,4.17.08,6,1.51,2.06,3.85,2.89,5.81,2.27,2.49-1.13,4.29-2.7,5.14-5.7.71-2.6-.62-4.6-1.95-5.62-3.8-2.37-7.01-.12-9.07,3.05h0ZM1.96,66.85l8.76,6.52,1.95-3.18c1.22-1.98,1.78-3.79,1.66-5.44-.11-1.65-.87-3-2.28-4.05-.71-.53-1.48-.84-2.3-.91-.82-.08-1.65.07-2.47.44-.62.28-1.19.68-1.7,1.22-.52.53-1.15,1.39-1.88,2.59l-1.74,2.82h0ZM0,67.59l2.73-4.43c.76-1.22,1.47-2.18,2.15-2.89.68-.71,1.4-1.24,2.16-1.59,1.06-.51,2.13-.73,3.19-.66,1.05.07,2.01.42,2.86,1.06.95.71,1.66,1.63,2.1,2.76.45,1.13.62,2.37.51,3.73-.08.89-.29,1.77-.62,2.64-.33.87-.99,2.1-1.97,3.69l-2.31,3.74L0,67.59h0ZM221.03,224.28l-1.23,1.43,1.13.97,1.34-1.53-1.23-.87h0ZM210.57,214.22l-1.33,1.68,9.57,8.96,1.42-1.58-9.66-9.06h0ZM222.21,201.56c-.47-.23-.94-.47-1.42-.7-1.97,1.68-3.39,3.65-4.01,6.04-.67,2.38,1.84,4,3.9,3.33,2.05-.6,3.9-1.66,5.71-2.04,1.14-.41,2.51.45,1.97,2.19-.51,1.59-1.63,2.85-2.97,4.01.5.25.99.5,1.49.74,1.41-1.55,2.55-3.23,3.13-5.22.66-2.71-1.22-3.86-3.23-3.57-2.05.4-3.71,1.09-5.2,1.93-2.86.93-3.51-1.08-2.83-2.81.7-1.62,2-2.82,3.47-3.89h0ZM228.79,184.99l-4.49,9.28,1.06.79,3.6-7.58,4.24,2.32-3.25,6.58,1.01.7,3.22-6.55,4.21,2.14-3.57,7.22,1.01.64,4.54-9.29c-3.87-1.79-7.74-3.88-11.6-6.26h0ZM233.69,172.24l-.88,2.29,11.42,4.27-1.67,4.58,1.27.44,3.73-11.49-1.27-.35-1.63,4.93-10.98-4.67h0ZM251.04,162.81l-.4,1.85,1.45.31.44-1.98-1.49-.18h0ZM237.03,159.03l-.35,2.11,12.69,3.26.48-2.07-12.82-3.3h0ZM241.11,142.3c-.53.01-1.05.03-1.58.04-.95,2.41-1.28,4.81-.7,7.22.53,2.41,3.5,2.66,5.01,1.1,1.52-1.5,2.67-3.3,4.08-4.49.8-.9,2.43-.78,2.77,1.01.29,1.64-.1,3.29-.75,4.93.56-.02,1.11-.03,1.67-.04.51-2.03.73-4.05.31-6.07-.7-2.7-2.89-2.83-4.52-1.63-1.63,1.31-2.77,2.71-3.69,4.14-2.08,2.17-3.6.7-3.82-1.14-.14-1.76.44-3.43,1.23-5.06h0ZM239,124.77l13.31.04.26,6.87c.02,5.77-7.49,4.27-7.03-1.06l-6.19,4.97.04-2.33,6.81-5.42.04,2.29c.09,3.46,4.79,5,5.05.57l-.13-3.83-12.12-.18-.04-1.94h0ZM236.15,106.68l1.93,10.13h1.32l-1.63-8.23,4.79-.66,1.32,7.22,1.23-.04-1.32-7.18,4.66-.79,1.45,7.93,1.19-.09-1.89-10.17c-4.17.87-8.52,1.5-13.04,1.89h0ZM242.39,83.92l-.75-2.16-10.32,9.64.75,2.33,15.11,3.17-.62-2.02-13.48-2.42,9.31-8.54h0ZM238.34,72.29l1.37-.73.86,1.73-1.28.69-.95-1.68h0ZM237.14,72.6l-11.9,5.62.97,2.12,11.97-5.73-1.04-2.01h0ZM212.79,59.14l11.28-7.2,1.5,2.18-4.01,13.99,9.54-6.11,1.22,1.6-11.26,7.1-1.59-2.18,3.93-14.07-9.44,6.03-1.17-1.34h0ZM214.31,37.76l.98-.9,1.38,1.43-.98.9-1.38-1.43h0ZM211.67,35.19l.98-.9,1.38,1.43-.98.9-1.38-1.43h0Z"/>
      <path class="cls-2" d="M75.02,221.23h1.35l-.05,1.08h-1.35l.05-1.08h0ZM154.59,231.61v.89h6.62v-.82h-4.83v-.22c1.52-1.33,2.97-2.73,4.28-4.26,1.3-1.48,1.06-3.18.03-3.63-1.9-.66-3.7-.57-5.47-.27l-.05.88c1.43-.57,6.69-.63,4.49,2.45-1.65,1.68-3.34,3.34-5.07,4.98h0ZM146.11,227.83c-1.82-1.05-1.62-2.84-.76-3.82,1.02-1.15,3.92-1.35,5.13-.41,1.27.98,1.55,2.92-.83,4.13,3.16.92,2.22,4.85-1.6,4.97-5.08.08-4.5-4.36-1.94-4.87h0ZM148.01,223.87c1.19,0,2.16.79,2.16,1.76s-.97,1.76-2.16,1.76-2.16-.79-2.16-1.76.97-1.76,2.16-1.76h0ZM147.88,228.14c1.33,0,2.42.82,2.42,1.83s-1.09,1.82-2.42,1.82-2.42-.82-2.42-1.82,1.09-1.83,2.42-1.83h0ZM138.8,227.5c-.23.35-.46.69-.69,1.04-2.47.07-4.39-.4-4.12-2.81.27-1.96,2.1-2.95,4.41-2.72,1.7.18,3.62,1.33,2.16,5.27-.69,1.5-1.62,2.88-2.63,4.21h-1.8c1.43-1.59,2.7-3.27,3.55-5.19.65-1.87.13-3.33-2.21-3.46-1.22-.04-2.16.84-2.2,2.19.02,1.63,2.12,2.03,3.54,1.48h0ZM125.72,224.94v-.94l1.24-.83h1.26l-.29,9.28h-1.43l.35-8.07h-.14l-.99.57h0ZM117.75,228.54h3.75v.86h-3.75v-.86h0ZM112.96,223.16h-3.72l-.3,9.36h1.3l.24-8.57h2.46c1.54.13,1.8.87,1.79,1.5,0,.56-.18,2.01-1.97,2.07h-1.52l.03.19,3.12,4.73h1.46l-2.89-4.15v-.19c2.71-.23,3.11-1.86,3.11-2.66,0-.85-.49-2.25-3.13-2.28h0ZM104.28,221.23h1.35l-.05,1.08h-1.35l.05-1.08h0ZM105.54,223.15l-.4,9.4h-1.35l.4-9.4h1.35ZM92.15,223.19l3,7.91,3.72-7.91h1.79l-.04,9.32h-1.2l.15-7.88h-.3l-3.51,7.84h-1.5l-2.69-7.84h-.3l-.55,7.88h-1.2l.85-9.32h1.79ZM79.68,223.15h7.27v1.09l-6.4,7.42h5.98v.89h-7.65v-.8l6.38-7.52v-.19h-5.56l-.02-.89h0ZM76.29,223.15l-.4,9.4h-1.35l.4-9.4h1.35Z"/>
    </g>
  </g>
</svg>