<?xml version="1.0" encoding="utf-8"?>
<!-- Generator: Adobe Illustrator 26.0.3, SVG Export Plug-In . SVG Version: 6.00 Build 0)  -->
<svg version="1.0" id="katman_1" xmlns="http://www.w3.org/2000/svg" xmlns:xlink="http://www.w3.org/1999/xlink" x="0px" y="0px"
	 viewBox="0 0 635.9 462.6" style="enable-background:new 0 0 635.9 462.6;" xml:space="preserve">
<style type="text/css">
	.st0{clip-path:url(#SVGID_00000062873224440178209930000000607318274473626500_);}
	.st1{clip-path:url(#SVGID_00000019666502785599544350000001024269472855136645_);fill:#231F20;}
	.st2{clip-path:url(#SVGID_00000019666502785599544350000001024269472855136645_);fill:#FF5100;}
	.st3{opacity:0.4;clip-path:url(#SVGID_00000018224100003530947880000016204316783603430831_);}
	.st4{clip-path:url(#SVGID_00000052788367459861690320000009854504681900761785_);}
	
		.st5{clip-path:url(#SVGID_00000084491638539584444780000014426566545283415456_);fill:url(#SVGID_00000145774144256056731180000011330673783662443949_);}
	.st6{opacity:0.6;clip-path:url(#SVGID_00000013889135870671469670000012602339879839948951_);}
	.st7{clip-path:url(#SVGID_00000082357332858399747750000009604548146984597380_);}
	.st8{filter:url(#Adobe_OpacityMaskFilter);}
	
		.st9{clip-path:url(#SVGID_00000170997377041362691240000017986472810967767457_);fill:url(#SVGID_00000089572317919843810230000012779806081460770236_);}
	
		.st10{clip-path:url(#SVGID_00000170997377041362691240000017986472810967767457_);mask:url(#SVGID_00000098189299994581608730000014842807657947652759_);fill:url(#SVGID_00000039855329230440081230000016396621411289843078_);}
	.st11{opacity:0.3;clip-path:url(#SVGID_00000080888880124733032320000016361848495351700642_);}
	.st12{clip-path:url(#SVGID_00000148620763218424198070000018127625735333909649_);fill:#FFFFFF;}
	.st13{filter:url(#Adobe_OpacityMaskFilter_00000157998429294669335060000000477559417720510883_);}
	
		.st14{clip-path:url(#SVGID_00000102538282436495298720000018202607729065681576_);fill:url(#SVGID_00000018955568466478126110000013805135716265776774_);}
	
		.st15{clip-path:url(#SVGID_00000102538282436495298720000018202607729065681576_);mask:url(#SVGID_00000004545432578474063360000005572291477996938896_);fill:url(#SVGID_00000036958556928140977070000011402561732906682554_);}
	.st16{clip-path:url(#SVGID_00000098917730392984476810000014611221802362415511_);fill:#FFFFFF;}
	.st17{opacity:0.5;clip-path:url(#SVGID_00000014630901576923165640000013370813094890279552_);}
	.st18{clip-path:url(#SVGID_00000125564291483218002770000012704442349859488677_);fill:#FFFFFF;}
	.st19{opacity:0.3;clip-path:url(#SVGID_00000014630901576923165640000013370813094890279552_);}
	.st20{clip-path:url(#SVGID_00000172412821029953016790000000242435481328044935_);fill:#FFFFFF;}
	.st21{clip-path:url(#SVGID_00000040548759009266597940000013742613374270364807_);}
	.st22{clip-path:url(#SVGID_00000024701658523504341800000010347805300985965986_);}
	.st23{opacity:0.6;clip-path:url(#SVGID_00000158740909193904888720000005406955229039657090_);}
	.st24{clip-path:url(#SVGID_00000147188377703460094070000006770979532464223935_);}
	.st25{clip-path:url(#SVGID_00000131344736535356595550000012154687530248667033_);}
	.st26{clip-path:url(#SVGID_00000040548759009266597940000013742613374270364807_);fill:#231F20;}
	.st27{clip-path:url(#SVGID_00000040548759009266597940000013742613374270364807_);fill:#FF5100;}
</style>
<g>
	<defs>
		<rect id="SVGID_1_" x="13.9" y="64" width="608.1" height="334.6"/>
	</defs>
	<clipPath id="SVGID_00000030468193348322881350000008617312223042180743_">
		<use xlink:href="#SVGID_1_"  style="overflow:visible;"/>
	</clipPath>
	<g style="clip-path:url(#SVGID_00000030468193348322881350000008617312223042180743_);">
		<defs>
			<rect id="SVGID_00000013155755182116125740000000294234916197590680_" x="13.9" y="64" width="608.1" height="334.6"/>
		</defs>
		<clipPath id="SVGID_00000078006296104964922550000003840955994643604864_">
			<use xlink:href="#SVGID_00000013155755182116125740000000294234916197590680_"  style="overflow:visible;"/>
		</clipPath>
		<path style="clip-path:url(#SVGID_00000078006296104964922550000003840955994643604864_);fill:#231F20;" d="M450.4,252.8
			c2.4,0,4.2,0.1,6,1.9c1,1.1,2.3,3.2,2.3,6.7c0,1-0.1,4.2-2.3,6.7c-0.3,0.3-1.1,1.1-2.2,1.6c-1.2,0.4-2.3,0.5-4.6,0.5H445v-17.3
			H450.4z M446.7,268.7h2.6c2.3,0,3.7-0.1,4.6-0.5c2.3-1.1,3.1-4.2,3.1-6.7c0-1.7-0.6-5.8-3.5-6.8c-1-0.3-1.8-0.3-3.8-0.3h-3V268.7z
			"/>
		<polygon style="clip-path:url(#SVGID_00000078006296104964922550000003840955994643604864_);fill:#231F20;" points="467.3,270.1 
			467.3,252.8 478.6,252.8 478.6,254.3 469,254.3 469,260.5 477.7,260.5 477.7,262 469,262 469,268.6 479.3,268.6 479.3,270.1 		"/>
		<path style="clip-path:url(#SVGID_00000078006296104964922550000003840955994643604864_);fill:#231F20;" d="M500.4,261.1v9.1h-1.4
			v-2.9c-1,2.5-3.1,3.3-5.2,3.3c-5.3,0-7.4-4.5-7.4-9c0-4,1.8-9.2,7.8-9.2c4.4,0,5.7,2.9,6.4,4.4l-1.6,0.8c-0.5-2-1.8-3.9-4.7-3.9
			c-3.3,0-6.2,2.5-6.2,7.8c0,5,2.3,7.6,5.7,7.6c1,0,5.2-0.2,5.2-6.5h-6.4v-1.5H500.4z M497.7,248.8c-0.6,1.3-1,2.3-2.2,2.3
			c-1.1,0-2.6-1.3-3.3-1.3c-0.7,0-0.9,0.6-1.1,1.3l-1-0.3c0.1-0.4,0.7-2.5,2.3-2.5c1.2,0,2.5,1.3,3.2,1.3c0.7,0,1-0.6,1.2-1.2
			L497.7,248.8z"/>
		<polygon style="clip-path:url(#SVGID_00000078006296104964922550000003840955994643604864_);fill:#231F20;" points="509.4,270.1 
			509.4,252.8 520.7,252.8 520.7,254.3 511,254.3 511,260.5 519.8,260.5 519.8,262 511,262 511,268.6 521.3,268.6 521.3,270.1 		"/>
		<path style="clip-path:url(#SVGID_00000078006296104964922550000003840955994643604864_);fill:#231F20;" d="M536.8,252.8
			c1.9,0,3.8,0.3,4.9,1.7c0.6,0.7,1.1,1.9,1.1,3.3c0,3-2.4,4.7-5.1,4.7l5.6,7.7h-2.1l-5.5-7.7h-4.1v7.7h-1.7v-17.3H536.8z
			 M531.8,261h5.2c2.1,0,4.3-0.5,4.3-3.3c0-0.3,0-1.2-0.5-1.9c-0.8-1.4-2.2-1.5-3.6-1.5h-5.4V261z"/>
		<path style="clip-path:url(#SVGID_00000078006296104964922550000003840955994643604864_);fill:#231F20;" d="M450.4,198.7
			c2.4,0,4.2,0.1,6,1.9c1,1.1,2.3,3.2,2.3,6.7c0,1-0.1,4.2-2.3,6.7c-0.3,0.3-1.1,1.1-2.2,1.6c-1.2,0.4-2.3,0.5-4.6,0.5H445v-17.3
			H450.4z M446.7,214.6h2.6c2.3,0,3.7-0.1,4.6-0.5c2.3-1.1,3.1-4.2,3.1-6.7c0-1.7-0.6-5.8-3.5-6.8c-1-0.3-1.8-0.3-3.8-0.3h-3V214.6z
			"/>
		<path style="clip-path:url(#SVGID_00000078006296104964922550000003840955994643604864_);fill:#231F20;" d="M480.3,209.6
			c0,3.8-1.4,6.9-6.5,6.9c-1.7,0-6.5-0.4-6.5-6.6v-11.2h1.6v11.7c0,3.9,2.9,4.6,4.9,4.6c3.1,0,4.8-1.4,4.8-5v-11.2h1.6V209.6z"/>
		<path style="clip-path:url(#SVGID_00000078006296104964922550000003840955994643604864_);fill:#231F20;" d="M501.9,216l-10.2-15
			v15h-1.6v-17.3h1.6l10.3,14.8c0-2.7,0-5.1,0-7.3c0-3.7-0.1-7.4-0.1-7.6h1.6V216H501.9z"/>
		<polygon style="clip-path:url(#SVGID_00000078006296104964922550000003840955994643604864_);fill:#231F20;" points="518.8,208.9 
			518.8,216 517.2,216 517.2,208.9 510.7,198.7 512.6,198.7 518,207.3 523.6,198.7 525.6,198.7 		"/>
		<path style="clip-path:url(#SVGID_00000078006296104964922550000003840955994643604864_);fill:#231F20;" d="M542,216l-2-5.2h-7.8
			l-2,5.2h-1.8l7.1-17.3h1.4l6.9,17.3H542z M536.2,200.6l-3.4,8.9h6.7L536.2,200.6z"/>
		<path style="clip-path:url(#SVGID_00000078006296104964922550000003840955994643604864_);fill:#231F20;" d="M472.3,195.6
			c0,0.6-0.5,1.2-1.2,1.2c-0.6,0-1.2-0.5-1.2-1.2c0-0.7,0.5-1.2,1.2-1.2C471.8,194.4,472.3,194.9,472.3,195.6"/>
		<path style="clip-path:url(#SVGID_00000078006296104964922550000003840955994643604864_);fill:#231F20;" d="M477.7,195.6
			c0,0.6-0.5,1.2-1.2,1.2c-0.6,0-1.2-0.5-1.2-1.2c0-0.7,0.5-1.2,1.2-1.2C477.2,194.4,477.7,194.9,477.7,195.6"/>
		<path style="clip-path:url(#SVGID_00000078006296104964922550000003840955994643604864_);fill:#231F20;" d="M459.1,234v9.1h-1.4
			v-2.9c-1,2.5-3.1,3.3-5.2,3.3c-5.3,0-7.4-4.5-7.4-9c0-4,1.8-9.2,7.8-9.2c4.4,0,5.7,2.9,6.4,4.4l-1.5,0.8c-0.5-2-1.8-3.9-4.7-3.9
			c-3.3,0-6.2,2.5-6.2,7.8c0,5,2.3,7.6,5.7,7.6c1,0,5.2-0.2,5.2-6.5h-6.4V234H459.1z"/>
		<path style="clip-path:url(#SVGID_00000078006296104964922550000003840955994643604864_);fill:#231F20;" d="M473.7,225.3
			c-6.2,0-7.5,5.9-7.5,9c0,3.8,1.6,9.2,7.5,9.2c5.4,0,7.4-4.9,7.4-9.3C481.1,228.6,478.3,225.3,473.7,225.3 M473.6,242
			c-5,0-5.7-5.4-5.7-7.6c0-3.6,1.5-7.7,5.8-7.7c4.5,0,5.7,4.8,5.7,7.4C479.4,237.5,478.1,242,473.6,242"/>
		<path style="clip-path:url(#SVGID_00000078006296104964922550000003840955994643604864_);fill:#231F20;" d="M494.9,225.7
			c1.9,0,3.8,0.3,4.9,1.7c0.6,0.7,1.1,1.9,1.1,3.3c0,3-2.4,4.7-5.1,4.7l5.6,7.7h-2.1l-5.5-7.7h-4v7.7h-1.7v-17.3H494.9z M489.8,234
			h5.2c2.1,0,4.3-0.5,4.3-3.3c0-0.3,0-1.2-0.5-1.9c-0.8-1.4-2.2-1.5-3.6-1.5h-5.4V234z"/>
		<path style="clip-path:url(#SVGID_00000078006296104964922550000003840955994643604864_);fill:#231F20;" d="M523.8,243.1
			c0-0.2,0.1-3.9,0.1-7.5c0-2.1,0-4.5,0-7.2l-5.6,14.7h-1.1l-5.8-14.7c0,2.7,0.1,5.1,0.1,7.2c0.1,3.6,0.1,7.4,0.1,7.5h-1.6v-17.3
			h1.9l5.9,14.7l5.6-14.7h2v17.3H523.8z"/>
		<polygon style="clip-path:url(#SVGID_00000078006296104964922550000003840955994643604864_);fill:#231F20;" points="535.3,243.1 
			535.3,225.7 546.6,225.7 546.6,227.2 536.9,227.2 536.9,233.4 545.7,233.4 545.7,234.9 536.9,234.9 536.9,241.6 547.2,241.6 
			547.2,243.1 		"/>
		<polygon style="clip-path:url(#SVGID_00000078006296104964922550000003840955994643604864_);fill:#231F20;" points="561.4,235.9 
			561.4,243.1 559.8,243.1 559.8,235.9 553.3,225.7 555.2,225.7 560.6,234.4 566.2,225.7 568.2,225.7 		"/>
		<polygon style="clip-path:url(#SVGID_00000078006296104964922550000003840955994643604864_);fill:#231F20;" points="575.1,243.1 
			575.1,225.7 586.4,225.7 586.4,227.2 576.8,227.2 576.8,233.4 585.5,233.4 585.5,234.9 576.8,234.9 576.8,241.6 587.1,241.6 
			587.1,243.1 		"/>
		<path style="clip-path:url(#SVGID_00000078006296104964922550000003840955994643604864_);fill:#231F20;" d="M472.2,222.6
			c0,0.6-0.5,1.2-1.2,1.2c-0.7,0-1.2-0.5-1.2-1.2c0-0.7,0.5-1.2,1.2-1.2C471.7,221.4,472.2,222,472.2,222.6"/>
		<path style="clip-path:url(#SVGID_00000078006296104964922550000003840955994643604864_);fill:#231F20;" d="M477.6,222.6
			c0,0.6-0.5,1.2-1.2,1.2c-0.6,0-1.2-0.5-1.2-1.2c0-0.7,0.5-1.2,1.2-1.2C477,221.4,477.6,222,477.6,222.6"/>
		<path style="clip-path:url(#SVGID_00000078006296104964922550000003840955994643604864_);fill:#FF5100;" d="M46.3,234.5
			c0-29.9,24.2-54.1,54.1-54.1c29.9,0,54.1,24.2,54.1,54.1c0,29.9-24.2,54.1-54.1,54.1C70.5,288.6,46.3,264.4,46.3,234.5"/>
	</g>
	<g style="clip-path:url(#SVGID_00000030468193348322881350000008617312223042180743_);">
		<defs>
			<path id="SVGID_00000084531929825065238640000005477287187491490743_" d="M46.3,234.5c0,29.9,24.2,54.1,54.1,54.1
				c29.9,0,54.1-24.2,54.1-54.1c0-29.9-24.2-54.1-54.1-54.1C70.5,180.4,46.3,204.6,46.3,234.5"/>
		</defs>
		<clipPath id="SVGID_00000078039186742199287010000002894278243333244338_">
			<use xlink:href="#SVGID_00000084531929825065238640000005477287187491490743_"  style="overflow:visible;"/>
		</clipPath>
		<g style="opacity:0.4;clip-path:url(#SVGID_00000078039186742199287010000002894278243333244338_);">
			<g>
				<defs>
					<rect id="SVGID_00000125583104850579657060000011403960343414787458_" x="36.9" y="142.5" width="151.1" height="150.1"/>
				</defs>
				<clipPath id="SVGID_00000034797245543496825790000008588189633714240395_">
					<use xlink:href="#SVGID_00000125583104850579657060000011403960343414787458_"  style="overflow:visible;"/>
				</clipPath>
				<g style="clip-path:url(#SVGID_00000034797245543496825790000008588189633714240395_);">
					<defs>
						<path id="SVGID_00000074436120838599219720000013418576071635148418_" d="M36.9,217.5c0-41.4,33.8-75,75.5-75
							c41.7,0,75.5,33.6,75.5,75c0,41.4-33.8,75-75.5,75C70.7,292.6,36.9,259,36.9,217.5"/>
					</defs>
					<clipPath id="SVGID_00000029046097698286343240000000095991448109757359_">
						<use xlink:href="#SVGID_00000074436120838599219720000013418576071635148418_"  style="overflow:visible;"/>
					</clipPath>
					
						<radialGradient id="SVGID_00000062181476275179843510000013379188816422716576_" cx="13.882" cy="398.585" r="1" gradientTransform="matrix(81.2484 0 0 -80.6958 -1015.4439 32381.6875)" gradientUnits="userSpaceOnUse">
						<stop  offset="0" style="stop-color:#FFFFFF"/>
						<stop  offset="0.4624" style="stop-color:#FFFFFF"/>
						<stop  offset="0.5956" style="stop-color:#FFFFFF"/>
						<stop  offset="0.7434" style="stop-color:#FFFFFF"/>
						<stop  offset="0.7754" style="stop-color:#F8ECEB"/>
						<stop  offset="0.8414" style="stop-color:#E5BAB6"/>
						<stop  offset="0.9344" style="stop-color:#C76B63"/>
						<stop  offset="1" style="stop-color:#B12F24"/>
					</radialGradient>
					
						<rect x="36.9" y="142.5" style="clip-path:url(#SVGID_00000029046097698286343240000000095991448109757359_);fill:url(#SVGID_00000062181476275179843510000013379188816422716576_);" width="151.1" height="150.1"/>
				</g>
			</g>
		</g>
	</g>
	<g style="clip-path:url(#SVGID_00000030468193348322881350000008617312223042180743_);">
		<defs>
			<path id="SVGID_00000067234441492668583270000013268952990941836960_" d="M46.3,234.5c0,29.9,24.2,54.1,54.1,54.1
				c29.9,0,54.1-24.2,54.1-54.1c0-29.9-24.2-54.1-54.1-54.1C70.5,180.4,46.3,204.6,46.3,234.5"/>
		</defs>
		<clipPath id="SVGID_00000062170492357847030900000000068055686465296306_">
			<use xlink:href="#SVGID_00000067234441492668583270000013268952990941836960_"  style="overflow:visible;"/>
		</clipPath>
		<g style="opacity:0.6;clip-path:url(#SVGID_00000062170492357847030900000000068055686465296306_);">
			<g>
				<defs>
					<rect id="SVGID_00000003090447140436960060000012095983202691962301_" x="27.7" y="179.2" width="136.7" height="136.7"/>
				</defs>
				<clipPath id="SVGID_00000123429956210459450830000000959903092678154148_">
					<use xlink:href="#SVGID_00000003090447140436960060000012095983202691962301_"  style="overflow:visible;"/>
				</clipPath>
				<g style="clip-path:url(#SVGID_00000123429956210459450830000000959903092678154148_);">
					<defs>
						<path id="SVGID_00000176725839757548447530000007976058374128183431_" d="M27.7,247.6c0-37.8,30.6-68.4,68.4-68.4
							c37.7,0,68.4,30.6,68.4,68.4c0,37.8-30.6,68.4-68.4,68.4C58.3,316,27.7,285.4,27.7,247.6"/>
					</defs>
					<clipPath id="SVGID_00000052092981816854789260000008004273416965797811_">
						<use xlink:href="#SVGID_00000176725839757548447530000007976058374128183431_"  style="overflow:visible;"/>
					</clipPath>
					<defs>
						<filter id="Adobe_OpacityMaskFilter" filterUnits="userSpaceOnUse" x="27.7" y="179.2" width="136.7" height="136.7">
							<feColorMatrix  type="matrix" values="1 0 0 0 0  0 1 0 0 0  0 0 1 0 0  0 0 0 1 0"/>
						</filter>
					</defs>
					
						<mask maskUnits="userSpaceOnUse" x="27.7" y="179.2" width="136.7" height="136.7" id="SVGID_00000110452708557759373180000010618527841110588854_">
						<g class="st8">
							
								<radialGradient id="SVGID_00000108311306687160816700000015006776571774997384_" cx="13.882" cy="398.585" r="1" gradientTransform="matrix(68.3644 0 0 -68.3718 -852.9645 27499.5918)" gradientUnits="userSpaceOnUse">
								<stop  offset="0" style="stop-color:#000000"/>
								<stop  offset="0.8029" style="stop-color:#000000"/>
								<stop  offset="0.8212" style="stop-color:#0E0E0E"/>
								<stop  offset="0.8558" style="stop-color:#343434"/>
								<stop  offset="0.9032" style="stop-color:#707070"/>
								<stop  offset="0.9609" style="stop-color:#C3C3C3"/>
								<stop  offset="1" style="stop-color:#FFFFFF"/>
							</radialGradient>
							
								<rect x="27.7" y="179.2" style="clip-path:url(#SVGID_00000052092981816854789260000008004273416965797811_);fill:url(#SVGID_00000108311306687160816700000015006776571774997384_);" width="136.7" height="136.7"/>
						</g>
					</mask>
					
						<radialGradient id="SVGID_00000098189355298725501190000001152262069649830819_" cx="13.882" cy="398.585" r="1" gradientTransform="matrix(68.3644 0 0 -68.3718 -852.9647 27499.5918)" gradientUnits="userSpaceOnUse">
						<stop  offset="0" style="stop-color:#FFFFFF"/>
						<stop  offset="0.8029" style="stop-color:#FFFFFF"/>
						<stop  offset="1" style="stop-color:#FFFFFF"/>
					</radialGradient>
					
						<rect x="27.7" y="179.2" style="clip-path:url(#SVGID_00000052092981816854789260000008004273416965797811_);mask:url(#SVGID_00000110452708557759373180000010618527841110588854_);fill:url(#SVGID_00000098189355298725501190000001152262069649830819_);" width="136.7" height="136.7"/>
				</g>
			</g>
		</g>
	</g>
	<g style="clip-path:url(#SVGID_00000030468193348322881350000008617312223042180743_);">
		<defs>
			<rect id="SVGID_00000049924610930133216190000000262631024400756889_" x="13.9" y="64" width="608.1" height="334.6"/>
		</defs>
		<clipPath id="SVGID_00000005959911234277015770000003363545643722521510_">
			<use xlink:href="#SVGID_00000049924610930133216190000000262631024400756889_"  style="overflow:visible;"/>
		</clipPath>
		<g style="opacity:0.3;clip-path:url(#SVGID_00000005959911234277015770000003363545643722521510_);">
			<g>
				<defs>
					<rect id="SVGID_00000012448450347250113300000013135721521286135688_" x="78.6" y="182.2" width="66.9" height="53.5"/>
				</defs>
				<clipPath id="SVGID_00000143603905616777668980000013156624054966123193_">
					<use xlink:href="#SVGID_00000012448450347250113300000013135721521286135688_"  style="overflow:visible;"/>
				</clipPath>
				<path style="clip-path:url(#SVGID_00000143603905616777668980000013156624054966123193_);fill:#FFFFFF;" d="M144.2,221.3
					c-5,13.1-23.5,18.2-41.3,11.4c-17.8-6.8-28.1-23-23.1-36.1c5-13.1,23.5-18.2,41.3-11.4C138.9,192,149.2,208.2,144.2,221.3"/>
			</g>
		</g>
	</g>
	<g style="clip-path:url(#SVGID_00000030468193348322881350000008617312223042180743_);">
		<defs>
			<path id="SVGID_00000003079080835069017230000001074128315378388126_" d="M79.9,196.6c-5,13.1,5.3,29.3,23.1,36.1
				c17.8,6.8,36.2,1.7,41.3-11.4c5-13.1-5.3-29.3-23.1-36.1c-5.4-2.1-10.8-3-15.9-3C93.5,182.2,83.4,187.4,79.9,196.6"/>
		</defs>
		<clipPath id="SVGID_00000073697832295523441630000010527594344365838982_">
			<use xlink:href="#SVGID_00000003079080835069017230000001074128315378388126_"  style="overflow:visible;"/>
		</clipPath>
		<defs>
			
				<filter id="Adobe_OpacityMaskFilter_00000066488029612536856080000010649275094145889163_" filterUnits="userSpaceOnUse" x="56.3" y="158.1" width="111.4" height="105.4">
				<feColorMatrix  type="matrix" values="1 0 0 0 0  0 1 0 0 0  0 0 1 0 0  0 0 0 1 0"/>
			</filter>
		</defs>
		
			<mask maskUnits="userSpaceOnUse" x="56.3" y="158.1" width="111.4" height="105.4" id="SVGID_00000142860720202199080240000004413193851308687536_">
			<g style="filter:url(#Adobe_OpacityMaskFilter_00000066488029612536856080000010649275094145889163_);">
				
					<radialGradient id="SVGID_00000045583951310058528670000006609310731016863113_" cx="13.882" cy="398.585" r="1" gradientTransform="matrix(24.0151 8.8013 6.4491 -17.5969 -2788.3508 7094.0762)" gradientUnits="userSpaceOnUse">
					<stop  offset="0" style="stop-color:#FFFFFF"/>
					<stop  offset="7.800540e-02" style="stop-color:#FFFFFF"/>
					<stop  offset="0.5761" style="stop-color:#626262"/>
					<stop  offset="0.8675" style="stop-color:#0A0A0A"/>
					<stop  offset="0.9864" style="stop-color:#000000"/>
					<stop  offset="1" style="stop-color:#000000"/>
				</radialGradient>
				
					<polygon style="clip-path:url(#SVGID_00000073697832295523441630000010527594344365838982_);fill:url(#SVGID_00000045583951310058528670000006609310731016863113_);" points="
					83.7,158.1 167.8,189 140.4,263.5 56.3,232.7 				"/>
			</g>
		</mask>
		
			<radialGradient id="SVGID_00000145042506736437742470000000583727625360951447_" cx="13.882" cy="398.585" r="1" gradientTransform="matrix(24.0151 8.8013 6.4491 -17.5969 -2788.3508 7094.0762)" gradientUnits="userSpaceOnUse">
			<stop  offset="0" style="stop-color:#FFFFFF"/>
			<stop  offset="7.800540e-02" style="stop-color:#FFFFFF"/>
			<stop  offset="0.8675" style="stop-color:#FFFFFF"/>
			<stop  offset="0.9864" style="stop-color:#FFFFFF"/>
			<stop  offset="1" style="stop-color:#FFFFFF"/>
		</radialGradient>
		
			<polygon style="clip-path:url(#SVGID_00000073697832295523441630000010527594344365838982_);mask:url(#SVGID_00000142860720202199080240000004413193851308687536_);fill:url(#SVGID_00000145042506736437742470000000583727625360951447_);" points="
			83.7,158.1 167.8,189 140.4,263.5 56.3,232.7 		"/>
	</g>
	<g style="clip-path:url(#SVGID_00000030468193348322881350000008617312223042180743_);">
		<defs>
			<rect id="SVGID_00000144337403227259508940000008769606725817778052_" x="13.9" y="64" width="608.1" height="334.6"/>
		</defs>
		<clipPath id="SVGID_00000087372005711726235430000017570452085957529785_">
			<use xlink:href="#SVGID_00000144337403227259508940000008769606725817778052_"  style="overflow:visible;"/>
		</clipPath>
		<path style="clip-path:url(#SVGID_00000087372005711726235430000017570452085957529785_);fill:#FFFFFF;" d="M127.3,207.3
			c-2,5.2-9.3,7.2-16.3,4.5c-7-2.7-11-9.1-9-14.3c2-5.2,9.3-7.2,16.3-4.5C125.2,195.7,129.3,202.1,127.3,207.3"/>
	</g>
	<g style="clip-path:url(#SVGID_00000030468193348322881350000008617312223042180743_);">
		<defs>
			<path id="SVGID_00000165939709938715015660000014839213830609309317_" d="M46.3,234.5c0,29.9,24.2,54.1,54.1,54.1
				c29.9,0,54.1-24.2,54.1-54.1c0-29.9-24.2-54.1-54.1-54.1C70.5,180.4,46.3,204.6,46.3,234.5"/>
		</defs>
		<clipPath id="SVGID_00000083792689648020680700000007992519169056984216_">
			<use xlink:href="#SVGID_00000165939709938715015660000014839213830609309317_"  style="overflow:visible;"/>
		</clipPath>
		<g style="opacity:0.5;clip-path:url(#SVGID_00000083792689648020680700000007992519169056984216_);">
			<g>
				<defs>
					<rect id="SVGID_00000173161200381604534230000001973612153546292915_" x="59.4" y="178.8" width="96.3" height="79.2"/>
				</defs>
				<clipPath id="SVGID_00000064342729967019712340000013943880317241488555_">
					<use xlink:href="#SVGID_00000173161200381604534230000001973612153546292915_"  style="overflow:visible;"/>
				</clipPath>
				<path style="clip-path:url(#SVGID_00000064342729967019712340000013943880317241488555_);fill:#FFFFFF;" d="M116.1,257.6
					c-7.4,0-14.8-1.4-22-4.2c-12.2-4.7-22.3-12.8-28.5-22.7c-6.1-10-7.5-20.6-3.9-30c5.1-13.3,19.4-21.6,37.3-21.6
					c7.4,0,14.8,1.4,22,4.2c12.2,4.7,22.3,12.8,28.5,22.7c6.1,10,7.5,20.6,3.9,30C148.3,249.4,134,257.6,116.1,257.6 M99,179.7
					c-17.6,0-31.7,8.1-36.8,21.2c-3.5,9.2-2.2,19.7,3.9,29.5c6.1,9.8,16.1,17.8,28.2,22.5c7.2,2.7,14.5,4.1,21.8,4.1
					c17.6,0,31.7-8.1,36.8-21.2c3.5-9.2,2.2-19.7-3.9-29.5c-6.1-9.8-16.1-17.8-28.2-22.4C113.7,181.1,106.3,179.7,99,179.7"/>
				<path style="clip-path:url(#SVGID_00000064342729967019712340000013943880317241488555_);fill:#FFFFFF;" d="M116.1,258
					c-7.4,0-14.9-1.4-22.1-4.2c-12.3-4.7-22.5-12.8-28.6-22.8c-6.2-10.1-7.6-20.8-3.9-30.3c5.2-13.5,19.6-21.8,37.6-21.8
					c7.4,0,14.9,1.4,22.1,4.2c12.3,4.7,22.5,12.8,28.6,22.8c6.2,10,7.6,20.8,4,30.3C148.6,249.6,134.1,258,116.1,258 M99,180.1
					c-17.5,0-31.5,8.1-36.4,21c-3.5,9.1-2.1,19.5,3.8,29.2c6,9.8,16,17.7,28,22.3c7.1,2.7,14.4,4.1,21.7,4.1
					c17.5,0,31.5-8.1,36.4-21c3.5-9.1,2.1-19.5-3.8-29.2c-6-9.8-16-17.7-28-22.3C113.6,181.5,106.3,180.1,99,180.1"/>
			</g>
		</g>
		<g style="opacity:0.3;clip-path:url(#SVGID_00000083792689648020680700000007992519169056984216_);">
			<g>
				<defs>
					<rect id="SVGID_00000012449223538146017290000016599525804769317295_" x="47.7" y="208.8" width="108.3" height="67.7"/>
				</defs>
				<clipPath id="SVGID_00000134958309160712788120000017822292922353525136_">
					<use xlink:href="#SVGID_00000012449223538146017290000016599525804769317295_"  style="overflow:visible;"/>
				</clipPath>
				<path style="clip-path:url(#SVGID_00000134958309160712788120000017822292922353525136_);fill:#FFFFFF;" d="M111,276.1
					c-7.9,0-16.1-1.5-24.2-4.6c-14-5.4-25.5-14.8-32.4-26.6c-6.9-11.8-8.3-24.5-3.9-35.8l0.6,0.2c-4.3,11.1-2.9,23.6,3.9,35.2
					c6.8,11.6,18.2,21,32.1,26.3c28.6,11,59.1,1.3,67.9-21.6l0.6,0.2C149.1,266.3,131.3,276.1,111,276.1"/>
				<path style="clip-path:url(#SVGID_00000134958309160712788120000017822292922353525136_);fill:#FFFFFF;" d="M111,276.5
					c-8.2,0-16.3-1.5-24.3-4.6c-14.1-5.4-25.6-14.9-32.5-26.7c-6.9-11.9-8.3-24.7-4-36.1l0.1-0.3l1.2,0.5l-0.1,0.3
					c-4.2,11-2.9,23.4,3.9,35c6.8,11.6,18.1,20.9,31.9,26.2c7.8,3,15.8,4.5,23.8,4.5c20.5,0,37.6-10.2,43.7-26l0.1-0.3l1.2,0.5
					l-0.1,0.3C149.6,266,132,276.5,111,276.5"/>
			</g>
		</g>
	</g>
	<g style="clip-path:url(#SVGID_00000030468193348322881350000008617312223042180743_);">
		<defs>
			<rect id="SVGID_00000158004868103004358630000012114673784144575389_" x="13.9" y="64" width="608.1" height="334.6"/>
		</defs>
		<clipPath id="SVGID_00000153673265880514962060000007492130460939794057_">
			<use xlink:href="#SVGID_00000158004868103004358630000012114673784144575389_"  style="overflow:visible;"/>
		</clipPath>
		<g style="clip-path:url(#SVGID_00000153673265880514962060000007492130460939794057_);">
			<g>
				<defs>
					<rect id="SVGID_00000020394114295470666210000017130291209903784865_" x="17.4" y="74.9" width="206.5" height="222.3"/>
				</defs>
				<clipPath id="SVGID_00000062902936767252743670000014380332537416841368_">
					<use xlink:href="#SVGID_00000020394114295470666210000017130291209903784865_"  style="overflow:visible;"/>
				</clipPath>
				<g style="clip-path:url(#SVGID_00000062902936767252743670000014380332537416841368_);">
					<defs>
						<path id="SVGID_00000015315246933633727740000008155353109063832744_" d="M46.3,234.5c0-29.9,24.2-54.1,54.1-54.1
							c29.9,0,54.1,24.2,54.1,54.1c0,29.9-24.2,54.1-54.1,54.1C70.5,288.6,46.3,264.4,46.3,234.5"/>
					</defs>
					<clipPath id="SVGID_00000109011932659787068470000009974536676894294401_">
						<use xlink:href="#SVGID_00000015315246933633727740000008155353109063832744_"  style="overflow:visible;"/>
					</clipPath>
					<g style="opacity:0.6;clip-path:url(#SVGID_00000109011932659787068470000009974536676894294401_);">
						<g>
							<defs>
								<rect id="SVGID_00000058569542504738692870000002043743541230428080_" x="17.4" y="74.9" width="206.5" height="222.3"/>
							</defs>
							<clipPath id="SVGID_00000124884158985033312110000008451189736977596597_">
								<use xlink:href="#SVGID_00000058569542504738692870000002043743541230428080_"  style="overflow:visible;"/>
							</clipPath>
							<g style="clip-path:url(#SVGID_00000124884158985033312110000008451189736977596597_);">
								<defs>
									<path id="SVGID_00000155833664856799442250000015401671047985549455_" d="M47.1,74.9C12.8,141-5.1,234.9,69,280.4
										c27.7,15.6,60.6,26.4,87.7,4.2c32-26.3,47.8-73.1,67.2-108.6c-4.1-2.4-8.2-4.7-12.4-7.1c-4-2.3-7.9-4.5-11.9-6.8
										c-8.1-4.7-16.3-9.3-24.4-14c-17.5,24.9-38.9,26.8-66.3,15.6c-25.6-19.6-27.9-34.5-13.1-61l-24.4-14
										c-4-2.3-7.9-4.5-11.9-6.8C55.4,79.7,51.2,77.3,47.1,74.9"/>
								</defs>
								<clipPath id="SVGID_00000125596037322709595860000003198726552798443921_">
									<use xlink:href="#SVGID_00000155833664856799442250000015401671047985549455_"  style="overflow:visible;"/>
								</clipPath>
								<g style="clip-path:url(#SVGID_00000125596037322709595860000003198726552798443921_);">
									<g>
										<defs>
											<rect id="SVGID_00000150070861387501250360000002345799924705125249_" x="-5.1" y="74.9" width="229" height="231.9"/>
										</defs>
										<clipPath id="SVGID_00000083054829598524312350000016229796864926677410_">
											<use xlink:href="#SVGID_00000150070861387501250360000002345799924705125249_"  style="overflow:visible;"/>
										</clipPath>
										<g style="clip-path:url(#SVGID_00000083054829598524312350000016229796864926677410_);">
											
												<image style="overflow:visible;" width="478" height="484" xlink:href="752BC3B6.jpg"  transform="matrix(0.48 0 0 0.48 -5.318 74.585)">
											</image>
										</g>
									</g>
								</g>
							</g>
						</g>
					</g>
				</g>
			</g>
		</g>
		<path style="clip-path:url(#SVGID_00000153673265880514962060000007492130460939794057_);fill:#231F20;" d="M172.4,216.5h12.4
			c13.9,0,19.9,6.2,19.9,18c0,8.6-3.7,18-18.1,18h-14.2V216.5z M181.5,245.3h2.9c7.8,0,11.2-2.7,11.2-10.9c0-5.6-1.8-10.3-9.7-10.3
			h-4.4V245.3z"/>
		<path style="clip-path:url(#SVGID_00000153673265880514962060000007492130460939794057_);fill:#231F20;" d="M253.8,252.5v-16.4
			c0-2.5-0.7-4.6-3.9-4.6c-3.6,0-4.1,2.6-4.1,6.1v14.9h-7.9v-26.6h8v2.3c1.3-1.5,3.8-3,7.5-3c5.4,0,8.3,2.8,8.3,8.2v19.1H253.8z"/>
		<path style="clip-path:url(#SVGID_00000153673265880514962060000007492130460939794057_);fill:#231F20;" d="M290.3,225.9
			l-9.4,28.8c-0.6,1.9-1.2,3.5-2.6,5c-1.6,1.7-3.2,2-5.6,2H267v-6.3h3.4c2.1,0,2.7-1,2.7-1.9c0-0.7-0.2-1.3-0.6-2.6l-7.8-25.1h8.4
			l4.4,19.1l4.4-19.1H290.3z"/>
		<path style="clip-path:url(#SVGID_00000153673265880514962060000007492130460939794057_);fill:#231F20;" d="M309,252.5v-2.4
			c-2.1,1.4-4.1,3.1-8.2,3.1c-6.1,0-8.7-4.3-8.7-8.1c0-3.3,2.3-6.3,5.6-7.7c1.8-0.8,4.6-1.3,10.5-2.5v-1.5c0-0.9-0.2-3.2-3-3.2
			c-3.3,0-3.9,1.9-4.1,3.1h-7.9c0-5.9,5.4-8.3,11.2-8.3c4.6,0,11.5,1.2,11.5,7.7v15.6c0,2.3,0.1,3.2,0.8,4.1H309z M303.2,241.4
			c-2.7,0.9-3.4,2.1-3.4,3.3c0,0.9,0.8,2.7,3,2.7c3.1,0,5.4-2.8,5.4-6.5v-1.2L303.2,241.4z"/>
		<path style="clip-path:url(#SVGID_00000153673265880514962060000007492130460939794057_);fill:#231F20;" d="M346.6,225.9v26
			c0,6.9-4.5,10.2-13.2,10.2c-7.2,0-12.2-2.9-12.2-8.7v-0.8h8.1c0,1.8,0.8,4.3,4.9,4.3c2.9,0,4.6-1.2,4.6-4.2V249
			c-1.8,1.2-3.4,2.3-7,2.3c-4.3,0-11-2.5-11-12.9c0-8,4.6-13,11-13c3.9,0,6,1.5,7.4,2.9v-2.4H346.6z M333.7,231.3
			c-4.5,0-4.8,5.2-4.8,6.8c0,3.8,0.7,7.2,5,7.2c4.6,0,4.9-4.2,4.9-6.9C338.8,235,338.3,231.3,333.7,231.3"/>
		<polygon style="clip-path:url(#SVGID_00000153673265880514962060000007492130460939794057_);fill:#231F20;" points="382.3,252.5 
			382.3,246.7 396.7,231.9 383.8,231.9 383.8,225.9 406.6,225.9 406.6,231.9 392.4,246.5 406.6,246.5 406.6,252.5 		"/>
		<path style="clip-path:url(#SVGID_00000153673265880514962060000007492130460939794057_);fill:#231F20;" d="M364.9,225.1
			c-10,0-14,7.2-14,14c0,10.5,7.4,14.3,14.3,14.3c8.9,0,14.4-5.5,14.4-14.1C379.5,232.8,376.1,225.1,364.9,225.1 M365.2,247.1
			c-4.6,0-6.5-3.5-6.5-8c0-5.6,3.1-7.8,6.1-7.8c4.3,0,6.7,2.5,6.7,8.2C371.5,243.4,369.6,247.1,365.2,247.1"/>
		<path style="clip-path:url(#SVGID_00000153673265880514962060000007492130460939794057_);fill:#231F20;" d="M358.7,222.9
			c2.2,0,4-1.8,4-4c0-2.2-1.8-4-4-4c-2.2,0-4,1.8-4,4C354.7,221.2,356.5,222.9,358.7,222.9"/>
		<path style="clip-path:url(#SVGID_00000153673265880514962060000007492130460939794057_);fill:#231F20;" d="M371.6,222.9
			c2.2,0,4-1.8,4-4c0-2.2-1.8-4-4-4c-2.2,0-4,1.8-4,4C367.6,221.2,369.4,222.9,371.6,222.9"/>
		<path style="clip-path:url(#SVGID_00000153673265880514962060000007492130460939794057_);fill:#231F20;" d="M225.5,225.9v16.6
			c0,2.5-1.3,4.4-4.5,4.4s-3.8-2.1-3.8-3.9v-17.1h-7.9v17.9c0,6.6,2.5,9.5,8.4,9.5c4.4,0,7-2.2,7.8-3.3v2.5h7.9v-26.6H225.5z"/>
		<path style="clip-path:url(#SVGID_00000153673265880514962060000007492130460939794057_);fill:#231F20;" d="M214.8,222.9
			c2.2,0,4-1.8,4-4c0-2.2-1.8-4-4-4c-2.2,0-4,1.8-4,4C210.8,221.2,212.6,222.9,214.8,222.9"/>
		<path style="clip-path:url(#SVGID_00000153673265880514962060000007492130460939794057_);fill:#231F20;" d="M227.7,222.9
			c2.2,0,4-1.8,4-4c0-2.2-1.8-4-4-4c-2.2,0-4,1.8-4,4C223.7,221.2,225.5,222.9,227.7,222.9"/>
		
			<rect x="424.5" y="180.4" style="clip-path:url(#SVGID_00000153673265880514962060000007492130460939794057_);fill:#FF5100;" width="2.6" height="108.2"/>
	</g>
</g>
</svg>
