<?xml version="1.0" encoding="utf-8"?>
<!-- Generator: Adobe Illustrator 17.0.0, SVG Export Plug-In . SVG Version: 6.00 Build 0)  -->
<!DOCTYPE svg PUBLIC "-//W3C//DTD SVG 1.1//EN" "http://www.w3.org/Graphics/SVG/1.1/DTD/svg11.dtd">
<svg version="1.1" id="Layer_1" xmlns="http://www.w3.org/2000/svg" xmlns:xlink="http://www.w3.org/1999/xlink" x="0px" y="0px"
	 width="1485.832px" height="1760.728px" viewBox="0 0 1485.832 1760.728" enable-background="new 0 0 1485.832 1760.728"
	 xml:space="preserve">
<g>
	<polygon points="174.018,1663.37 174.018,1760.728 149.305,1760.728 149.305,1663.37 121.124,1663.37 121.124,1641.762 
		202.359,1641.762 202.359,1663.37 174.018,1663.37 	"/>
	<polygon points="235.098,1760.728 235.098,1641.762 302.955,1641.762 302.955,1663.203 259.732,1663.203 259.732,1687.667 
		302.955,1687.667 302.955,1709.275 259.732,1709.275 259.732,1739.12 302.955,1739.12 302.955,1760.728 235.098,1760.728 	"/>
	<path d="M433.504,1672.717c-4.863-4.494-9.994-7.849-15.339-10.096c-2.687-1.082-5.373-1.887-8.06-2.441
		c-2.712-0.527-5.641-0.805-8.784-0.805c-12.276,0-22.054,3.799-29.361,11.428c-7.28,7.6-10.934,17.78-10.934,30.511
		c0,12.454,3.385,22.385,10.155,29.735c6.769,7.378,16.01,11.067,27.695,11.067c6.582,0,12.734-1.137,18.509-3.412
		c5.775-2.275,11.095-5.742,15.983-10.402l-0.161,26.074c-5.104,3.162-10.558,5.519-16.413,7.128
		c-5.857,1.58-11.928,2.385-18.213,2.385c-18.322,0-33.364-5.88-45.185-17.668c-11.793-11.789-17.703-26.767-17.703-44.908
		c0-17.974,5.91-32.897,17.73-44.685c11.848-11.816,27.052-17.724,45.615-17.724c6.285,0,12.329,0.665,18.104,2.024
		c2.875,0.666,5.776,1.498,8.704,2.524c2.901,1.026,5.749,2.275,8.516,3.745L433.504,1672.717L433.504,1672.717z"/>
	<polygon points="470.377,1760.728 470.377,1641.762 495.011,1641.762 495.011,1689.442 544.976,1689.442 544.976,1641.762 
		569.61,1641.762 569.61,1760.728 544.976,1760.728 544.976,1710.967 495.011,1710.967 495.011,1760.728 470.377,1760.728 	"/>
	<path d="M608.897,1760.728v-118.966h25.573l51.013,69.233c1.317,1.831,2.901,4.604,4.808,8.294c1.613,3.3,3.466,7.461,5.507,12.509
		c-0.214-1.47-0.43-3.106-0.671-4.965c-0.242-1.831-0.43-3.689-0.59-5.52c0-1.359-0.055-3.578-0.189-6.657
		c-0.134-3.078-0.214-5.215-0.214-6.352v-66.542h23.532v118.966H693.49l-52.409-70.537c-1.424-1.941-2.983-4.66-4.675-8.127
		c-1.72-3.467-3.6-7.739-5.642-12.842c0.538,3.134,0.94,6.601,1.263,10.402c0,1.414,0.08,3.661,0.215,6.795
		c0.134,3.107,0.187,5.243,0.187,6.38v67.929H608.897L608.897,1760.728z"/>
	<path d="M868.845,1677.46c-3.036-7.546-7.495-14.23-13.324-20.055c-5.856-5.825-12.545-10.346-20.039-13.536
		c-7.496-3.191-15.312-4.799-23.452-4.799c-8.032,0-15.876,1.608-23.587,4.826c-7.682,3.246-14.425,7.739-20.254,13.537
		c-5.83,5.797-10.235,12.454-13.271,19.943c-3.008,7.517-4.512,15.533-4.512,24.105c0,9.43,1.934,18.334,5.829,26.683
		c3.868,8.377,9.402,15.505,16.601,21.413c5.561,4.66,11.739,8.211,18.563,10.652c6.822,2.441,13.7,3.661,20.631,3.661
		c7.925,0,15.661-1.608,23.263-4.798c7.575-3.19,14.291-7.683,20.174-13.481c5.883-5.797,10.342-12.455,13.378-19.999
		c3.036-7.518,4.567-15.561,4.567-24.131C873.412,1693.021,871.881,1685.032,868.845,1677.46z M837.845,1729.856
		c-6.823,7.572-15.421,11.372-25.816,11.372c-10.665,0-19.368-3.772-26.138-11.289c-6.77-7.545-10.155-17.032-10.155-28.459
		c0-11.262,3.438-20.748,10.342-28.431c6.904-7.683,15.554-11.54,25.95-11.54c10.289,0,18.858,3.856,25.734,11.566
		c6.878,7.739,10.316,17.198,10.316,28.404C848.08,1712.826,844.669,1722.256,837.845,1729.856z"/>
	<polygon points="899.604,1760.728 899.604,1641.762 924.237,1641.762 924.237,1739.12 963.591,1739.12 963.591,1760.728 
		899.604,1760.728 	"/>
	<path d="M1101.262,1677.46c-3.035-7.546-7.495-14.23-13.325-20.055c-5.855-5.825-12.545-10.346-20.039-13.536
		c-7.495-3.191-15.312-4.799-23.451-4.799c-8.032,0-15.876,1.608-23.586,4.826c-7.683,3.246-14.425,7.739-20.254,13.537
		c-5.83,5.797-10.235,12.454-13.271,19.943c-3.008,7.517-4.513,15.533-4.513,24.105c0,9.43,1.935,18.334,5.83,26.683
		c3.868,8.377,9.402,15.505,16.601,21.413c5.561,4.66,11.739,8.211,18.563,10.652c6.822,2.441,13.7,3.661,20.631,3.661
		c7.925,0,15.661-1.608,23.263-4.798c7.575-3.19,14.291-7.683,20.173-13.481c5.884-5.797,10.344-12.455,13.379-19.999
		c3.036-7.518,4.567-15.561,4.567-24.131C1105.829,1693.021,1104.297,1685.032,1101.262,1677.46z M1070.261,1729.856
		c-6.822,7.572-15.42,11.372-25.815,11.372c-10.665,0-19.369-3.772-26.138-11.289c-6.77-7.545-10.155-17.032-10.155-28.459
		c0-11.262,3.439-20.748,10.343-28.431c6.904-7.683,15.554-11.54,25.95-11.54c10.288,0,18.857,3.856,25.734,11.566
		c6.878,7.739,10.315,17.198,10.315,28.404C1080.495,1712.826,1077.085,1722.256,1070.261,1729.856z"/>
	<path d="M1193.94,1697.986h52.49l0.163,2.275l0.08,3.744c0,17.807-4.916,32.259-14.775,43.298
		c-9.886,11.068-22.62,16.587-38.253,16.587c-17.892,0-32.639-5.88-44.244-17.668c-11.577-11.789-17.38-26.767-17.38-44.908
		c0-17.918,5.83-32.786,17.515-44.574c11.658-11.789,26.38-17.669,44.109-17.669c9.321,0,17.917,2.025,25.734,6.102
		c7.817,4.05,14.802,10.124,21.007,18.196l-16.6,12.675c-4.11-5.297-8.463-9.153-13.083-11.511
		c-4.62-2.357-9.886-3.523-15.823-3.523c-11.256,0-20.335,3.661-27.212,11.012c-6.877,7.35-10.316,17.114-10.316,29.29
		c0,12.039,3.412,21.746,10.262,29.124c6.851,7.407,15.795,11.096,26.81,11.096c7.979,0,14.506-1.943,19.584-5.853
		c5.103-3.883,7.656-9.042,7.656-15.422v-1.304h-27.723V1697.986L1193.94,1697.986z"/>
	<path d="M1302.134,1760.728v-54.282l-39.032-64.684h28.878l17.085,32.591c0.832,1.72,1.692,3.773,2.605,6.158l2.741,8.627
		c0.376-1.471,0.726-2.774,1.074-3.94c0.323-1.165,0.78-2.469,1.371-3.855c0.995-2.552,2.041-4.937,3.143-7.156l16.924-32.425
		h28.716l-38.871,64.684v54.282H1302.134L1302.134,1760.728z"/>
	<polygon fill-rule="evenodd" clip-rule="evenodd" fill="#FF0000" points="0,0 1485.832,0 1485.832,1534.37 0,1534.37 0,0 	"/>
	<path fill-rule="evenodd" clip-rule="evenodd" fill="#FFFFFF" d="M1002.936,911.032h362.172v105.486h-222.874v95.897h222.874
		v95.903h-222.874v95.892h222.874v105.486h-362.172V911.032L1002.936,911.032z M120.729,911.032h362.167v105.486H260.021v95.897
		h222.875v95.903H260.021v95.892h222.875v105.486H120.729V911.032L120.729,911.032z M677.911,911.032h130.01l176.447,498.665
		H845.066l-37.145-105.486h-130.01l-37.145,105.486H501.463L677.911,911.032L677.911,911.032z M745.289,1084.396l-48.805,123.922
		h92.864L745.289,1084.396L745.289,1084.396z"/>
</g>
</svg>
