<svg xmlns="http://www.w3.org/2000/svg" width="950" height="200" viewBox="0 0 950 200">
    <defs>
        <linearGradient id="GensentaLogoGradient" x1=".077%" x2="99.887%" y1="50.048%" y2="50.048%">
            <stop offset="0%" stop-color="#00AEEF"/>
            <stop offset="6%" stop-color="#00AEEF"/>
            <stop offset="83%" stop-color="#000B8C"/>
            <stop offset="100%" stop-color="#000B8C"/>
        </linearGradient>
    </defs>
    <g fill="none" fill-rule="evenodd">
        <g fill-rule="nonzero">
            <g>
                <path fill="url(#GensentaLogoGradient)" d="M49.057 101.569c13.058-.05 25.598 5.105 34.854 14.33 9.255 9.224 14.464 21.758 14.477 34.834-.013 3.193-.331 6.378-.95 9.51l-.285 1.426h-1.472c-2.18-.133-4.352-.387-6.504-.76l-1.615-.286c-20.27-4.119-37.134-18.132-44.915-37.325l-.76-1.902 1.995-.38c1.77-.325 3.566-.484 5.365-.475h2.801l.38.95c6.82 14.942 20.253 25.806 36.274 29.338.022-19.852-14.651-36.646-34.301-39.26-19.65-2.614-38.192 9.762-43.346 28.931-5.153 19.17 4.678 39.195 22.982 46.814 18.305 7.62 39.414.474 49.347-16.706l.617-1.046h1.187c2.132.468 4.288.818 6.458 1.046l2.421.286-1.092 2.14c-10.93 21.592-35.92 32.016-58.924 24.58-23.005-7.436-37.193-30.523-33.456-54.44 3.737-23.918 24.289-41.562 48.462-41.605m101.462-3.138c24.227.086 44.901-17.524 48.705-41.484 3.804-23.961-10.397-47.123-33.455-54.567-23.058-7.443-48.093 3.054-58.978 24.73l-1.092 2.139 2.374.285c2.184 0 4.368.618 6.457 1.046l1.187.285.618-1.093c9.892-17.204 30.986-24.401 49.31-16.824 18.322 7.578 28.2 27.582 23.089 46.764-5.11 19.182-23.627 31.6-43.284 29.028-19.657-2.572-34.366-19.335-34.386-39.188 16.031 3.541 29.466 14.425 36.274 29.384l.38.904h2.801c1.797 0 3.591-.142 5.365-.428l2.042-.38-.807-1.95c-8.516-20.883-27.714-35.462-50.09-38.038l-1.9-.238h-2.468l-.285 1.474C99.73 54.622 103.574 69.4 112.87 80.63c9.295 11.227 23.085 17.748 37.65 17.801m0 2.995c-13.066-.025-25.604 5.162-34.843 14.414-9.24 9.252-14.419 21.809-14.393 34.893.013 3.193.33 6.378.95 9.51l.284 1.426h1.52c.97-.045 1.936-.14 2.896-.285h.522l2.469-.333h.57l1.661-.285c20.253-4.133 37.096-18.145 44.868-37.325l.76-1.95-1.994-.332c-1.77-.326-3.566-.485-5.366-.476h-2.753l-.428.951c-6.808 14.96-20.243 25.843-36.274 29.385-.022-19.852 14.651-36.646 34.302-39.26 19.65-2.613 38.192 9.762 43.345 28.931 5.153 19.17-4.677 39.195-22.982 46.815-18.305 7.62-39.413.473-49.347-16.706l-.617-1.046h-1.187c-2.137.475-4.273.808-6.457 1.093h-2.422l1.14 2.187c11.053 21.46 36.031 31.705 58.94 24.175 22.91-7.53 36.967-30.606 33.172-54.451-3.795-23.846-24.32-41.401-48.432-41.426m-53.27-63.048h-5.366C69.767 41.184 51 55.71 42.648 76.32l-.76 1.902 1.994.333c1.695.441 3.428.728 5.175.856h2.801l.38-.904c6.808-14.96 20.243-25.843 36.274-29.384.052 19.882-14.623 36.722-34.3 39.361-19.679 2.639-38.26-9.741-43.434-28.937-5.173-19.196 4.667-39.257 22.999-46.891 18.331-7.634 39.474-.475 49.417 16.734l.618 1.046 1.186-.285c2.09-.428 4.274-.76 6.458-1.046l2.421-.285-.902-1.712C81.624 4.951 55.52-5.208 32.207 3.46 8.894 12.129-4.265 36.886 1.573 61.094c5.839 24.208 28.83 40.22 53.524 37.277 24.694-2.944 43.29-23.914 43.29-48.818-.012-3.193-.33-6.378-.949-9.51l-.285-1.76z" transform="translate(-100.000000, -2423.000000) translate(100.000000, 2423.000000)"/>
                <path fill="#000B8C" d="M233.563 57.77c12.19-8.209 27.305-10.645 41.41-6.674h.389c3.013.853 5.937 2.004 8.728 3.435 5.696 2.738 10.868 6.476 15.274 11.042l-11.831 10.993c-11.968-12.891-31.455-14.978-45.823-4.908-12.133 8.425-17.066 24.11-11.977 38.082 5.621 14.612 20.306 23.517 35.688 21.642 12.81-1.137 23.738-9.846 27.833-22.182-8.146-4.76-23.226-1.325-34.33 7.803l-11.492-11.189c4.38-4.481 9.585-8.05 15.322-10.502 14.974-6.737 32.25-5.675 46.308 2.846h.049c1.794 1.08 1.794 2.405 1.794 4.172-1.783 20.994-16.487 38.552-36.659 43.774-13.318 3.461-27.458 1.211-39.085-6.219-11.627-7.43-19.713-19.382-22.351-33.04-3.158-19.058 4.95-38.23 20.753-49.075zm668.274-7.03l.158.012h13.335c.96.137 1.794.742 2.23 1.62 8.825 25.29 17.57 50.563 26.233 75.82h.243c1.988 5.84 3.879 11.68 5.964 17.912h-15.565c-.68 0-1.649-1.128-1.94-1.963-4.687-13.446-9.358-26.925-14.013-40.437l-9.698-28.022-4.85 13.594c-6.335 18.354-12.655 36.691-18.959 55.012-.199 1.267-1.363 2.14-2.618 1.963h-14.935c3.2-9.471 6.255-18.55 9.358-27.678 5.56-16.03 11.12-32.225 16.68-48.583 1.989-5.791 4.074-11.582 6.062-17.422.242-1.158 1.31-1.942 2.473-1.816zm-466.556-.135c.727 0 1.503.883 2.134 1.521 14.708 15.05 29.433 30.1 44.174 45.149l.824.687-.145-47.259h15.904v95.254H482.51v-23.212c-.048-1.04-.422-2.036-1.067-2.847-15.97-16.162-31.955-32.422-47.956-48.78-.261-.238-.555-.437-.873-.589v75.575h-15.905V50.605zm152.21.05V66.75h-37.483c-3.897-.291-7.682 1.4-10.095 4.511-2.412 3.112-3.136 7.234-1.93 10.996 1.538 4.546 5.68 7.665 10.425 7.852h14.304v.05c14.148-.292 26.228 10.277 27.987 24.487 1.76 14.21-7.369 27.47-21.15 30.721-1.582.436-3.21.683-4.849.736h-40.15V129.91h38.26c4.412.186 8.51-2.303 10.424-6.331 2.065-3.567 1.914-8.019-.388-11.434-2.026-3.471-5.714-5.6-9.697-5.595-6.08.213-12.167.082-18.233-.393-13.352-1.944-23.348-13.39-23.615-27.04-.082-13.529 9.303-25.227 22.403-27.923 1.773-.352 3.576-.533 5.382-.54h38.404zm199.39-.148v95.597h-16.1v-21.789c-1.091-4.019-3.356-7.61-6.497-10.306-9.102-8.833-17.964-17.91-26.804-27.008l-5.893-6.067c-2.947-3.032-5.897-6.062-8.859-9.08-.362-.446-.686-.922-.97-1.423l-.533.295v75.378h-15.953V50.605h18.28c.94.193 1.78.714 2.377 1.472l44.95 44.167-.097-45.737h16.098zm-393.592.196v15.95h-51.69v24.34h43.834v15.999H341.6v22.672h51.738v16.293H325.21V50.703h68.08zm288.563.05V66.8h-51.545v24.144h43.64v16.195h-43.64v22.672H681.9v16.146h-67.983V50.752h67.935zm196.674 0v15.703H848.56v79.501h-16.147V66.702h-30.209v-15.95h76.323z" transform="translate(-100.000000, -2423.000000) translate(100.000000, 2423.000000)"/>
            </g>
        </g>
    </g>
</svg>
