<?xml version="1.0" encoding="UTF-8"?>
<svg id="Layer_1" data-name="Layer 1" xmlns="http://www.w3.org/2000/svg" xmlns:xlink="http://www.w3.org/1999/xlink" viewBox="0 0 538 149.11">
  <defs>
    <style>
      .cls-1 {
        fill-rule: evenodd;
      }

      .cls-1, .cls-2, .cls-3 {
        stroke-width: 0px;
      }

      .cls-1, .cls-3 {
        fill: #004289;
      }

      .cls-2 {
        fill: none;
      }

      .cls-4 {
        clip-path: url(#clippath-1);
      }

      .cls-5 {
        clip-path: url(#clippath);
      }
    </style>
    <clipPath id="clippath">
      <rect class="cls-2" x="-15.26" y="-283.43" width="568.51" height="758.01"/>
    </clipPath>
    <clipPath id="clippath-1">
      <rect class="cls-2" x="-15.26" y="-283.43" width="568.51" height="758.01"/>
    </clipPath>
  </defs>
  <g class="cls-5">
    <g class="cls-4">
      <path class="cls-3" d="M292.51,36.3h34.91v28.34l23.71-28.34h35.2l-24.83,29.29c-18.83.36-43.24.67-68.98.94v-30.23M362.73,72.42l26.47,27.9-40.2.32-21.58-27.71v27.55h-34.91v-29.45c26.22.44,51.12.9,70.22,1.39M378.64,65.2c2.75-16.79,24.07-29.86,50-29.92,28.64.36,50.68,15.27,50.68,33.6s-22.43,33.49-50.17,33.6c-26.57-.23-47.51-13.08-50.46-29.6,11.94.4,19.38.81,20.11,1.23,16.48,1.36,26.83,15.32,29.82,28.37,4.36-18.74,15.94-29.98,35.27-33.71-18.42-3.44-29.97-14.61-34.64-33.49-3.34,13.84-14.28,27.42-31.54,28.87-.73.39-7.76.74-19.08,1.05M214.69,100.53v-30.72l35.04.54v9.6h39.6l-10.21,20.58h-64.43ZM214.69,67.24v-30.87h35.04v30.56l-35.04.3ZM167.04,100.53v-31.58c9.63.19,21.62.39,35.04.61v30.97h-35.04ZM167.03,67.72v-31.34h35.04v31l-35.04.34ZM166.05,19.18c0-7.3,8.24-13.23,18.41-13.23s18.41,5.92,18.41,13.23-8.24,13.22-18.41,13.22-18.41-5.92-18.41-13.22"/>
      <path class="cls-3" d="M100.55,42.36c.77-.76,1.65-.47,1.8.61l1.96,13.96c.02.16-.19.78-.31.9l-24.55,24.53,25.84,25.98c.45.45.42,1.16-.07,1.57l-8.02,7.62c-.38.32-1.08.29-1.43-.06l-34.44-34.42c-.4-.4-.4-1.1,0-1.51l39.21-39.17M97.28,20.1c.77-.77,1.65-.47,1.81.6l1.96,13.96c.02.16-.19.78-.3.9l-42.79,42.82c-.4.4-1.1.4-1.5,0l-7.97-7.96c-.4-.4-.4-1.1,0-1.5l48.8-48.82ZM90.92,82.51c0-8.7,7.06-15.76,15.76-15.76s15.76,7.06,15.76,15.76-7.06,15.76-15.76,15.76-15.76-7.06-15.76-15.76M36.22,76.73l47.07,47.07c4,4,10.48,4,14.48,0l47.07-47.07c4-3.99,4-10.48,0-14.48L97.76,15.18c-4-4-10.48-4-14.48,0l-47.07,47.07c-4,4-4,10.48,0,14.48M33.55,79.15c-5.33-5.33-5.33-13.97,0-19.3L80.87,12.52c5.33-5.33,13.97-5.33,19.3,0l47.32,47.32c5.33,5.33,5.33,13.97,0,19.3l-47.32,47.32c-5.33,5.33-13.97,5.33-19.3,0l-47.32-47.32Z"/>
      <path class="cls-1" d="M170.32,132.77h-3.28v-14.91h3.28v14.91ZM167.03,113.86h3.32v2.58h-3.32v-2.58ZM173.34,132.77v-14.91h3.28v12.17h7.26v2.74h-10.53ZM184.55,132.77l5.65-14.91h3.36l5.58,14.91h-3.41l-1.13-3.33h-5.56l-1.17,3.33h-3.32ZM191.84,121.54l-1.96,5.49h3.87l-1.9-5.49h-.02ZM203.56,137.77l.44-1.11c.67.28,1.2.41,1.59.41.26,0,.52-.1.79-.3.26-.2.4-.42.4-.68,0-.61-.32-.91-.95-.91-.3,0-.57.05-.84.15l-.57-.61.96-1.73c-1.83-.32-3.27-1.22-4.32-2.68-.97-1.37-1.46-3.01-1.46-4.93,0-2.3.64-4.17,1.92-5.6,1.33-1.51,3.13-2.26,5.4-2.26,1.72,0,3.17.46,4.33,1.38,1.21.97,1.91,2.29,2.11,3.98h-3.18c-.1-.78-.47-1.42-1.12-1.92-.62-.47-1.33-.7-2.14-.7-1.38,0-2.42.54-3.12,1.6-.6.9-.9,2.08-.9,3.52s.31,2.58.92,3.47c.71,1.03,1.74,1.54,3.1,1.54.98,0,1.78-.32,2.38-.96.56-.59.9-1.39,1.01-2.39h3.19c-.18,1.89-.87,3.37-2.06,4.46-1.2,1.11-2.75,1.66-4.64,1.63l-.51.92c.15-.05.32-.07.57-.07.58,0,1.08.15,1.49.46.45.34.67.8.67,1.37,0,.81-.27,1.45-.8,1.92-.51.44-1.18.66-2.01.66-.91,0-1.79-.2-2.65-.62M220.84,127.81h3.15c0,.94.33,1.65.98,2.13.58.43,1.35.64,2.32.64.78,0,1.41-.12,1.91-.36.67-.32,1.01-.82,1.01-1.49,0-.86-.77-1.51-2.31-1.95-2.71-.77-4.14-1.19-4.29-1.27-1.52-.74-2.28-1.9-2.28-3.47,0-1.46.59-2.6,1.75-3.42,1.04-.73,2.31-1.09,3.81-1.09,1.71,0,3.09.36,4.14,1.08,1.22.83,1.84,2.07,1.84,3.71h-3.18c-.09-1.51-1.07-2.26-2.95-2.26-.62,0-1.13.12-1.52.37-.48.3-.72.74-.72,1.32s.27.95.8,1.19c.44.21,1.65.56,3.64,1.06,1.18.3,2.05.63,2.61.99,1.21.79,1.81,1.91,1.81,3.35,0,1.64-.65,2.87-1.95,3.71-1.1.72-2.52,1.07-4.26,1.07s-3.28-.42-4.42-1.27c-1.3-.96-1.93-2.31-1.9-4.05M233.85,132.77l5.65-14.91h3.36l5.58,14.91h-3.4l-1.13-3.33h-5.57l-1.16,3.33h-3.32ZM241.14,121.54l-1.96,5.49h3.88l-1.9-5.49h-.02ZM249.87,132.77v-14.91h3.26l6.21,10.01.05-10.01h3.07v14.91h-3.3l-6.19-9.97-.03,9.97h-3.07ZM263.86,132.77l5.65-14.91h3.36l5.58,14.91h-3.4l-1.13-3.33h-5.57l-1.16,3.33h-3.32ZM271.15,121.54l-1.96,5.49h3.88l-1.9-5.49h-.02ZM282.4,132.77v-5.8l-5.49-9.1h3.71l3.49,5.91,3.46-5.91h3.64l-5.53,9.18v5.72h-3.26ZM295.87,132.77h-3.28v-14.91h3.28v14.91ZM292.59,113.86h3.32v2.58h-3.32v-2.58ZM315.45,121.97l-3.64,10.79h-3.29l-3.7-10.79h3.1l2.29,7.36,2.3-7.36h2.94ZM327.04,128.11h-7.78c.09,1.82.98,2.73,2.67,2.73.47,0,.94-.12,1.39-.37.51-.28.82-.62.92-1.04h2.62c-.8,2.42-2.48,3.64-5.05,3.64-1.7,0-3.04-.53-4.04-1.58-.97-1.03-1.45-2.4-1.45-4.1s.5-3.04,1.5-4.09c1-1.06,2.33-1.59,4-1.59,1.75,0,3.1.65,4.07,1.95.79,1.07,1.18,2.35,1.18,3.86v.59ZM319.26,126.21h4.83c-.28-1.53-1.06-2.3-2.36-2.3-.7,0-1.28.21-1.74.63-.45.42-.7.98-.74,1.67M338.46,132.77v-12.13h-4.45v-2.77h12.19v2.77h-4.46v12.13h-3.27ZM351.35,132.77h-3.28v-14.91h3.28v14.91ZM348.06,113.86h3.32v2.58h-3.32v-2.58ZM367.46,122.88h-3.18c-.1-.78-.47-1.42-1.12-1.92-.62-.47-1.33-.7-2.13-.7-1.38,0-2.43.54-3.12,1.6-.6.9-.9,2.08-.9,3.52s.31,2.58.92,3.47c.71,1.03,1.74,1.54,3.1,1.54.98,0,1.78-.32,2.38-.96.56-.58.89-1.38,1.01-2.39h3.19c-.18,1.86-.85,3.33-2.02,4.42-1.18,1.11-2.7,1.67-4.55,1.67-2.23,0-4.01-.74-5.36-2.22-1.3-1.43-1.96-3.27-1.96-5.53s.63-4.16,1.9-5.6c1.33-1.51,3.14-2.26,5.41-2.26,1.72,0,3.17.46,4.33,1.38,1.21.97,1.91,2.29,2.11,3.98M368.36,132.77l5.65-14.91h3.36l5.58,14.91h-3.4l-1.13-3.33h-5.57l-1.16,3.33h-3.32ZM375.65,121.54l-1.96,5.49h3.88l-1.9-5.49h-.02ZM384.37,132.77v-14.91h8.02c1.27,0,2.31.36,3.11,1.09.84.76,1.26,1.77,1.26,3.03,0,1.86-.79,3.11-2.36,3.73,1.29.37,2.01,1.54,2.16,3.54l.13,1.85c.06.74.22,1.3.5,1.68h-3.28c-.18-.47-.3-1.03-.35-1.7l-.17-1.87c-.14-1.5-.97-2.25-2.48-2.25h-3.27v5.82h-3.28ZM387.65,120.43v4.18h3.58c1.51,0,2.26-.71,2.26-2.12s-.75-2.06-2.26-2.06h-3.58ZM399.57,132.77v-14.91h11.13v2.77h-7.86v3.18h7.21v2.55h-7.21v3.66h8.04v2.74h-11.32ZM416.51,132.77v-12.13h-4.45v-2.77h12.18v2.77h-4.46v12.13h-3.27ZM430.46,132.77l5.65-14.91h3.36l5.58,14.91h-3.4l-1.14-3.33h-5.57l-1.17,3.33h-3.32ZM437.75,121.54l-1.96,5.49h3.88l-1.9-5.49h-.02ZM449.56,132.77h-3.26v-3.21h3.26v3.21ZM454.98,137.77l.44-1.11c.66.28,1.19.41,1.59.41.79,0,1.18-.39,1.17-1.16,0-.22-.11-.41-.33-.55-.19-.12-.4-.17-.62-.17-.3,0-.57.05-.84.15l-.57-.61.91-1.65c-1.52-.16-2.75-.65-3.7-1.48-1.05-.91-1.57-2.1-1.57-3.57l3.14-.22c0,.94.33,1.64.98,2.12.59.43,1.36.65,2.32.65.77,0,1.41-.12,1.91-.36.67-.31,1.01-.81,1.01-1.49,0-.86-.77-1.51-2.31-1.95-2.69-.8-4.12-1.24-4.27-1.31-1.53-.74-2.3-1.89-2.3-3.43,0-1.46.58-2.6,1.74-3.42,1.04-.73,2.31-1.09,3.83-1.09,1.71,0,3.09.36,4.14,1.08,1.22.83,1.84,2.07,1.84,3.71h-3.17c-.09-1.51-1.08-2.26-2.95-2.26-.62,0-1.13.13-1.53.38-.48.3-.71.73-.71,1.31,0,.73.76,1.3,2.29,1.71,2.41.63,3.83,1.06,4.27,1.29,1.53.77,2.3,1.97,2.3,3.6s-.6,2.77-1.79,3.61c-1.02.72-2.36,1.11-4.01,1.16l-.51.93c.14-.05.31-.07.56-.07.59,0,1.09.15,1.5.46.45.34.67.8.67,1.37,0,.81-.26,1.45-.8,1.92-.51.44-1.18.66-2.01.66-.9,0-1.79-.2-2.63-.62M469.16,132.77h-3.26v-3.21h3.26v3.21Z"/>
    </g>
  </g>
</svg>