<?xml version="1.0" encoding="iso-8859-1"?>
<!-- Uploaded to: SVG Repo, www.svgrepo.com, Generator: SVG Repo Mixer Tools -->
<svg fill="#000000" height="800px" width="800px" version="1.1" id="Layer_1" xmlns="http://www.w3.org/2000/svg" xmlns:xlink="http://www.w3.org/1999/xlink" 
	 viewBox="0 0 512 512" xml:space="preserve">
<g>
	<g>
		<g>
			<path d="M502,208.673H289.254V24.074c0-5.522-4.477-10-10-10H10c-5.523,0-10,4.478-10,10v418.567c0,5.522,4.477,10,10,10h63.433
				v35.284c0,5.522,4.477,10,10,10H502c5.523,0,10-4.478,10-10V218.673C512,213.149,507.523,208.673,502,208.673z M73.433,218.673
				v213.97H20v0V34.074h249.254v174.598H83.433C77.91,208.673,73.433,213.151,73.433,218.673z M492,477.926H93.433v-25.284v-20
				v-203.97h175.821h20H492V477.926z"/>
			<path d="M126.06,268.852c0,5.522,4.477,10,10,10h232.537c5.523,0,10.001-4.478,10.001-10c0-5.522-4.477-10-10-10H136.06
				C130.537,258.852,126.06,263.329,126.06,268.852z"/>
			<path d="M418.776,278.852h31.821c5.523,0,10-4.478,10-10c0-5.522-4.477-10-10-10h-31.821c-5.523,0-10,4.478-10,10
				C408.776,274.374,413.253,278.852,418.776,278.852z"/>
			<path d="M229.075,59.358H174c-5.523,0-10,4.478-10,10c0,5.522,4.477,10,10,10h55.075c5.523,0,10-4.478,10-10
				C239.075,63.837,234.598,59.358,229.075,59.358z"/>
		</g>
	</g>
</g>
</svg>