<svg xmlns="http://www.w3.org/2000/svg" xmlns:xlink="http://www.w3.org/1999/xlink" width="500" zoomAndPan="magnify" viewBox="0 0 375 112.499997" height="150" preserveAspectRatio="xMidYMid meet" version="1.0"><defs><g/></defs><g fill="#164d9d" fill-opacity="1"><g transform="translate(0.829651, 78.741514)"><g><path d="M 47.4375 -22.78125 C 47.4375 -19.28125 47.015625 -16.09375 46.171875 -13.21875 C 45.335938 -10.351562 44.03125 -7.882812 42.25 -5.8125 C 40.46875 -3.738281 38.175781 -2.144531 35.375 -1.03125 C 32.582031 0.0703125 29.238281 0.625 25.34375 0.625 C 21.53125 0.625 18.226562 0.0703125 15.4375 -1.03125 C 12.644531 -2.144531 10.347656 -3.734375 8.546875 -5.796875 C 6.742188 -7.859375 5.40625 -10.328125 4.53125 -13.203125 C 3.664062 -16.085938 3.234375 -19.300781 3.234375 -22.84375 C 3.234375 -27.570312 4.015625 -31.679688 5.578125 -35.171875 C 7.140625 -38.671875 9.554688 -41.378906 12.828125 -43.296875 C 16.109375 -45.210938 20.300781 -46.171875 25.40625 -46.171875 C 30.582031 -46.171875 34.789062 -45.207031 38.03125 -43.28125 C 41.28125 -41.351562 43.660156 -38.632812 45.171875 -35.125 C 46.679688 -31.625 47.4375 -27.507812 47.4375 -22.78125 Z M 16.171875 -22.78125 C 16.171875 -20.050781 16.476562 -17.703125 17.09375 -15.734375 C 17.71875 -13.765625 18.703125 -12.25 20.046875 -11.1875 C 21.398438 -10.132812 23.164062 -9.609375 25.34375 -9.609375 C 27.601562 -9.609375 29.398438 -10.132812 30.734375 -11.1875 C 32.066406 -12.25 33.03125 -13.765625 33.625 -15.734375 C 34.21875 -17.703125 34.515625 -20.050781 34.515625 -22.78125 C 34.515625 -26.882812 33.828125 -30.128906 32.453125 -32.515625 C 31.085938 -34.898438 28.738281 -36.09375 25.40625 -36.09375 C 23.1875 -36.09375 21.394531 -35.550781 20.03125 -34.46875 C 18.675781 -33.394531 17.691406 -31.863281 17.078125 -29.875 C 16.472656 -27.882812 16.171875 -25.519531 16.171875 -22.78125 Z M 16.171875 -22.78125 "/></g></g><g transform="translate(51.569193, 78.741514)"><g><path d="M 37.3125 0 L 1.890625 0 L 1.890625 -7.578125 L 21.578125 -35.53125 L 2.359375 -35.53125 L 2.359375 -45.453125 L 36.8125 -45.453125 L 36.8125 -37.90625 L 17.125 -9.921875 L 37.3125 -9.921875 Z M 37.3125 0 "/></g></g><g transform="translate(90.46329, 78.741514)"><g><path d="M 47.4375 -22.78125 C 47.4375 -19.28125 47.015625 -16.09375 46.171875 -13.21875 C 45.335938 -10.351562 44.03125 -7.882812 42.25 -5.8125 C 40.46875 -3.738281 38.175781 -2.144531 35.375 -1.03125 C 32.582031 0.0703125 29.238281 0.625 25.34375 0.625 C 21.53125 0.625 18.226562 0.0703125 15.4375 -1.03125 C 12.644531 -2.144531 10.347656 -3.734375 8.546875 -5.796875 C 6.742188 -7.859375 5.40625 -10.328125 4.53125 -13.203125 C 3.664062 -16.085938 3.234375 -19.300781 3.234375 -22.84375 C 3.234375 -27.570312 4.015625 -31.679688 5.578125 -35.171875 C 7.140625 -38.671875 9.554688 -41.378906 12.828125 -43.296875 C 16.109375 -45.210938 20.300781 -46.171875 25.40625 -46.171875 C 30.582031 -46.171875 34.789062 -45.207031 38.03125 -43.28125 C 41.28125 -41.351562 43.660156 -38.632812 45.171875 -35.125 C 46.679688 -31.625 47.4375 -27.507812 47.4375 -22.78125 Z M 16.171875 -22.78125 C 16.171875 -20.050781 16.476562 -17.703125 17.09375 -15.734375 C 17.71875 -13.765625 18.703125 -12.25 20.046875 -11.1875 C 21.398438 -10.132812 23.164062 -9.609375 25.34375 -9.609375 C 27.601562 -9.609375 29.398438 -10.132812 30.734375 -11.1875 C 32.066406 -12.25 33.03125 -13.765625 33.625 -15.734375 C 34.21875 -17.703125 34.515625 -20.050781 34.515625 -22.78125 C 34.515625 -26.882812 33.828125 -30.128906 32.453125 -32.515625 C 31.085938 -34.898438 28.738281 -36.09375 25.40625 -36.09375 C 23.1875 -36.09375 21.394531 -35.550781 20.03125 -34.46875 C 18.675781 -33.394531 17.691406 -31.863281 17.078125 -29.875 C 16.472656 -27.882812 16.171875 -25.519531 16.171875 -22.78125 Z M 16.171875 -22.78125 "/></g></g><g transform="translate(141.202831, 78.741514)"><g><path d="M 48.1875 0 L 32.078125 0 L 15.484375 -32.015625 L 15.203125 -32.015625 C 15.304688 -31.046875 15.398438 -29.875 15.484375 -28.5 C 15.566406 -27.132812 15.640625 -25.742188 15.703125 -24.328125 C 15.765625 -22.910156 15.796875 -21.628906 15.796875 -20.484375 L 15.796875 0 L 4.90625 0 L 4.90625 -45.453125 L 20.953125 -45.453125 L 37.5 -13.859375 L 37.6875 -13.859375 C 37.625 -14.859375 37.5625 -16.015625 37.5 -17.328125 C 37.4375 -18.648438 37.378906 -19.984375 37.328125 -21.328125 C 37.273438 -22.671875 37.25 -23.863281 37.25 -24.90625 L 37.25 -45.453125 L 48.1875 -45.453125 Z M 48.1875 0 "/></g></g><g transform="translate(194.305244, 78.741514)"><g/></g><g transform="translate(210.84534, 78.741514)"><g><path d="M 4.90625 0 L 4.90625 -45.453125 L 17.25 -45.453125 L 17.25 0 Z M 11.0625 -59.671875 C 12.800781 -59.671875 14.316406 -59.304688 15.609375 -58.578125 C 16.910156 -57.847656 17.5625 -56.40625 17.5625 -54.25 C 17.5625 -52.164062 16.910156 -50.753906 15.609375 -50.015625 C 14.316406 -49.273438 12.800781 -48.90625 11.0625 -48.90625 C 9.28125 -48.90625 7.757812 -49.273438 6.5 -50.015625 C 5.25 -50.753906 4.625 -52.164062 4.625 -54.25 C 4.625 -56.40625 5.25 -57.847656 6.5 -58.578125 C 7.757812 -59.304688 9.28125 -59.671875 11.0625 -59.671875 Z M 11.0625 -59.671875 "/></g></g><g transform="translate(233.012799, 78.741514)"><g><path d="M 4.90625 0 L 4.90625 -45.453125 L 17.1875 -45.453125 L 17.1875 -9.921875 L 34.703125 -9.921875 L 34.703125 0 Z M 4.90625 0 "/></g></g><g transform="translate(270.072562, 78.741514)"><g><path d="M 32.796875 0 L 30.5625 -8.515625 L 15.796875 -8.515625 L 13.5 0 L 0 0 L 14.828125 -45.640625 L 31.21875 -45.640625 L 46.234375 0 Z M 28.015625 -18.59375 L 26.046875 -26.046875 C 25.847656 -26.859375 25.550781 -28.015625 25.15625 -29.515625 C 24.757812 -31.023438 24.367188 -32.582031 23.984375 -34.1875 C 23.597656 -35.789062 23.300781 -37.109375 23.09375 -38.140625 C 22.90625 -37.109375 22.640625 -35.828125 22.296875 -34.296875 C 21.960938 -32.773438 21.613281 -31.269531 21.25 -29.78125 C 20.882812 -28.289062 20.566406 -27.046875 20.296875 -26.046875 L 18.34375 -18.59375 Z M 28.015625 -18.59375 "/></g></g><g transform="translate(316.303995, 78.741514)"><g><path d="M 25.15625 -36.03125 C 23.695312 -36.03125 22.398438 -35.722656 21.265625 -35.109375 C 20.128906 -34.503906 19.15625 -33.617188 18.34375 -32.453125 C 17.53125 -31.296875 16.910156 -29.882812 16.484375 -28.21875 C 16.066406 -26.550781 15.859375 -24.660156 15.859375 -22.546875 C 15.859375 -19.679688 16.21875 -17.273438 16.9375 -15.328125 C 17.664062 -13.378906 18.769531 -11.90625 20.25 -10.90625 C 21.738281 -9.914062 23.597656 -9.421875 25.828125 -9.421875 C 27.859375 -9.421875 29.8125 -9.695312 31.6875 -10.25 C 33.570312 -10.8125 35.46875 -11.488281 37.375 -12.28125 L 37.375 -1.890625 C 35.363281 -1.003906 33.304688 -0.363281 31.203125 0.03125 C 29.097656 0.425781 26.863281 0.625 24.5 0.625 C 19.5625 0.625 15.519531 -0.351562 12.375 -2.3125 C 9.238281 -4.269531 6.929688 -6.988281 5.453125 -10.46875 C 3.972656 -13.957031 3.234375 -18.003906 3.234375 -22.609375 C 3.234375 -26.046875 3.710938 -29.191406 4.671875 -32.046875 C 5.640625 -34.910156 7.054688 -37.394531 8.921875 -39.5 C 10.785156 -41.601562 13.085938 -43.226562 15.828125 -44.375 C 18.578125 -45.53125 21.726562 -46.109375 25.28125 -46.109375 C 27.476562 -46.109375 29.789062 -45.851562 32.21875 -45.34375 C 34.65625 -44.832031 37.035156 -44.019531 39.359375 -42.90625 L 35.59375 -33.234375 C 33.9375 -34.023438 32.257812 -34.6875 30.5625 -35.21875 C 28.863281 -35.757812 27.0625 -36.03125 25.15625 -36.03125 Z M 31.453125 7.828125 C 31.453125 10.085938 30.675781 11.894531 29.125 13.25 C 27.570312 14.613281 25.5 15.296875 22.90625 15.296875 C 21.457031 15.296875 20.140625 15.179688 18.953125 14.953125 C 17.773438 14.722656 16.804688 14.472656 16.046875 14.203125 L 16.046875 8.203125 C 16.742188 8.429688 17.429688 8.609375 18.109375 8.734375 C 18.785156 8.859375 19.472656 8.921875 20.171875 8.921875 C 20.960938 8.921875 21.582031 8.753906 22.03125 8.421875 C 22.488281 8.085938 22.71875 7.65625 22.71875 7.125 C 22.71875 6.394531 22.367188 5.816406 21.671875 5.390625 C 20.984375 4.960938 19.832031 4.609375 18.21875 4.328125 L 20.109375 0 L 26.171875 0 L 25.578125 1.890625 C 26.429688 2.078125 27.3125 2.378906 28.21875 2.796875 C 29.132812 3.210938 29.898438 3.8125 30.515625 4.59375 C 31.140625 5.382812 31.453125 6.460938 31.453125 7.828125 Z M 31.453125 7.828125 "/></g></g></g><g fill="#164d9d" fill-opacity="1"><g transform="translate(357.640917, 78.741514)"><g/></g></g></svg>