<?xml version="1.0" encoding="UTF-8" standalone="no"?>
<!-- Created with Inkscape (http://www.inkscape.org/) -->

<svg
   version="1.1"
   id="svg1"
   width="4583.9995"
   height="626.96826"
   viewBox="0 0 4583.9995 626.96826"
   xmlns="http://www.w3.org/2000/svg"
   xmlns:svg="http://www.w3.org/2000/svg">
  <defs
     id="defs1" />
  <g
     id="g1"
     transform="translate(-168.89778,-495.67941)">
    <path
       style="fill:#1a4683;fill-opacity:1"
       d="m 1390.8977,1122.2584 c -1.925,-0.2202 -8,-0.8704 -13.5,-1.4449 -50.086,-5.2311 -108.3446,-22.0911 -168.762,-48.8398 -19.6832,-8.7144 -25.9833,-12.0394 -25.422,-13.4169 0.4473,-1.098 57.9971,-130.15446 68.3697,-153.32036 l 4.5347,-10.1276 19.6398,13.1643 c 51.275,34.3689 79.1407,46.3304 115.6124,49.6274 27.4869,2.4847 47.2406,-2.8774 54.1862,-14.7089 2.4739,-4.2142 2.8338,-5.8441 2.833,-12.8276 0,-13.4398 -5.0968,-21.2911 -18.4082,-28.3666 -7.2771,-3.868 -24.8972,-9.8977 -45.8187,-15.6796 -52.9858,-14.6431 -77.1646,-24.1761 -100.3219,-39.554 -11.5623,-7.6781 -31.5154,-27.2953 -38.389,-37.7427 -13.5166,-20.54416 -21.6662,-43.75771 -25.6834,-73.15708 -1.6568,-12.12529 -1.6763,-49.53108 -0.032,-62 12.8344,-97.34281 78.2921,-154.69547 192.3173,-168.50424 70.6525,-8.55622 143.8969,2.23723 207.0592,30.51268 17.4195,7.79805 41.7852,22.48928 41.7852,25.19425 0,0.91059 -8.1073,19.46447 -54.0947,123.79731 -5.9395,13.475 -10.9936,24.5 -11.2314,24.5 -0.2377,0 -4.6757,-3.17735 -9.8621,-7.06078 -20.2918,-15.19396 -45.2021,-27.40577 -68.4359,-33.5495 -10.4202,-2.7554 -13.9597,-3.2007 -28.8759,-3.63284 -26.4816,-0.76719 -38.8806,2.01108 -47.4686,10.63639 -5.122,5.14426 -7.0314,10.03839 -7.0314,18.02241 0,6.38419 1.6958,9.80458 7.2238,14.56978 4.3898,3.78414 28.9837,16.31075 34.033,17.33432 0.4162,0.0844 2.8912,1.23328 5.5,2.55311 2.6088,1.31984 11.9432,4.28198 20.7432,6.58254 58.8037,15.37288 94.3004,33.31927 121.0747,61.21269 28.6513,29.84896 42.7038,67.73866 43.8869,118.33186 1.4025,59.97762 -15.7108,107.74056 -51.4337,143.55136 -33.8056,33.8887 -80.3168,54.0575 -144.2333,62.5444 -11.6531,1.5473 -70.4143,2.8718 -79.7946,1.7986 z m 2440,0 c -23.7719,-2.7781 -31.6377,-3.929 -44.1614,-6.4618 -48.4344,-9.7955 -93.1204,-29.7937 -131.3306,-58.7742 -13.999,-10.6174 -42.1774,-39.036 -52.7054,-53.1545 -49.823,-66.81496 -69.8323,-152.16846 -56.7677,-242.15371 9.8363,-67.74997 38.7195,-126.70001 84.4436,-172.34781 23.3968,-23.35775 46.9821,-40.32817 76.3764,-54.95548 34.2252,-17.03131 66.4817,-26.67534 107.7636,-32.21914 18.6761,-2.50803 70.3611,-2.51364 89.8815,-0.01 66.4113,8.51861 122.7321,31.5017 170.5,69.57663 12.4909,9.9563 34.6051,32.08911 44.5293,44.56677 22.0737,27.75335 39.1143,59.42135 50.3352,93.5424 6.6115,20.10425 11.262,41.656 14.3496,66.5 1.8966,15.26091 1.5637,65.73408 -0.5442,82.49998 -2.7853,22.1542 -7.1497,43.31 -12.8935,62.5 -9.7931,32.7184 -29.5295,70.27422 -49.6618,94.50006 -49.447,59.5009 -115.952,93.1094 -206.9895,104.6026 -11.9951,1.5144 -74.0457,2.849 -83.1251,1.788 z m 59.7483,-197.27956 c 49.5226,-10.9599 79.6614,-50.3735 81.9814,-107.2104 2.0422,-50.03006 -18.0629,-88.77237 -55.9944,-107.90053 -16.9894,-8.56721 -32.6524,-11.99985 -54.7558,-11.99985 -24.5571,0 -42.4772,5.13814 -60.4679,17.33759 -8.4819,5.75154 -13.7633,10.86724 -20.6372,19.98964 -15.2542,20.2438 -22.8744,45.5265 -22.8744,75.89375 0,37.4531 10.201,66.5167 30.9314,88.1262 13.9091,14.4989 33.2289,24.2502 54.714,27.6157 9.7908,1.5336 36.5609,0.4812 47.1029,-1.8519 z M 168.89778,1105.0641 c 0,-0.44 0.39438,-1.2275 0.8764,-1.75 0.48202,-0.5225 7.98482,-13.325 16.67289,-28.45 14.90351,-25.9454 20.99367,-36.5131 59.93497,-104.00004 8.72743,-15.12502 20.66418,-35.82502 26.52609,-46.00002 5.86192,-10.175 20.79198,-36.05 33.1779,-57.5 12.38593,-21.45 26.0218,-45.075 30.30195,-52.5 17.84277,-30.95284 93.47465,-162.0983 136.96677,-237.49998 25.69669,-44.55 47.01866,-81.30517 47.38214,-81.67815 0.36348,-0.37298 9.9595,15.37702 21.32448,35 11.36498,19.62298 27.73226,47.82815 36.37173,62.67815 8.63947,14.85 38.3185,65.925 65.95341,113.5 27.6349,47.575 67.24555,115.74998 88.02366,151.49998 82.50415,141.95346 141.22392,243.11176 142.36124,245.25006 l 1.19673,2.25 H 522.43295 c -194.44435,0 -353.53517,-0.36 -353.53517,-0.8 z m 682.87144,-14.45 c -0.97266,-1.8254 -133.0174,-229.69946 -297.69944,-513.75004 -15.14631,-26.125 -28.61971,-49.4125 -29.94087,-51.75 -1.32117,-2.3375 -2.70116,-4.23729 -3.06663,-4.22175 -0.36548,0.0155 -64.56451,110.35281 -142.66451,245.19393 -78.1,134.8411 -152.45879,263.19096 -165.24176,285.22176 -12.78296,22.0309 -23.24546,40.3936 -23.24999,40.8061 -0.005,0.4125 149.18258,0.75 331.52693,0.75 h 331.53519 z m -331.37145,-16.4007 c -2.2,-0.1729 -10.3,-0.7954 -18,-1.3833 -18.30598,-1.3976 -48.64638,-4.9235 -92.5,-10.7496 l -35.5,-4.7164 -11.17891,-22.5 c -6.1484,-12.375 -22.20387,-44.88754 -35.67882,-72.25006 l -24.4999,-49.75 7.67881,0.029 7.67882,0.029 8.96087,16.2214 c 41.41644,74.97416 88.27329,109.67586 160.53913,118.89376 15.67445,1.9993 47.38196,1.4831 61.11062,-0.9949 40.55271,-7.3198 68.95132,-25.3264 81.50186,-51.67744 5.23102,-10.983 6.77483,-18.3229 6.73062,-32.00002 -0.0615,-19.0217 -4.96437,-32.5763 -16.15551,-44.6641 -12.61235,-13.6228 -27.79741,-20.7865 -66.32693,-31.2901 -28.23152,-7.6963 -81.42617,-25.7946 -98.29073,-33.4414 -10.88751,-4.9366 -22.71225,-13.4135 -30.99927,-22.2227 -6.05307,-6.4344 -8.69196,-10.2763 -12.54581,-18.265 -6.85133,-14.20228 -8.40699,-22.24475 -7.73101,-39.96792 0.58605,-15.36516 2.41948,-24.06573 7.67262,-36.41041 9.75835,-22.9318 26.17547,-40.26993 48.53354,-51.25631 19.15627,-9.41306 24.45467,-10.46977 52.5,-10.47051 29.14962,-7.7e-4 48.25228,2.50054 81.09393,10.61845 l 4.59394,1.13555 33.90606,58.99423 c 18.64834,32.44682 34.05607,59.38708 34.2394,59.86723 0.18334,0.48019 -1.86954,0.87299 -4.56194,0.87299 -5.67079,0 -3.71648,2.1198 -20.28273,-21.99998 -6.23301,-9.075 -14.05052,-20.1 -17.37225,-24.5 -9.26689,-12.27502 -24.93062,-27.86819 -33.52909,-33.37805 -17.51017,-11.22044 -38.88418,-20.10863 -58.43956,-24.30157 -13.28062,-2.84754 -34.94207,-3.08563 -44.64776,-0.49073 -21.67917,5.79609 -35.03844,19.2588 -38.12519,38.42035 -3.441,21.36061 7.34243,40.0341 29.67945,51.39542 15.47233,7.86972 22.09962,9.83013 70.44574,20.83856 70.77378,16.1151 104.00145,27.4967 129.5,44.358 8.6661,5.7306 23.39092,20.9254 28.25611,29.158 17.86329,30.2272 20.17138,77.1213 5.47381,111.21262 -18.44816,42.79094 -64.61656,69.64884 -131.08587,76.25774 -9.2651,0.9213 -52.42622,1.1824 -62.64405,0.379 z m 1131.49993,30.833 c 0,-0.4546 10.3922,-30.9441 23.0938,-67.7544 12.7016,-36.8103 27.507,-79.75296 32.901,-95.42796 5.3939,-15.675 39.1541,-113.55 75.0227,-217.49998 35.8685,-103.95 66.5538,-192.9393 68.1897,-197.75401 l 2.9742,-8.754 120.6212,0.254 120.6212,0.25401 30.8254,93 c 16.954,51.15 60.7336,183.05809 97.2881,293.12908 36.5545,110.07106 66.4627,200.41056 66.4627,200.75446 0,0.3439 -49.5758,0.5108 -110.1685,0.3709 l -110.1686,-0.2544 -8.1521,-34 c -4.4837,-18.7 -8.4665,-35.2375 -8.8506,-36.75 l -0.6983,-2.75 h -79.7922 -79.7922 l -11.4483,36.75 -11.4483,36.75 -108.7405,0.2545 c -59.8072,0.1399 -108.7404,-0.1176 -108.7404,-0.5722 z m 368.6085,-215.43236 c -0.3377,-1.7875 -5.2651,-20.125 -10.9498,-40.75 -5.6847,-20.625 -16.5719,-60.33748 -24.1939,-88.24998 -7.6219,-27.9125 -14.1378,-50.75 -14.4798,-50.75 -0.7941,0 -50.7701,181.24538 -50.253,182.24998 0.2123,0.4125 22.9096,0.75 50.4383,0.75 h 50.0523 z m 290.0582,215.58336 c -0.3667,-0.3666 -0.6667,-132.66664 -0.6667,-294.00006 V 517.86406 l 101.75,7.5e-4 101.75,7.5e-4 12.1148,19.74925 c 96.4757,157.27226 162.8567,265.03616 163.9836,266.21354 1.2024,1.25618 1.4016,-18.9597 1.4016,-142.25 V 517.86406 h 101.5017 101.5017 l -0.2517,293.74998 -0.2517,293.75006 H 2791.933 2690.4683 l -52.325,-84.5 c -28.7787,-46.47504 -68.6196,-110.81766 -88.5353,-142.98356 l -36.2103,-58.4836 -0.2534,143.2336 -0.2534,143.23356 H 2412.061 c -55.4565,0 -101.13,-0.3 -101.4966,-0.6667 z m 648.9403,-0.9151 c -0.3339,-0.87 -0.607,-133.17004 -0.607,-294.00006 V 517.86406 l 125.75,0.01 c 123.902,0.01 139.4266,0.3333 168.75,3.51706 157.5719,17.10817 246.8313,96.47952 264.9395,235.58979 3.804,29.22298 4.4767,72.74893 1.5515,100.38323 -7.2132,68.1442 -30.5183,121.97292 -69.956,161.58046 -44.0494,44.2389 -106.6325,70.6486 -190.535,80.4046 -31.3904,3.65 -131.5877,6.5578 -225.143,6.534 -66.6751,-0.017 -74.2042,-0.1783 -74.75,-1.6008 z m 265.393,-175.87426 c 12.3573,-2.1035 26.8495,-7.1008 36.6229,-12.6285 9.311,-5.2662 23.2705,-18.6764 28.2076,-27.0975 12.9373,-22.0672 18.7504,-52.8566 16.2374,-86.00348 -1.7343,-22.87757 -5.4585,-37.75749 -13.5939,-54.3145 -10.7934,-21.96664 -28.5242,-37.69414 -51.9244,-46.05768 -14.4036,-5.14807 -24.142,-6.58031 -48.7996,-7.17703 l -21.75,-0.52635 v 118.26634 118.2664 l 22.75,-0.5553 c 13.7672,-0.3361 26.5011,-1.1938 32.25,-2.1724 z m 933.3074,176.70606 c 0.5126,-0.9037 103.0232,-166.96966 141.2048,-228.75006 82.4905,-133.47522 111.4878,-180.55241 111.4878,-181.00065 0,-0.27463 -44.325,-0.49933 -98.5,-0.49933 h -98.5 v -88.5 -88.5 h 269.5 c 148.225,0 269.5,0.21615 269.5,0.48032 0,0.48167 -25.3473,42.71326 -168.9673,281.51968 -42.5045,70.67498 -77.4982,129.06248 -77.7638,129.74998 -0.3845,0.9953 21.6477,1.25 108.1241,1.25 h 108.607 v 87.50006 87.5 h -282.559 c -155.4075,0 -282.3676,-0.3375 -282.1336,-0.75 z"
       id="path1" />
  </g>
</svg>
