<?xml version="1.0" encoding="UTF-8"?>
<svg id="katman_2" data-name="katman 2" xmlns="http://www.w3.org/2000/svg" viewBox="0 0 511.35 87.07">
  <defs>
    <style>
      .cls-1 {
        fill: #656468;
      }

      .cls-1, .cls-2, .cls-3, .cls-4 {
        stroke-width: 0px;
      }

      .cls-2 {
        fill: #e21f1e;
      }

      .cls-3 {
        fill: #115798;
      }

      .cls-4 {
        fill: #616165;
      }
    </style>
  </defs>
  <g id="Layer_1" data-name="Layer 1">
    <g>
      <path class="cls-3" d="M214.4,63.45c10.65-20.88,21.3-41.76,32.37-63.45,4.19,8.58,9.5,15.79,11.53,24.38,2.05,8.67.7,17.48-.86,26.16-.14.79-.35,1.56-.52,2.34-2.17,10.16-2.14,10-12.15,8.31-10.03-1.69-19.99-1.64-29.44,3.21-.31-.32-.62-.64-.93-.96Z"/>
      <path class="cls-1" d="M418.6,51.09c10.03-5.71,15.99-6.13,22.9,1.45,2.61-1.45,5.11-3.14,7.84-4.3,9.51-4.05,17.11.7,17.51,10.94.19,4.99.11,10,.02,15-.08,4.03-.79,8.24,4.65,10.45-5.38,1.58-10.4,1.15-15.5.99.07-1.17-.01-1.86.12-1.9,3.75-1.21,4.53-3.77,4.28-7.46-.36-5.38,0-10.8-.12-16.19-.16-6.88-4.29-9.64-10.93-7.46-6,1.97-7.25,3.65-7.26,9.85,0,5,.05,10-.02,15-.04,2.63-.37,5.21,3.42,5.59.74.07.68,1.31.47,2.43-4.82.7-9.68.21-14.56.3,0-1.15-.12-1.84.02-1.89,4.39-1.79,3.89-5.51,3.84-9.14-.08-5.2.07-10.4-.05-15.6-.12-5.43-2.69-7.95-7.97-6.98-6.44,1.18-10.73,2.99-9.69,10.17.46,3.13.08,6.39.08,9.59q0,8.06,4.03,13.29c-5.1,1.21-9.94.35-14.71.57-.1-.96-.23-1.66-.16-1.68,4.83-1.48,3.99-5.41,3.98-8.97,0-6.2.01-12.4-.01-18.6,0-1.71.49-3.87-2.58-3.32-1.04.19-1.47-.55-1.44-1.41.03-.79.3-1.6,1.19-1.9,2.47-.84,4.91-1.82,7.43-2.44,3.04-.74,1.69,2.56,3.22,3.66Z"/>
      <path class="cls-4" d="M305.89,35.15c-1.42-1.94-5.1.25-4.88-2.8.22-2.97,3.18-1.68,4.94-1.72,8.07-.17,16.15-.18,24.22-.16,1.69,0,3.83-.8,4.78,1.45,1.16,2.74,3.42,5.25,3.18,8.27-.15,1.81-2.09,1.53-3.14.18-5.54-7.11-13.27-6.26-21.24-6.12v16.15c4.77,1.02,9.78.21,14.72.48,2.6.14,2.16-1.73,2.28-3.25.1-1.33.95-1.59,2.08-1.45.95.12,1.38.74,1.39,1.61.03,3.6.03,7.21.02,10.81,0,1.16-.53,1.87-1.78,1.9-1.29.03-1.72-.74-1.73-1.87-.01-1.17,0-2.33,0-3.79h-16.88v26.73c1.19,1.61,5.67-.81,4.53,3.86-4.9.76-9.92.21-14.92.34-1.2.03-2.57,0-2.55-1.71.02-1.18.87-1.7,1.99-1.79.99-.08,2.03.02,3-1.04v-46.08Z"/>
      <path class="cls-4" d="M34.96,39.28c-4.02-2.01-7.32-4.7-11.6-5.59-5.97-1.24-11.13,1.03-12.81,5.99-1.5,4.42.47,8.24,6.05,10.86,3.44,1.62,7.12,2.74,10.68,4.11,9.06,3.48,12.71,9.09,11.32,17.36-1.41,8.38-8.64,14.58-17.18,15.01-8.33.42-15.4-2.12-21.41-8.1,1.13-2.31,2.95-3.77,4.97-5.24,2.61,2.08,5.09,4.07,7.59,6.04,3.2,2.52,6.9,3.13,10.85,2.68,5.25-.59,9.13-3.97,10.17-8.84.92-4.26-1.4-9.06-6.06-11.33-3.78-1.84-7.85-3.07-11.78-4.61-8.61-3.38-11.79-7.87-10.74-15.14.98-6.86,7.48-12.44,15.27-13.11,4.11-.36,7.97.52,11.79,2.03,1.7.67,3.48,2.37,5.55.47.75-.69,1.56-.07,2.03.58.52.73.24,1.49-.3,2.17-1.24,1.55-2.21,3.34-4.36,4.67Z"/>
      <path class="cls-4" d="M90.82,53c-1.68-.63-3.83,1.6-4.3-1.13-.32-1.81,1.48-2.04,2.82-2.47,2.28-.72,4.54-1.51,6.59-2.19,2.17.83.8,3.24,2.63,4.2.55-.23,1.34-.42,1.97-.84,2.53-1.66,5.08-3.18,8.22-3.54,8.37-.96,13.3,2.73,13.82,11.08.41,6.58.17,13.2.21,19.8.01,2.18-.44,4.55,2.99,4.69,1.18.05,1.58,1.14,1.29,2.24-.26.96-1.17.92-1.94.93-4.19.02-8.38.01-12.47.01-.15-.94-.31-1.63-.25-1.65,4.79-1.56,3.84-5.53,3.86-9.05.03-5,.19-10.01-.05-15.01-.35-7.16-4.81-9.89-11.62-7.38-5.53,2.04-7.23,4.42-7.24,10.16,0,3.6.07,7.21-.02,10.81-.1,4.19-1,8.63,4.68,11-5.3,1.5-10.26,1.19-15.34.84,0-.83-.11-1.84.02-1.87,4.66-1.08,4.25-4.56,4.18-8.1-.13-7.4-.04-14.8-.04-22.54Z"/>
      <path class="cls-1" d="M499.7,82.52c-3.11,2.37-6.31,3.57-9.74,4.04-7.16.98-13.08-3.03-14.49-9.69-1.45-6.86,2.04-12.71,8.92-14.91,5.03-1.61,10.27-1.33,15.63-1.21.82-3.95.31-7.13-2.86-9.33-2.79-1.94-7.37-1.15-10.76,1.16-2.25,1.53-2.85,4.85-6.48,5.65-.91-3.91.98-7.06,1.83-10.32.22-.83,1.63-1.1,2-.5,1.69,2.74,3.48.94,5.32.39,10.44-3.17,16.15.5,17.79,11.27.91,5.98.25,11.98.47,17.97.09,2.45-.83,5.24,3.12,5.92,1.2.21,1.32,2.35-.12,2.6-2.54.44-5.21.24-7.82.16-1.89-.05-1.51-2.15-2.79-3.19ZM500.46,70.26c-.86-1.68,1.87-5.27-2.28-5.93-3.97-.63-8.04-.37-11.77,1.4-3.73,1.77-5.16,5.42-4.21,10.14.73,3.64,3.09,5.77,7,6.3,7.61,1.03,11.19-2.62,11.26-11.91Z"/>
      <path class="cls-1" d="M81.28,85.54c-3.96-.37-8.56,2.59-11.42-2.83-3.15,1.93-6.24,3.33-9.68,3.81-7.24,1.01-12.82-2.67-14.48-9.5-1.66-6.84,1.65-12.71,8.61-14.93,3.45-1.1,7.04-1.64,10.71-1.46,1.58.08,3.18.55,5.17-.39.36-3.43.54-6.93-3.23-9.09-3.21-1.83-7.73-.71-11.15,2.05-1.8,1.46-2.22,4.33-5.43,4.94-1.69-4.02.91-7.19,1.59-11.1,2.94.9,5.43,1.34,8.43.55,10.39-2.76,16.16,1.75,16.75,12.63.3,5.58.08,11.18.05,16.77-.02,2.75-.51,5.65,3.63,6.03.74.07.7,1.3.46,2.51ZM70.35,71.12c.02-7.43-.19-7.66-7.79-6.89-1.96.2-3.97.66-5.8,1.39-3.71,1.49-5.28,4.86-4.66,9.32.56,4.07,2.88,6.51,6.83,7.19,7.53,1.3,11.4-2.43,11.42-11.01Z"/>
      <path class="cls-1" d="M159.61,59.3c-1.44-5.32.47-8.55,1.77-12.41,2.53,1.13,4.62,2.02,7.34.85,3.11-1.34,6.75-1.33,10.09-.26,3.77,1.22,5.71,4.07,6.64,7.86,1.64,6.72.8,13.54,1.03,20.31.11,3.15-1.09,6.9,3.79,7.83.17.03.15,1.08.27,2.1-4.18-.44-8.82,2.64-11.59-2.85-4.86,2.84-9.59,4.87-15.13,3.45-5.79-1.49-8.77-4.96-9.33-11.04-.51-5.58,1.81-9.78,6.85-12.17,3.89-1.84,8.08-2.35,12.35-2.32,1.78.01,3.57.46,5.62-.24.3-3.75.58-7.59-3.51-9.26-7.37-3-11.41,2.34-16.2,8.16ZM179.63,70.92c.11-6.88-.07-6.99-6.9-6.78-2.25.07-4.39.59-6.44,1.33-3.85,1.39-5.6,4.69-5.12,9.05.49,4.44,2.85,7,7.05,7.65,7.51,1.16,11.27-2.55,11.41-11.24Z"/>
      <path class="cls-1" d="M361.16,60.12c.17-3.87.23-7.61-4.05-9.19-4.2-1.54-7.78-.13-11.02,2.78-1.54,1.38-1.84,4.17-5.05,4.23-1.04-3.87.84-7.11,2.03-11.09,2.67,1.53,5,1.56,7.83.79,10.5-2.87,16.19,1.28,17.07,12.24.45,5.56.33,11.18.19,16.76-.08,3.09-.18,5.84,3.71,6.67.25.05.29,1.05.53,2.06-4.29.16-8.62,2.28-11.86-2.49-4.58,2.56-9.28,4.71-14.81,3.35-5.65-1.39-8.64-4.68-9.27-10.36-.68-6.22,1.37-10.36,6.56-12.86,3.87-1.86,8.06-2.36,12.32-2.39,1.77-.01,3.58.67,5.83-.5ZM361.37,70.54c-.84-1.86,1.86-5.65-2.68-6.27-3.8-.51-7.63-.17-11.18,1.43-3.71,1.67-5.28,5.08-4.57,9.41.66,4.01,3.08,6.45,7.02,7.05,7.57,1.17,11.29-2.49,11.4-11.63Z"/>
      <path class="cls-1" d="M397.96,56.25c-.53-.31-1.05-.59-1.55-.9-5.05-3.12-8.28-1.6-8.58,4.55-.35,7.18-.08,14.39-.08,21.48,1.02,2.25,5.59-.51,4.95,4.05-5.23.62-10.49.58-15.81.02,0-.79-.13-1.47.02-1.53,4.56-2,3.9-5.96,3.85-9.75-.07-5.41.03-10.81-.04-16.22-.03-2.17.95-4.92-3.02-5.04-1.29-.04-.86-1.64-.28-2.38,1.6-2.07,7.16-2.93,9.74-1.38.94.56,1.34.43,1.93-.19,2.32-2.46,4.92-2.31,7.7-.89.91.46,1.97.85,2.76-.07.96-1.11,1.91-1.53,2.96-.33.82.93.19,1.91-.37,2.72-1.35,1.96-2.14,4.32-4.17,5.86Z"/>
      <path class="cls-1" d="M128.35,50.65c5.26-3.83,9.05-7.13,10.82-12.41,3.54,2.87,1.4,6.08,2.69,8.57,2.12,1.34,4.7-.02,6.94.88q-.11,3.68-7.29,4.75c0,8.67-.06,17.44.03,26.2.03,3.31,2.21,3.89,5.03,3.34,1.39-.27,2.83-2.13,4.18.08-2.6,3.78-7.36,5.48-11.63,4.26-4.28-1.22-4.53-4.63-4.55-8.13-.04-6.81-.11-13.62.03-20.43.07-3.67.32-7.21-6.24-7.12Z"/>
      <path class="cls-2" d="M289.71,85.65h-49.17c6.37-2.36,12.29-5.39,16.85-10.56,1.09-1.24,2.26-1.32,3.77-.85,8.79,2.76,17.62,5.42,26.42,8.16,1.19.37,2.03,1.18,2.14,3.24Z"/>
      <path class="cls-2" d="M266.85,39.3c5.88,11.53,11.24,22.07,17.12,33.61-7.86-2.55-14.78-4.79-22.03-7.14,2.71-8.45,3.89-16.83,4.91-26.47Z"/>
      <path class="cls-3" d="M251.22,70.51c-8.7,7.27-17.56,10.14-27.73,8.53-2.56-.4-5.64-.85-5.92-4.11-.29-3.47,2.72-4.78,5.4-5.59,9.15-2.76,18.24-2.23,28.26,1.17Z"/>
      <path class="cls-3" d="M217.65,85.57h-13.95c.91-3.6,2.58-6.6,5.27-10.28.27,5.67,3.32,8.35,8.67,10.28Z"/>
    </g>
  </g>
</svg>