<?xml version="1.0" encoding="UTF-8"?>
<svg id="katman_2" data-name="katman 2" xmlns="http://www.w3.org/2000/svg" viewBox="0 0 311.81 311.82">
  <defs>
    <style>
      .cls-1 {
        fill: #1d1d1b;
        fill-rule: evenodd;
      }

      .cls-1, .cls-2 {
        stroke-width: 0px;
      }

      .cls-2 {
        fill: #e30613;
      }
    </style>
  </defs>
  <g id="Foreground">
    <path class="cls-2" d="M62.36,93.54C62.36,41.88,104.25,0,155.91,0s93.54,41.88,93.54,93.54h-5.68c0-48.52-39.34-87.86-87.87-87.86s-87.87,39.34-87.87,87.87h-5.66ZM212.8,167.8c-15.76,12.1-35.49,19.29-56.9,19.29s-41.13-7.19-56.9-19.29c-.9-2.93-1.58-5.95-2.03-9.05,15.59,14.09,36.25,22.68,58.92,22.68s43.34-8.59,58.93-22.69c-.44,3.11-1.13,6.13-2.03,9.07ZM79.38,93.55c0-42.27,34.26-76.53,76.53-76.53s76.53,34.26,76.53,76.53h-8.5c0-37.58-30.46-68.04-68.03-68.04s-68.03,30.46-68.03,68.03h-8.5ZM155.91,170.08c-23.74,0-44.96-10.81-59-27.78.5-3.73,1.34-7.36,2.5-10.84,12.21,18.17,32.96,30.12,56.5,30.12s44.29-11.95,56.5-30.12c1.16,3.48,2,7.1,2.5,10.84-14.04,16.97-35.26,27.79-59,27.79ZM208.26,121.89c-10.08,18.57-29.74,31.18-52.36,31.18s-42.28-12.61-52.36-31.18c7.25-13.35,19.45-23.62,34.15-28.34h-41.32c0-32.89,26.65-59.54,59.53-59.54s59.53,26.65,59.53,59.53h-41.32c14.7,4.73,26.9,15,34.15,28.35Z"/>
    <path class="cls-1" d="M212.41,131.45c-1.11-3.33-2.5-6.52-4.14-9.56,4.57-8.43,7.17-18.09,7.17-28.35h8.5c0,14.03-4.25,27.07-11.53,37.91ZM214.83,158.73c.4-2.77.6-5.61.6-8.49,0-2.7-.18-5.35-.53-7.95,10.95-13.24,17.53-30.22,17.53-48.74h11.34c0,25.86-11.17,49.11-28.94,65.19ZM87.88,93.54h8.5c0,10.26,2.6,19.92,7.17,28.35-1.65,3.04-3.04,6.23-4.14,9.56-7.28-10.83-11.53-23.87-11.53-37.91ZM68.03,93.55h11.35c0,18.52,6.58,35.5,17.53,48.74-.35,2.6-.53,5.26-.53,7.95,0,2.89.21,5.73.6,8.5-17.78-16.08-28.95-39.33-28.95-65.19ZM311.81,93.55l-155.9,218.26L0,93.55h62.36c0,30.25,14.37,57.15,36.65,74.25,7.49,24.31,30.13,41.97,56.9,41.97s49.4-17.66,56.9-41.97c22.28-17.1,36.65-44,36.65-74.26h62.35Z"/>
  </g>
</svg>